<svg width="127" height="30" viewBox="0 0 127 30" fill="none" xmlns="http://www.w3.org/2000/svg">
<g clip-path="url(#clip0)">
<path d="M0.202148 0.199951V29.7995H29.6272V0.199951H0.202148Z" fill="white"/>
<path d="M0.202148 0.199951V29.7995H29.6272V0.199951H0.202148ZM27.6694 12.5039C27.5864 13.4711 27.3857 14.4245 27.0721 15.3427C26.0372 18.4354 24.8378 20.3524 22.0595 20.3524C21.2418 20.3524 19.7905 20.1338 19.256 18.6699L19.1298 18.3228L18.9019 18.6132C18.4816 19.1554 17.9445 19.5948 17.3311 19.8983C16.7177 20.2018 16.0439 20.3616 15.3603 20.3655C14.3 20.3706 13.4485 20.0131 12.8984 19.332L12.7471 19.1451L12.5864 19.3237C11.9972 19.9773 10.9729 20.3522 9.77433 20.3522C8.83313 20.3522 8.02049 20.0305 7.48581 19.4469L7.33999 19.2873L7.18849 19.4414C6.59406 20.0451 5.65748 20.3492 4.47976 20.3213C3.05102 20.2872 2.18135 19.4852 2.15337 18.175C2.11002 16.1551 4.05366 11.9055 4.85789 10.6133C5.38036 9.75009 6.09936 9.33163 7.05424 9.33163C7.70507 9.33163 8.1499 9.46858 8.41418 9.75009C8.65469 10.0062 8.70246 10.2225 8.72371 10.742L8.75128 11.414L9.10373 10.8425C9.95698 9.45969 11.3708 9.26898 12.7715 9.26898C13.7454 9.26898 14.5953 9.62881 14.9366 10.187L15.0628 10.3923L15.2457 10.2363C16.0596 9.58741 17.0751 9.24843 18.1133 9.27913C19.3436 9.27913 20.2385 9.5869 20.7715 10.1937C20.901 10.3319 21.0068 10.4907 21.0846 10.6636L21.2218 10.9528L21.4271 10.7083C22.2078 9.77909 23.2744 9.30813 24.5975 9.30813C25.6454 9.30813 26.441 9.58817 26.9618 10.1406C27.6128 10.8338 27.7061 11.8083 27.6694 12.5039Z" fill="#FFED00"/>
<path d="M0.202148 0.199951V29.7995H29.6272V0.199951H0.202148ZM28.4981 13.6394C28.3649 14.7164 27.641 16.7122 27.2566 17.5098C26.2256 19.6476 24.8467 21.2907 22.191 21.2907C20.7723 21.2907 19.6053 20.8357 18.9229 19.9608C17.9382 20.8342 16.6681 21.3121 15.3553 21.3032C14.4101 21.3276 13.4847 21.0281 12.7309 20.4538C11.861 21.0296 10.8366 21.3236 9.79559 21.2964C8.91013 21.3156 8.04124 21.0532 7.31264 20.5467C6.57007 21.0424 5.59688 21.2876 4.45451 21.2611C2.55358 21.216 1.24141 20.0032 1.20374 18.2427C1.15366 15.9038 3.11225 11.6227 4.03515 10.1402C4.33754 9.59994 4.77918 9.15173 5.31354 8.84277C5.84791 8.53381 6.45522 8.37554 7.0715 8.38464C8.47373 8.38464 8.9819 8.78786 9.23187 9.30072C10.3134 8.37638 11.7476 8.32347 12.7686 8.32347C13.8956 8.32347 14.6024 8.62424 15.2042 9.10663C16.0879 8.58495 17.0986 8.3211 18.1229 8.34463C19.5748 8.34463 20.6522 8.6833 21.4042 9.43196C22.2815 8.6979 23.3794 8.36305 24.6093 8.36305C26.2346 8.36305 27.3042 8.95296 27.9323 9.83201C28.8194 11.0713 28.6612 12.3199 28.4981 13.6394Z" fill="#E3000B"/>
<path d="M0 0V30H29.8232V0H0ZM29.4126 0.413383V29.5868H0.410949V0.413383H29.4126Z" fill="#181716"/>
<path d="M28.3548 9.00176V8.79771H28.4929C28.5937 8.79771 28.6456 8.83327 28.6456 8.89868C28.6456 8.95096 28.612 9.00155 28.5097 9.00155L28.3548 9.00176ZM28.8495 9.42509L28.7637 9.27544C28.6888 9.14442 28.6684 9.12389 28.6048 9.10124V9.09743C28.6587 9.0961 28.7099 9.07347 28.7473 9.03445C28.7847 8.99543 28.8053 8.94315 28.8047 8.88894C28.8047 8.77083 28.73 8.68087 28.5714 8.68087H28.2025V9.4253H28.355V9.12029H28.383C28.4485 9.12029 28.4746 9.12791 28.5044 9.15775C28.5443 9.20167 28.5782 9.2508 28.605 9.3038L28.6648 9.42551L28.8495 9.42509ZM28.4853 8.47259C28.5989 8.47222 28.7101 8.50576 28.8048 8.56899C28.8995 8.63221 28.9734 8.72227 29.0171 8.82776C29.0609 8.93325 29.0726 9.04943 29.0507 9.16159C29.0287 9.27376 28.9742 9.37686 28.8941 9.45785C28.8139 9.53884 28.7116 9.59408 28.6002 9.61657C28.4888 9.63906 28.3732 9.62779 28.2682 9.58419C28.1631 9.5406 28.0733 9.46663 28.0101 9.37165C27.9468 9.27667 27.913 9.16496 27.913 9.05065C27.9132 8.898 27.9735 8.75166 28.0807 8.64356C28.1878 8.53546 28.3331 8.47438 28.4849 8.47365L28.4853 8.47259ZM28.4853 8.33057C28.3441 8.33078 28.2061 8.37307 28.0888 8.45211C27.9715 8.53116 27.8801 8.6434 27.8262 8.77466C27.7722 8.90593 27.7582 9.05033 27.7858 9.18962C27.8133 9.32892 27.8814 9.45686 27.9812 9.5573C28.0811 9.65773 28.2082 9.72615 28.3467 9.75391C28.4852 9.78167 28.6287 9.76753 28.7592 9.71328C28.8897 9.65902 29.0013 9.56708 29.0799 9.44907C29.1585 9.33105 29.2005 9.19226 29.2007 9.05023C29.2009 8.95568 29.1825 8.86203 29.1466 8.77466C29.1107 8.68729 29.0579 8.60792 28.9914 8.54114C28.9249 8.47435 28.8459 8.42146 28.7589 8.3855C28.672 8.34954 28.5789 8.33123 28.4849 8.33162L28.4853 8.33057Z" fill="#181716"/>
<path d="M24.5955 9.10172C23.0542 9.10172 21.9895 9.71555 21.2684 10.5751C21.1824 10.3848 21.066 10.2098 20.9239 10.0572C20.3347 9.38599 19.3849 9.07272 18.1117 9.07272C17.0244 9.03965 15.9609 9.39628 15.1109 10.079C14.7365 9.46769 13.8454 9.06299 12.7706 9.06299C11.3662 9.06299 9.83587 9.2628 8.92812 10.7351C8.90708 10.206 8.85868 9.9251 8.56262 9.60972C8.2028 9.22639 7.62057 9.12649 7.05307 9.12649C6.01949 9.12649 5.2422 9.58051 4.68249 10.5053C3.87048 11.8102 1.90243 16.1021 1.94703 18.1809C1.97565 19.5237 2.87141 20.4917 4.47417 20.5293C5.72659 20.5596 6.70883 20.2231 7.33377 19.5885C7.89454 20.201 8.7501 20.5605 9.77358 20.5605C10.9134 20.5605 12.0606 20.2163 12.738 19.4636C13.3086 20.1693 14.2069 20.5791 15.3615 20.5736C16.0759 20.5695 16.7802 20.4026 17.4213 20.0855C18.0625 19.7684 18.6239 19.3093 19.0634 18.7427C19.5385 20.044 20.744 20.5605 22.06 20.5605C24.9446 20.5605 26.2118 18.5653 27.2674 15.41C27.5872 14.4741 27.7913 13.5023 27.8753 12.5163C27.9624 10.8566 27.2647 9.10172 24.5955 9.10172ZM5.40191 17.0337C6.89441 16.7731 7.2698 17.3158 7.22267 17.8183C7.0819 19.3231 5.70954 19.6598 4.51815 19.6315C3.65396 19.6103 2.87688 19.2128 2.85584 18.2033C2.81817 16.4376 4.60821 12.3529 5.45115 10.9987C5.84021 10.3561 6.31387 10.0381 7.07138 10.0381C7.78807 10.0381 7.96566 10.4083 7.95514 10.8516C7.92526 12.0337 6.02517 15.6293 5.40191 17.0337ZM10.2626 15.6468C10.0945 16.1159 9.94877 16.5928 9.82577 17.0758C10.3083 16.9342 10.8099 16.8689 11.3124 16.8821C12.0295 16.8999 12.4878 17.1996 12.4878 17.7953C12.4878 19.2411 10.8989 19.666 9.79694 19.666C8.58661 19.666 7.52441 18.9727 7.52441 17.6416C7.52441 16.081 8.36609 13.7143 9.15495 12.1383C10.1241 10.2026 11.1144 9.945 12.82 9.945C13.57 9.945 14.4335 10.2676 14.4335 10.979C14.4335 11.966 13.6024 12.3427 12.7784 12.3899C12.3731 12.4169 11.9667 12.4225 11.5609 12.4067C11.3364 12.7778 11.1469 13.1692 10.9951 13.5759C12.521 13.36 13.1681 13.7084 12.9099 14.5961C12.5608 15.7956 11.5274 15.8746 10.262 15.6468H10.2626ZM17.768 11.915C17.5871 11.9248 17.4114 11.9799 17.2571 12.0754C17.1027 12.171 16.9745 12.3038 16.8843 12.4619C16.4424 13.0865 15.4837 15.5903 15.3345 16.6186C15.2323 17.3232 15.5347 17.4667 15.8652 17.4667C16.3953 17.4667 16.9897 16.9024 17.1925 15.9711C17.1925 15.9711 16.1825 15.9466 16.4618 15.0464C16.7322 14.1726 17.2447 13.9834 18.095 13.9482C19.7702 13.8794 19.6048 15.1238 19.4708 15.7872C19.0354 17.9417 17.5111 19.6727 15.3547 19.6727C13.8782 19.6727 12.9619 18.8513 12.9619 17.3366C12.9619 16.2571 13.494 14.5638 13.9159 13.5725C14.814 11.4626 15.7554 9.98585 18.1544 9.98585C19.5936 9.98585 20.7291 10.5059 20.5626 11.8625C20.4404 12.8573 19.945 13.4426 19.0453 13.5135C18.7928 13.5334 17.764 13.5071 18.1056 12.5273C18.2247 12.1844 18.2735 11.915 17.7674 11.915H17.768ZM26.8281 13.6959C26.5343 15.0563 26.0482 16.3673 25.3846 17.5889C24.3746 19.4164 23.1474 19.6721 22.0762 19.6594C21.0049 19.6467 19.7973 19.2485 19.7881 17.5851C19.7815 16.3915 20.2931 14.7064 20.7278 13.6024C21.4853 11.6006 22.259 9.96828 24.7047 9.99749C27.5582 10.0324 27.0501 12.584 26.8274 13.6957L26.8281 13.6959ZM24.7937 12.4446C24.7634 13.211 23.6465 16.2757 23.2497 16.953C23.0778 17.2462 22.884 17.4886 22.5343 17.4886C22.4734 17.491 22.4128 17.4806 22.3563 17.4579C22.2998 17.4351 22.2487 17.4007 22.2063 17.3567C22.164 17.3127 22.1314 17.2603 22.1106 17.2028C22.0898 17.1452 22.0813 17.0839 22.0856 17.0229C22.0635 16.3314 23.3252 12.8632 23.7568 12.3006C23.8203 12.186 23.9157 12.0926 24.0312 12.0317C24.1467 11.9708 24.2774 11.9452 24.4072 11.9579C24.7651 11.9611 24.8019 12.221 24.7931 12.4443L24.7937 12.4446Z" fill="#181716"/>
<path d="M39.1753 0.000244141H127V1.20018H39.1753V0.000244141Z" fill="#006CB7"/>
<path d="M39.1753 28.7998H99.8352V29.9997H39.1753V28.7998Z" fill="#006CB7"/>
<path d="M107.79 28.7998H127V29.9997H107.79V28.7998Z" fill="#006CB7"/>
<path d="M45.8126 17.324H48.1891C48.1891 18.7467 47.7753 19.678 46.9476 20.118C46.3585 20.4334 45.2348 20.5907 43.5765 20.5898C41.7193 20.5898 40.4768 20.2053 39.8487 19.4362C39.2956 18.7688 39.0195 17.4706 39.0205 15.5416C39.0205 13.6276 39.2842 12.3298 39.8117 11.6482C40.4258 10.8408 41.6808 10.4372 43.5765 10.4375C45.5599 10.4375 46.8408 10.8148 47.4192 11.5695C47.9332 12.2358 48.1902 13.6938 48.1902 15.9433H41.3793C41.3793 17.1058 41.4801 17.8447 41.6817 18.1601C41.946 18.5638 42.5747 18.7657 43.5679 18.7657C44.3968 18.7657 44.9376 18.7092 45.1902 18.5964C45.6053 18.4105 45.8128 17.9864 45.8126 17.324ZM41.3793 14.4314H45.8164C45.8164 13.4592 45.6907 12.8546 45.4391 12.6179C45.1876 12.3811 44.5645 12.2628 43.5698 12.2631C42.5878 12.2631 41.965 12.4062 41.7013 12.6924C41.4865 12.9308 41.3792 13.5105 41.3793 14.4314Z" fill="#181716"/>
<path d="M56.939 20.4877L57.0112 18.9906H56.939C56.4491 20.058 55.4191 20.5913 53.8488 20.5906C52.1911 20.5906 51.0989 20.0738 50.5721 19.0404C50.2321 18.3735 50.0622 17.1007 50.0625 15.2219C50.0625 13.5709 50.2703 12.4113 50.6858 11.7432C51.2277 10.8735 52.2857 10.4388 53.8597 10.4389C55.4457 10.4389 56.4407 10.9157 56.8445 11.8693H56.9388V6.27417H59.2991V20.4877H56.939ZM54.5661 12.263C53.6098 12.263 52.9913 12.5333 52.7104 13.0739C52.5189 13.4384 52.4233 14.1548 52.4234 15.223C52.4234 16.5796 52.5063 17.453 52.6721 17.8432C52.9395 18.4591 53.5708 18.7669 54.5659 18.7665C55.6881 18.7665 56.3895 18.4711 56.6701 17.8804C56.8495 17.5034 56.939 16.6175 56.9386 15.2228C56.9386 14.1423 56.8175 13.4132 56.5752 13.0356C56.2559 12.5206 55.5862 12.263 54.5661 12.263Z" fill="#181716"/>
<path d="M70.2763 20.4878H67.9846V18.9537H67.916C67.4626 20.045 66.4163 20.5906 64.777 20.5905C62.559 20.5905 61.4503 19.638 61.4507 17.733V10.5427H63.8097V16.8002C63.8097 17.57 63.8981 18.0743 64.075 18.3132C64.2892 18.6159 64.7536 18.7668 65.4729 18.7668C66.3544 18.7668 66.9775 18.5748 67.3422 18.1908C67.7069 17.8069 67.8899 17.1668 67.891 16.2706L67.9162 10.5427H70.2767L70.2763 20.4878Z" fill="#181716"/>
<path d="M78.7813 16.6998H81.159C81.159 18.2991 80.7949 19.3694 80.0665 19.9105C79.4633 20.3638 78.3271 20.5905 76.6577 20.5906C74.8117 20.5906 73.5938 20.2 73.0042 19.4186C72.4905 18.7512 72.2333 17.4533 72.2324 15.525C72.2324 13.6219 72.4834 12.3362 72.9853 11.6679C73.6011 10.8487 74.8253 10.439 76.658 10.4387C78.2649 10.4387 79.3823 10.6466 80.0101 11.0623C80.7752 11.5673 81.1581 12.5558 81.1588 14.0277H78.7811C78.7811 13.2657 78.6112 12.7718 78.2714 12.5461C78.0072 12.358 77.4663 12.2641 76.6489 12.2643C75.6935 12.2643 75.0962 12.4905 74.857 12.9429C74.6795 13.2826 74.5914 14.1434 74.5927 15.5253C74.5927 16.8949 74.6745 17.743 74.838 18.0697C75.064 18.5345 75.6677 18.7669 76.6489 18.7669C77.5544 18.7669 78.1362 18.6448 78.3941 18.4005C78.6521 18.1563 78.7812 17.5893 78.7813 16.6998Z" fill="#181716"/>
<path d="M89.2736 20.4877L89.3504 19.2372H89.2942C89.1899 19.5206 89.0191 19.7746 88.7962 19.9773C88.5733 20.18 88.305 20.3255 88.0142 20.4013C87.4298 20.5485 86.8277 20.6121 86.2256 20.5901C84.9571 20.5901 84.0468 20.3888 83.4948 19.986C82.8543 19.5195 82.5342 18.6697 82.5347 17.4365C82.5347 16.2536 82.868 15.4291 83.5346 14.963C84.0892 14.5854 84.9893 14.3964 86.2347 14.396C86.8113 14.3749 87.3883 14.4256 87.9525 14.5469C88.2175 14.611 88.4658 14.7314 88.6807 14.9001C88.8955 15.0688 89.072 15.2818 89.1982 15.5248H89.2736V14.2353C89.2736 13.3769 89.1667 12.8147 88.9531 12.5487C88.688 12.2207 88.0898 12.0564 87.1586 12.056C86.5291 12.056 86.0886 12.1256 85.8372 12.2647C85.4725 12.4672 85.2901 12.8593 85.2901 13.4409H82.9124C82.9124 12.1443 83.3398 11.2819 84.1947 10.8537C84.7469 10.5766 85.7326 10.4381 87.1515 10.4382C88.8462 10.4382 89.989 10.6589 90.5798 11.1003C91.2835 11.6183 91.6354 12.6719 91.6355 14.2609V20.4875L89.2736 20.4877ZM87.0749 16.0133C86.2906 16.0133 85.7786 16.0705 85.5388 16.185C85.1094 16.3874 84.8948 16.8045 84.8949 17.4361C84.8949 18.1071 85.0594 18.5371 85.3882 18.726C85.6655 18.8905 86.2279 18.973 87.0753 18.9734C87.8459 18.9734 88.3703 18.8977 88.6486 18.7461C89.065 18.5185 89.2734 18.0819 89.2738 17.4363C89.2738 16.817 89.0528 16.4064 88.6107 16.2046C88.3319 16.0771 87.8199 16.0133 87.0749 16.0133Z" fill="#181716"/>
<path d="M92.7549 12.3663V10.5426H93.9869V8.30469H96.3476V10.5426H100.155V12.3663H96.3476V17.445C96.3476 17.9612 96.3918 18.2947 96.4802 18.4456C96.6064 18.6599 96.903 18.767 97.37 18.7669C97.9627 18.7669 98.329 18.5462 98.469 18.1048C98.553 17.6309 98.5841 17.1491 98.5618 16.6682H100.664C100.689 18.0826 100.501 19.0678 100.098 19.6239C99.6322 20.2688 98.7267 20.591 97.3816 20.5906C96.0996 20.5906 95.2258 20.3952 94.7604 20.0043C94.2449 19.564 93.987 18.7198 93.9869 17.4717V12.3663H92.7549Z" fill="#181716"/>
<path d="M104.881 6.27417V8.30468H102.521V6.27417H104.881ZM104.881 10.5426V20.4877H102.521V10.5426H104.881Z" fill="#181716"/>
<path d="M111.411 10.4387C113.395 10.4387 114.688 10.8046 115.29 11.5364C115.805 12.1662 116.063 13.4958 116.063 15.5253C116.063 17.541 115.805 18.8641 115.29 19.4946C114.687 20.2253 113.394 20.5907 111.411 20.5908C109.428 20.591 108.134 20.2256 107.53 19.4946C107.015 18.865 106.758 17.5419 106.758 15.5253C106.758 13.4954 107.015 12.1658 107.53 11.5364C108.133 10.8046 109.427 10.4387 111.411 10.4387ZM111.411 12.2633C110.4 12.2633 109.755 12.4768 109.478 12.904C109.238 13.2816 109.118 14.1612 109.119 15.5428C109.119 16.9133 109.239 17.7808 109.478 18.1453C109.743 18.5593 110.387 18.7665 111.411 18.7669C112.446 18.7669 113.096 18.5597 113.361 18.1453C113.588 17.7925 113.702 16.925 113.703 15.5428C113.703 14.136 113.589 13.2563 113.361 12.904C113.084 12.4776 112.434 12.2639 111.411 12.2631V12.2633Z" fill="#181716"/>
<path d="M118.06 10.5428H120.419V12.0393H120.494C120.592 11.7385 120.754 11.463 120.969 11.232C121.184 11.0011 121.447 10.8204 121.739 10.7026C122.338 10.5 122.969 10.4105 123.601 10.4387C124.855 10.4387 125.733 10.7068 126.235 11.243C126.737 11.7792 126.988 12.6781 126.988 13.9396V20.4873H124.628V14.1919C124.628 13.4484 124.503 12.941 124.251 12.6698C124 12.3986 123.51 12.2631 122.78 12.2634C121.823 12.2634 121.175 12.4963 120.836 12.9619C120.558 13.3409 120.42 14.0281 120.42 15.0235V20.4873H118.06V10.5428Z" fill="#181716"/>
<path d="M124.663 9.52169V8.18545H124.167V8.00659H125.36V8.18545H124.862V9.52169H124.663Z" fill="#181716"/>
<path d="M125.559 9.52169V8.00659H125.859L126.215 9.07931C126.248 9.17936 126.272 9.25415 126.287 9.30368C126.304 9.24865 126.331 9.16772 126.367 9.0609L126.728 8.0068H126.996V9.52169H126.804V8.25361L126.366 9.52169H126.186L125.751 8.2318V9.52169H125.559Z" fill="#181716"/>
</g>
<defs>
<clipPath id="clip0">
<rect width="127" height="30" fill="white"/>
</clipPath>
</defs>
</svg>
