<svg xmlns="http://www.w3.org/2000/svg" width="212" height="50" viewBox="0 0 212 50"><g><g><g/><g><g><path fill="#fff" d="M.34.33v49.333h49.119V.33z"/></g><g><path fill="#ffed00" d="M49.459.33v49.333H.34V.33zm-4.45 16.568c-.869-.921-2.197-1.388-3.946-1.388-2.209 0-3.99.785-5.292 2.334l-.343.407-.23-.482a2.866 2.866 0 0 0-.522-.783c-.89-1.011-2.383-1.524-4.437-1.524a7.338 7.338 0 0 0-4.787 1.595l-.305.26-.211-.342c-.57-.93-1.988-1.53-3.614-1.53-2.338 0-4.698.318-6.123 2.623l-.588.952-.046-1.12c-.035-.866-.115-1.226-.517-1.653-.44-.47-1.183-.697-2.27-.697-1.594 0-2.794.697-3.666 2.136-1.343 2.153-4.587 9.236-4.515 12.602.047 2.184 1.499 3.52 3.884 3.578 1.966.046 3.529-.46 4.521-1.467l.253-.257.244.266c.892.973 2.249 1.51 3.82 1.51 2 0 3.71-.626 4.694-1.715l.268-.298.253.312c.918 1.135 2.34 1.73 4.11 1.722a7.526 7.526 0 0 0 3.29-.778 7.559 7.559 0 0 0 2.621-2.142l.38-.484.212.578c.892 2.44 3.314 2.805 4.68 2.805 4.637 0 6.64-3.196 8.367-8.35.523-1.53.858-3.12.997-4.731.061-1.16-.095-2.784-1.181-3.94z"/></g><g><path fill="#e3000b" d="M49.459.33v49.333H.34V.33zm-2.83 16.053c-1.048-1.465-2.833-2.448-5.546-2.448-2.053 0-3.886.558-5.35 1.782-1.256-1.248-3.054-1.812-5.478-1.812a9.18 9.18 0 0 0-4.872 1.27c-1.005-.805-2.185-1.306-4.066-1.306-1.704 0-4.098.088-5.904 1.629-.417-.855-1.265-1.527-3.606-1.527a5.702 5.702 0 0 0-2.935.764 5.733 5.733 0 0 0-2.134 2.162c-1.54 2.47-4.81 9.606-4.726 13.504.063 2.934 2.253 4.956 5.426 5.03 1.907.045 3.532-.363 4.772-1.19a7.003 7.003 0 0 0 4.144 1.25 8.486 8.486 0 0 0 4.9-1.405 6.939 6.939 0 0 0 4.381 1.416 8.893 8.893 0 0 0 5.956-2.237c1.139 1.458 3.087 2.216 5.455 2.216 4.433 0 6.735-2.738 8.456-6.301.642-1.33 1.85-4.656 2.072-6.45.272-2.2.537-4.281-.944-6.347z"/></g><g><path fill="#181716" d="M49.783 0v50H0V0zM.686.689v48.622h48.412V.69z"/></g><g><path fill="#181716" d="M47.333 14.999v-.34h.23c.169 0 .255.059.255.168 0 .087-.056.171-.227.171zm.826.705l-.144-.25c-.125-.218-.159-.252-.265-.29v-.006a.341.341 0 0 0 .334-.347c0-.197-.125-.347-.39-.347h-.615v1.24h.254v-.508h.047c.11 0 .153.013.203.063.066.073.123.155.168.243l.1.203zm-.608-1.587a.956.956 0 0 1 .888.592.967.967 0 0 1-.696 1.314.955.955 0 0 1-.986-.408.966.966 0 0 1 .118-1.213.957.957 0 0 1 .675-.284zm0-.237a1.189 1.189 0 0 0-1.1.74 1.202 1.202 0 0 0 .258 1.305 1.19 1.19 0 0 0 2.036-.846 1.2 1.2 0 0 0-.737-1.107c-.146-.06-.301-.09-.458-.09z"/></g><g><path fill="#181716" d="M46.533 20.866a20.197 20.197 0 0 1-1.015 4.822c-1.762 5.26-3.877 8.584-8.692 8.584-2.197 0-4.21-.86-5.003-3.03a7.902 7.902 0 0 1-2.74 2.239 7.867 7.867 0 0 1-3.44.813c-1.927.01-3.426-.673-4.379-1.85-1.13 1.255-3.045 1.828-4.948 1.828-1.709 0-3.137-.599-4.073-1.62C11.2 33.71 9.56 34.272 7.47 34.222c-2.676-.063-4.171-1.676-4.219-3.914-.074-3.465 3.211-10.618 4.567-12.793.934-1.541 2.231-2.298 3.957-2.298.947 0 1.919.166 2.52.805.494.526.575.994.61 1.876 1.515-2.454 4.07-2.787 6.414-2.787 1.794 0 3.282.675 3.906 1.693a7.636 7.636 0 0 1 5.01-1.677c2.125 0 3.71.522 4.694 1.641a3.2 3.2 0 0 1 .575.863c1.204-1.432 2.981-2.455 5.554-2.455 4.456 0 5.62 2.924 5.475 5.69zM13.28 18.09c.018-.739-.278-1.356-1.475-1.356-1.264 0-2.055.53-2.704 1.601-1.407 2.257-4.396 9.065-4.333 12.008.035 1.682 1.333 2.345 2.775 2.38 1.989.047 4.28-.514 4.515-3.022.078-.837-.548-1.742-3.04-1.308 1.04-2.34 4.213-8.333 4.262-10.303zm3.852 7.992c2.112.38 3.837.248 4.42-1.751.43-1.48-.65-2.06-3.197-1.7.254-.678.57-1.33.945-1.95.677.027 1.355.018 2.032-.027 1.375-.079 2.763-.707 2.763-2.352 0-1.185-1.442-1.723-2.694-1.723-2.847 0-4.5.43-6.118 3.655-1.317 2.627-2.721 6.572-2.721 9.173 0 2.218 1.773 3.374 3.793 3.374 1.84 0 4.492-.708 4.492-3.118 0-.993-.765-1.493-1.962-1.522a8.07 8.07 0 0 0-2.482.323c.205-.805.449-1.6.73-2.382zm12.53-6.22c.843 0 .761.45.563 1.02-.57 1.634 1.147 1.678 1.568 1.644 1.502-.118 2.329-1.093 2.533-2.751.278-2.261-1.617-3.128-4.02-3.128-4.005 0-5.576 2.461-7.075 5.978-.704 1.652-1.593 4.474-1.593 6.273 0 2.525 1.53 3.894 3.995 3.894 3.6 0 6.144-2.885 6.87-6.476.224-1.106.5-3.18-2.296-3.065-1.42.059-2.275.374-2.726 1.83-.467 1.5 1.22 1.541 1.22 1.541-.34 1.553-1.331 2.493-2.216 2.493-.552 0-1.057-.239-.886-1.413.249-1.714 1.85-5.887 2.587-6.928a1.818 1.818 0 0 1 1.475-.912zm15.122 2.968c.372-1.853 1.22-6.105-3.543-6.163-4.083-.05-5.375 2.671-6.64 6.008-.725 1.84-1.579 4.648-1.568 6.638.016 2.772 2.031 3.435 3.82 3.457 1.788.02 3.836-.405 5.522-3.451a24.347 24.347 0 0 0 2.41-6.488zm-3.395-2.085c-.05 1.277-1.915 6.385-2.577 7.514-.287.489-.61.893-1.195.893a.719.719 0 0 1-.707-.477.728.728 0 0 1-.042-.3c-.036-1.152 2.07-6.932 2.79-7.87a1.121 1.121 0 0 1 1.086-.571c.597.005.659.438.644.81z"/></g></g><g><g><path fill="#006cb7" d="M65.39 0h146.605v2H65.39z"/></g><g><path fill="#006cb7" d="M65.39 48h101.259v2H65.39z"/></g><g><path fill="#006cb7" d="M179.93 48h32.066v2H179.93z"/></g><g><path fill="#181716" d="M80.445 28.878c0 2.37-.69 3.923-2.072 4.656-.984.526-2.86.788-5.628.787-3.1 0-5.174-.641-6.222-1.923-.924-1.113-1.385-3.276-1.383-6.491 0-3.19.44-5.353 1.32-6.49 1.026-1.345 3.12-2.017 6.285-2.017 3.311 0 5.45.629 6.415 1.887.858 1.11 1.287 3.54 1.287 7.29h-11.37c0 1.937.169 3.168.505 3.694.441.673 1.491 1.01 3.149 1.01 1.384 0 2.286-.095 2.708-.283.693-.31 1.04-1.017 1.039-2.12zm-3.96-4.821c0-1.62-.21-2.628-.63-3.023-.42-.395-1.46-.592-3.121-.591-1.64 0-2.679.238-3.12.715-.358.398-.537 1.364-.536 2.899z"/></g><g><path fill="#181716" d="M95.049 34.15l.12-2.496h-.12c-.818 1.779-2.537 2.668-5.159 2.667-2.767 0-4.59-.862-5.47-2.584-.567-1.112-.85-3.233-.85-6.364 0-2.752.347-4.684 1.04-5.798.905-1.45 2.671-2.174 5.299-2.174 2.647 0 4.308.795 4.982 2.384h.157V10.46h3.94v23.69zM91.088 20.44c-1.596 0-2.63.45-3.098 1.352-.32.607-.48 1.801-.479 3.582 0 2.26.138 3.716.415 4.367.447 1.026 1.5 1.54 3.161 1.539 1.874 0 3.045-.493 3.513-1.477.3-.629.449-2.105.448-4.43 0-1.8-.202-3.016-.606-3.645-.533-.858-1.651-1.288-3.354-1.288z"/></g><g><path fill="#181716" d="M117.313 34.145h-3.826v-2.557h-.114c-.757 1.82-2.504 2.729-5.24 2.728-3.703 0-5.554-1.587-5.553-4.762V17.57h3.938V28c0 1.282.148 2.123.443 2.52.357.505 1.133.757 2.333.757 1.472 0 2.512-.32 3.12-.96.61-.64.915-1.707.917-3.2l.042-9.547h3.94z"/></g><g><path fill="#181716" d="M131.512 27.835h3.97c0 2.666-.609 4.45-1.825 5.351-1.007.756-2.903 1.134-5.69 1.134-3.081 0-5.114-.651-6.099-1.953-.857-1.113-1.287-3.276-1.288-6.49 0-3.172.419-5.315 1.257-6.428 1.028-1.366 3.071-2.049 6.13-2.049 2.683 0 4.548.346 5.596 1.04 1.277.841 1.917 2.488 1.918 4.942h-3.97c0-1.27-.283-2.093-.85-2.47-.441-.313-1.344-.47-2.709-.47-1.595 0-2.592.378-2.99 1.132-.297.566-.444 2-.442 4.304 0 2.282.137 3.696.41 4.24.377.775 1.384 1.162 3.022 1.162 1.512 0 2.483-.203 2.914-.61.43-.407.646-1.352.646-2.835z"/></g><g><path fill="#181716" d="M149.02 34.15l.127-2.085h-.093a3.125 3.125 0 0 1-2.137 1.94c-.976.245-1.98.351-2.986.315-2.117 0-3.637-.336-4.558-1.007-1.07-.778-1.604-2.194-1.603-4.25 0-1.97.556-3.345 1.67-4.122.925-.63 2.427-.944 4.506-.945.963-.035 1.926.05 2.868.252a3.181 3.181 0 0 1 2.08 1.63h.125v-2.15c0-1.43-.178-2.367-.535-2.81-.442-.547-1.44-.821-2.995-.822-1.051 0-1.786.116-2.206.348-.609.338-.913.991-.913 1.96h-3.97c0-2.16.714-3.598 2.141-4.312.922-.461 2.567-.692 4.936-.692 2.829 0 4.736.368 5.723 1.103 1.174.864 1.762 2.62 1.762 5.268V34.15zm-3.671-7.458c-1.31 0-2.164.095-2.564.286-.717.337-1.075 1.032-1.075 2.085 0 1.118.274 1.835.823 2.15.463.274 1.402.412 2.817.412 1.286 0 2.161-.126 2.626-.379.695-.379 1.043-1.107 1.043-2.183 0-1.032-.368-1.716-1.106-2.052-.466-.213-1.32-.32-2.564-.32z"/></g><g><path fill="#181716" d="M154.83 20.61v-3.04h2.057v-3.73h3.94v3.73h6.356v3.04h-6.356v8.464c0 .86.074 1.416.222 1.668.21.357.705.535 1.485.535.99 0 1.6-.368 1.835-1.103.14-.79.192-1.593.154-2.395h3.51c.042 2.357-.273 4-.945 4.926-.778 1.075-2.29 1.612-4.535 1.611-2.14 0-3.598-.325-4.375-.977-.86-.733-1.291-2.14-1.291-4.22v-8.51z"/></g><g><path fill="#181716" d="M171.14 10.46v3.384h3.941V10.46zm0 7.114V34.15h3.941V17.574z"/></g><g><path fill="#181716" d="M185.977 17.4c3.312 0 5.47.61 6.476 1.83.86 1.05 1.29 3.265 1.29 6.648 0 3.36-.43 5.564-1.29 6.615-1.007 1.218-3.166 1.827-6.476 1.827s-5.47-.609-6.478-1.827c-.86-1.05-1.29-3.254-1.289-6.615 0-3.384.43-5.6 1.29-6.649 1.006-1.22 3.165-1.829 6.477-1.829zm0 3.04c-1.688 0-2.763.357-3.226 1.069-.401.63-.601 2.095-.6 4.398 0 2.284.2 3.73.6 4.337.441.69 1.517 1.036 3.226 1.036 1.729 0 2.814-.345 3.255-1.036.38-.588.57-2.033.572-4.337 0-2.345-.19-3.811-.572-4.398-.462-.71-1.547-1.067-3.255-1.068z"/></g><g><path fill="#181716" d="M197.08 17.572h3.938v2.494h.126a3.61 3.61 0 0 1 2.077-2.228c1-.337 2.054-.486 3.108-.44 2.094 0 3.56.447 4.397 1.341.838.894 1.257 2.392 1.257 4.494v10.913h-3.939V23.654c0-1.24-.21-2.085-.629-2.537-.42-.452-1.238-.678-2.456-.677-1.597 0-2.679.388-3.245 1.164-.464.632-.695 1.777-.695 3.436v9.106h-3.939z"/></g><g><path fill="#181716" d="M208.099 15.865v-2.227h-.829v-.298h1.993v.298h-.832v2.227z"/></g><g><path fill="#181716" d="M209.59 15.865V13.34h.5l.596 1.788c.055.167.095.291.12.374.028-.092.073-.227.134-.405l.602-1.757h.447v2.525h-.32v-2.113l-.731 2.113h-.3l-.727-2.15v2.15z"/></g></g></g></g></svg>