<svg xmlns="http://www.w3.org/2000/svg" width="51" height="33"><path fill="#046552" d="M0 13.523h5.282V5.255L9.627 13.2h4.831l4.345-7.963-.054 8.268h5.282L24.085 0h-5.282c-2.884 0-5.679 6.905-6.76 8.447C10.96 6.905 8.167 0 5.283 0H0zM27.006 0v13.523h5.282V5.255l4.344 7.945h4.85l4.345-7.945v8.25h5.282V0h-5.282c-2.885 0-5.68 6.905-6.76 8.447C37.983 6.905 35.19 0 32.305 0zM10.312 32.874h13.755V27.62H10.312c-1.839-.162-3.083-.88-3.894-2.189-.703-1.13-.793-2.618-.847-3.784h18.514v-4.663H0v5.668c0 3.838 2.091 6.277 3.227 7.3 1.064.914 4.11 2.923 7.085 2.923zm35.623-8.142c0 1.238-2.759 3.103-6.887 3.103-4.146 0-6.887-1.865-6.887-3.103 0-1.237 2.759-3.103 6.887-3.103 4.146 0 6.887 1.883 6.887 3.103zm5.047 0c0-4.573-5.246-8.142-11.934-8.142-6.688 0-11.934 3.587-11.934 8.142 0 4.573 5.246 8.143 11.934 8.143 6.706 0 11.952-3.57 11.934-8.143z"/></svg>