<svg xmlns="http://www.w3.org/2000/svg" width="166" height="40"><path fill="#fff" d="M.26.86v38.286h38.392V.86z"/><path fill="#ffed00" d="M38.652.86v38.286H.26V.86zm-3.477 12.858c-.68-.715-1.718-1.077-3.085-1.077-1.727 0-3.118.61-4.137 1.811l-.268.316-.179-.374a2.221 2.221 0 00-.408-.607c-.696-.785-1.863-1.183-3.468-1.183a5.762 5.762 0 00-3.742 1.238l-.239.201-.164-.265c-.446-.722-1.554-1.188-2.825-1.188-1.828 0-3.672.247-4.786 2.036l-.46.739-.035-.87c-.028-.671-.09-.951-.404-1.282-.345-.364-.926-.541-1.775-.541-1.246 0-2.184.54-2.865 1.657-1.05 1.672-3.586 7.168-3.53 9.781.037 1.695 1.172 2.732 3.036 2.776 1.537.036 2.759-.357 3.534-1.138l.198-.2.19.207c.698.755 1.758 1.171 2.986 1.171 1.564 0 2.9-.485 3.67-1.33l.21-.231.197.241c.717.882 1.828 1.344 3.212 1.337a5.916 5.916 0 004.62-2.266l.298-.376.165.45c.697 1.893 2.59 2.175 3.657 2.175 3.625 0 5.19-2.48 6.54-6.48.41-1.187.672-2.42.78-3.671.048-.9-.074-2.16-.923-3.057z"/><path fill="#e3000b" d="M38.652.86v38.286H.26V.86zm-2.211 12.459c-.82-1.137-2.215-1.9-4.336-1.9-1.605 0-3.037.433-4.182 1.382-.98-.968-2.387-1.406-4.28-1.406a7.216 7.216 0 00-3.81.985c-.784-.624-1.706-1.013-3.177-1.013-1.332 0-3.203.069-4.615 1.264-.326-.663-.989-1.184-2.818-1.184a4.48 4.48 0 00-3.962 2.27c-1.204 1.918-3.76 7.455-3.694 10.48.049 2.278 1.761 3.846 4.241 3.905 1.49.034 2.76-.283 3.73-.924.95.655 2.084.994 3.239.97a6.667 6.667 0 003.83-1.09 5.45 5.45 0 003.424 1.098 6.98 6.98 0 004.655-1.736c.89 1.131 2.413 1.72 4.264 1.72 3.465 0 5.264-2.125 6.61-4.89.5-1.032 1.445-3.614 1.62-5.007.212-1.706.418-3.321-.74-4.924z"/><path fill="#181716" d="M38.912.6v38.804H0V.6zM.536 1.135v37.734h37.84V1.135z"/><path fill="#181716" d="M37 12.238v-.264h.18c.132 0 .2.046.2.13 0 .068-.044.134-.177.134zm.646.548l-.112-.194c-.098-.17-.124-.196-.207-.225v-.005a.268.268 0 00.26-.27c0-.153-.097-.269-.304-.269h-.481v.963H37v-.395h.036c.086 0 .12.01.159.049.052.057.096.12.13.189l.079.157zm-.475-1.232a.75.75 0 01.737.89.747.747 0 01-1.02.548.749.749 0 01-.464-.69.747.747 0 01.746-.747zm0-.184a.934.934 0 00-.86.574.927.927 0 00.679 1.267.934.934 0 001.114-.91.925.925 0 00-.934-.93zm-.801 5.417a15.581 15.581 0 01-.792 3.743c-1.378 4.08-3.031 6.662-6.795 6.662-1.717 0-3.29-.668-3.91-2.352a6.167 6.167 0 01-4.83 2.369c-1.506.007-2.678-.523-3.423-1.436-.883.973-2.38 1.419-3.867 1.419-1.336 0-2.452-.465-3.184-1.258-.815.821-2.097 1.256-3.73 1.217-2.092-.049-3.26-1.3-3.298-3.037-.058-2.69 2.51-8.24 3.57-9.928.73-1.197 1.744-1.784 3.092-1.784.74 0 1.5.13 1.97.625.386.408.45.771.477 1.456 1.184-1.905 3.18-2.163 5.013-2.163 1.402 0 2.565.523 3.054 1.314a5.996 5.996 0 013.915-1.301c1.661 0 2.9.405 3.669 1.273.186.197.337.424.45.67.94-1.112 2.33-1.906 4.34-1.906 3.483 0 4.394 2.27 4.28 4.417zm-25.99-2.154c.014-.573-.218-1.052-1.153-1.052-.988 0-1.606.412-2.114 1.243-1.1 1.751-3.435 7.035-3.386 9.319.027 1.305 1.041 1.82 2.169 1.847 1.554.037 3.345-.399 3.528-2.345.062-.65-.428-1.352-2.375-1.015.813-1.817 3.292-6.467 3.331-7.997zm3.01 6.203c1.651.295 3 .192 3.455-1.36.337-1.147-.508-1.598-2.499-1.319a8.98 8.98 0 01.739-1.512c.53.02 1.06.013 1.588-.022 1.075-.06 2.16-.548 2.16-1.825 0-.92-1.127-1.337-2.105-1.337-2.226 0-3.518.333-4.783 2.837-1.029 2.038-2.127 5.1-2.127 7.118 0 1.722 1.386 2.618 2.965 2.618 1.438 0 3.511-.549 3.511-2.42 0-.77-.598-1.157-1.534-1.18a6.348 6.348 0 00-1.94.25 20.64 20.64 0 01.57-1.848zm9.793-4.827c.66 0 .596.349.44.792-.445 1.267.897 1.301 1.227 1.276 1.174-.092 1.82-.85 1.98-2.136.217-1.755-1.265-2.427-3.142-2.427-3.13 0-4.359 1.91-5.53 4.639-.551 1.282-1.245 3.472-1.245 4.869 0 1.959 1.195 3.021 3.122 3.021 2.813 0 4.802-2.239 5.37-5.026.175-.858.39-2.467-1.795-2.378-1.11.045-1.778.29-2.13 1.42-.365 1.165.952 1.196.952 1.196-.264 1.205-1.04 1.935-1.731 1.935-.432 0-.826-.186-.693-1.097.195-1.33 1.446-4.569 2.022-5.377a1.416 1.416 0 011.153-.707zm11.82 2.303c.291-1.438.954-4.738-2.769-4.783-3.191-.038-4.2 2.073-5.189 4.663-.567 1.428-1.234 3.607-1.226 5.151.012 2.152 1.588 2.667 2.986 2.683 1.397.017 2.998-.314 4.316-2.678.866-1.58 1.5-3.276 1.884-5.035zm-2.653-1.618c-.04.991-1.497 4.955-2.014 5.832-.225.379-.478.692-.934.692a.563.563 0 01-.585-.602c-.029-.895 1.617-5.38 2.18-6.108a.873.873 0 01.849-.443c.467.004.515.34.503.629z"/><path fill="#006cb7" d="M51.11.6h114.589v1.552H51.11zm0 37.25h79.146v1.552H51.11zm89.53 0h25.064v1.552H140.64z"/><path fill="#181716" d="M62.873 23.007c0 1.84-.54 3.045-1.62 3.614-.769.408-2.235.612-4.399.61-2.423 0-4.044-.497-4.863-1.492-.722-.863-1.082-2.542-1.081-5.037 0-2.476.344-4.154 1.032-5.036.802-1.044 2.439-1.566 4.912-1.566 2.588 0 4.26.488 5.014 1.464.67.862 1.006 2.748 1.006 5.658h-8.886c0 1.503.131 2.459.394 2.867.345.522 1.165.783 2.461.783 1.082 0 1.787-.073 2.117-.219.542-.24.812-.789.812-1.646zm-3.096-3.741c0-1.258-.164-2.04-.492-2.346-.328-.306-1.141-.459-2.44-.459-1.28 0-2.093.185-2.437.556-.28.308-.42 1.058-.42 2.249zm14.515 7.829l.094-1.937h-.094c-.639 1.38-1.983 2.07-4.032 2.07-2.163 0-3.588-.669-4.275-2.005-.444-.863-.665-2.51-.665-4.94 0-2.135.271-3.635.813-4.499.707-1.125 2.088-1.687 4.141-1.687 2.07 0 3.368.617 3.895 1.85h.123V8.71h3.08v18.385zm-3.096-10.639c-1.248 0-2.055.35-2.421 1.05-.25.47-.375 1.397-.375 2.779 0 1.755.109 2.884.325 3.39.349.796 1.172 1.194 2.47 1.193 1.465 0 2.38-.382 2.746-1.146.234-.487.351-1.633.35-3.437 0-1.398-.157-2.34-.474-2.83-.416-.666-1.29-.999-2.62-.999zm20.499 10.638h-2.99v-1.985h-.09c-.59 1.412-1.956 2.118-4.095 2.117-2.894 0-4.34-1.232-4.34-3.696v-9.3h3.078v8.094c0 .995.115 1.648.346 1.957.28.391.886.587 1.824.587 1.15 0 1.963-.249 2.439-.745.476-.497.715-1.325.716-2.484l.033-7.409h3.08zm11.1-4.896h3.102c0 2.07-.475 3.454-1.425 4.153-.787.587-2.27.88-4.448.88-2.409 0-3.998-.505-4.767-1.516-.67-.863-1.006-2.542-1.007-5.036 0-2.462.327-4.125.982-4.99.804-1.059 2.401-1.589 4.792-1.589 2.097 0 3.555.269 4.374.807.998.653 1.498 1.931 1.499 3.835h-3.103c0-.985-.221-1.624-.665-1.916-.344-.244-1.05-.365-2.117-.365-1.246 0-2.026.293-2.338.878-.231.44-.346 1.553-.344 3.34 0 1.772.106 2.869.32 3.291.295.602 1.082.902 2.362.902 1.182 0 1.94-.158 2.277-.474.337-.316.505-1.049.506-2.2zm13.688 4.901l.1-1.618h-.074a2.424 2.424 0 01-1.67 1.506 8.386 8.386 0 01-2.333.244c-1.655 0-2.843-.26-3.563-.781-.836-.604-1.254-1.703-1.253-3.298 0-1.53.435-2.597 1.305-3.2.723-.488 1.898-.732 3.523-.733a9.16 9.16 0 012.241.195 2.494 2.494 0 011.625 1.265h.099v-1.668c0-1.11-.14-1.837-.419-2.181-.345-.424-1.126-.637-2.34-.637-.822 0-1.397.09-1.725.27-.476.261-.714.769-.714 1.52h-3.102c0-1.676.557-2.792 1.673-3.346.72-.358 2.006-.537 3.858-.537 2.211 0 3.702.285 4.473.856.918.67 1.377 2.033 1.377 4.088v8.054zm-2.87-5.788c-1.022 0-1.69.074-2.003.222-.56.262-.84.802-.84 1.618 0 .868.214 1.424.643 1.669.362.213 1.096.32 2.201.32 1.006 0 1.69-.098 2.053-.294.543-.294.815-.86.816-1.694 0-.801-.289-1.332-.865-1.593-.364-.165-1.032-.248-2.004-.248zm7.407-4.717v-2.36h1.607V11.34h3.08v2.895h4.968v2.359h-4.967v6.569c0 .667.057 1.099.173 1.294.164.277.551.416 1.16.416.774 0 1.252-.286 1.435-.857.109-.613.15-1.236.12-1.858h2.743c.034 1.83-.212 3.104-.738 3.823-.608.834-1.79 1.25-3.544 1.25-1.673 0-2.813-.252-3.42-.758-.673-.57-1.01-1.661-1.01-3.276v-6.603zm12.74-7.884v2.626h3.08V8.71zm0 5.521v12.864h3.08V14.23zm11.6-.131c2.59 0 4.277.473 5.062 1.42.672.814 1.008 2.534 1.008 5.16 0 2.607-.336 4.318-1.008 5.134-.787.945-2.474 1.417-5.061 1.417-2.588 0-4.275-.472-5.063-1.418-.672-.814-1.008-2.525-1.008-5.134 0-2.625.336-4.345 1.008-5.16.787-.946 2.474-1.419 5.063-1.419zm0 2.36c-1.318 0-2.159.276-2.52.829-.314.488-.47 1.626-.47 3.413 0 1.773.157 2.895.47 3.366.344.536 1.185.804 2.52.804 1.352 0 2.2-.268 2.545-.804.297-.456.446-1.578.447-3.366 0-1.82-.149-2.958-.447-3.413-.361-.552-1.21-.828-2.544-.83zm8.68-2.229h3.078v1.936h.098a2.798 2.798 0 011.624-1.73 6.714 6.714 0 012.43-.34c1.636 0 2.781.346 3.436 1.04.655.693.982 1.856.982 3.488v8.469h-3.078v-8.143c0-.961-.164-1.618-.492-1.969-.328-.35-.968-.526-1.92-.525-1.248 0-2.093.301-2.536.903-.362.49-.543 1.38-.543 2.667v7.067h-3.079zm8.618-1.321v-1.73h-.648v-.231h1.558v.231h-.65v1.729zm1.162 0v-1.96h.391l.466 1.388c.042.129.074.226.093.29.023-.071.057-.176.105-.314l.47-1.364h.35v1.96h-.25v-1.64l-.571 1.64h-.235l-.568-1.669v1.669z"/></svg>