<svg width="144" height="33" fill="none" xmlns="http://www.w3.org/2000/svg"><g clip-path="url(#clip0)"><path d="M.336.22v32.56h33.132V.22H.336z" fill="#fff"/><path d="M.336.22v32.56h33.132V.22H.336zm30.928 13.534a12.877 12.877 0 01-.673 3.123c-1.165 3.402-2.516 5.51-5.644 5.51-.92 0-2.555-.24-3.157-1.85l-.142-.382-.256.32a5.077 5.077 0 01-1.77 1.413c-.69.334-1.448.51-2.218.514-1.194.006-2.153-.387-2.772-1.137l-.17-.205-.182.196c-.663.72-1.816 1.131-3.166 1.131-1.06 0-1.975-.354-2.577-.995l-.164-.176-.17.17c-.67.664-1.724.998-3.05.968-1.61-.038-2.589-.92-2.62-2.361-.049-2.222 2.14-6.897 3.045-8.318.589-.95 1.398-1.41 2.473-1.41.733 0 1.234.15 1.532.46.27.282.324.52.348 1.091l.031.74.397-.63c.96-1.52 2.553-1.73 4.13-1.73 1.096 0 2.053.396 2.438 1.01l.142.226.206-.172a5.021 5.021 0 013.229-1.053c1.385 0 2.392.339 2.993 1.006.145.152.265.327.352.517l.155.318.231-.269c.879-1.022 2.08-1.54 3.57-1.54 1.18 0 2.076.308 2.662.916.733.762.838 1.834.797 2.6z" fill="#FFED00"/><path d="M.336.22v32.56h33.132V.22H.336zm31.86 14.783c-.15 1.185-.964 3.38-1.397 4.258-1.161 2.351-2.714 4.159-5.704 4.159-1.597 0-2.911-.5-3.68-1.463a6.076 6.076 0 01-4.017 1.477 4.75 4.75 0 01-2.955-.935 5.817 5.817 0 01-3.305.927 4.797 4.797 0 01-2.796-.825c-.836.546-1.932.815-3.218.786-2.14-.05-3.618-1.384-3.66-3.32-.057-2.573 2.149-7.282 3.188-8.913a3.825 3.825 0 011.44-1.427 3.912 3.912 0 011.979-.504c1.579 0 2.15.444 2.432 1.008 1.218-1.017 2.833-1.075 3.983-1.075 1.269 0 2.064.33 2.742.861a6.299 6.299 0 013.287-.838c1.634 0 2.847.373 3.694 1.196.988-.807 2.224-1.176 3.609-1.176 1.83 0 3.034.65 3.742 1.616.999 1.364.82 2.737.637 4.188z" fill="#E3000B"/><path d="M.108 0v33h33.58V0H.109zm33.119.455v32.09H.57V.455h32.656z" fill="#181716"/><path d="M32.035 9.902v-.225h.156c.113 0 .172.04.172.112 0 .057-.038.113-.153.113h-.175zm.557.466l-.096-.165c-.085-.144-.108-.167-.18-.192v-.004a.232.232 0 00.161-.07.225.225 0 00.065-.16c0-.13-.084-.228-.263-.228h-.415v.819h.171v-.336h.032c.074 0 .103.009.137.041a.727.727 0 01.113.161l.067.134h.208zm-.41-1.048c.128 0 .253.036.36.106a.637.637 0 01.277.652.633.633 0 01-.177.326.65.65 0 01-.704.139.645.645 0 01-.291-.234.628.628 0 01.08-.801.653.653 0 01.455-.187V9.32zm0-.156a.814.814 0 00-.446.133.778.778 0 00-.121 1.216.809.809 0 00.876.172.802.802 0 00.36-.291.781.781 0 00-.36-1.17.815.815 0 00-.31-.06h.001zm-4.38.848c-1.735 0-2.934.675-3.746 1.62a2.111 2.111 0 00-.388-.569c-.663-.738-1.733-1.083-3.166-1.083a5.224 5.224 0 00-3.38 1.107c-.42-.672-1.424-1.118-2.634-1.118-1.582 0-3.305.22-4.327 1.84-.024-.582-.078-.891-.411-1.238-.405-.422-1.061-.532-1.7-.532-1.164 0-2.04.5-2.67 1.517-.914 1.435-3.13 6.157-3.08 8.443.033 1.477 1.041 2.542 2.846 2.584 1.41.033 2.516-.337 3.22-1.035.631.673 1.595 1.069 2.747 1.069 1.284 0 2.575-.379 3.338-1.207.643.776 1.654 1.227 2.954 1.221a5.403 5.403 0 002.32-.537 5.309 5.309 0 001.848-1.477c.535 1.432 1.893 2 3.375 2 3.247 0 4.674-2.195 5.863-5.666.36-1.03.59-2.098.684-3.183.099-1.825-.687-3.756-3.693-3.756zM6.191 18.737c1.68-.286 2.103.31 2.05.863-.159 1.656-1.704 2.026-3.045 1.995-.973-.023-1.848-.46-1.872-1.571-.042-1.942 1.973-6.436 2.922-7.925.438-.707.972-1.057 1.825-1.057.807 0 1.007.407.995.895-.034 1.3-2.173 5.255-2.875 6.8zm5.473-1.525c-.19.516-.354 1.04-.492 1.572a5.557 5.557 0 011.674-.213c.807.02 1.323.349 1.323 1.004 0 1.59-1.789 2.058-3.03 2.058-1.362 0-2.558-.763-2.558-2.227 0-1.717.947-4.32 1.836-6.054 1.09-2.129 2.206-2.412 4.127-2.412.844 0 1.816.354 1.816 1.137 0 1.086-.936 1.5-1.863 1.552-.457.03-.914.036-1.371.019a7.596 7.596 0 00-.637 1.286c1.718-.238 2.446.146 2.156 1.122-.393 1.32-1.557 1.406-2.982 1.156zm8.45-4.105c-.203.01-.4.071-.575.176a1.213 1.213 0 00-.42.425c-.497.687-1.576 3.442-1.744 4.573-.115.775.225.933.597.933.597 0 1.266-.621 1.495-1.646 0 0-1.137-.027-.823-1.017.304-.96.882-1.17 1.839-1.208 1.886-.075 1.7 1.293 1.55 2.023-.491 2.37-2.207 4.274-4.636 4.274-1.662 0-2.694-.903-2.694-2.57 0-1.187.6-3.05 1.074-4.14 1.012-2.32 2.072-3.945 4.773-3.945 1.62 0 2.899.572 2.712 2.064-.138 1.094-.696 1.738-1.709 1.816-.284.022-1.443-.007-1.058-1.085.134-.377.189-.673-.38-.673zm10.202 1.959a15.856 15.856 0 01-1.625 4.282c-1.137 2.01-2.52 2.292-3.725 2.277-1.207-.013-2.566-.451-2.577-2.281-.007-1.313.569-3.167 1.059-4.381.852-2.202 1.724-3.998 4.477-3.966 3.213.039 2.641 2.846 2.39 4.069h.001zm-2.29-1.377c-.035.843-1.292 4.215-1.739 4.96-.194.322-.412.589-.805.589a.495.495 0 01-.37-.145.479.479 0 01-.136-.368c-.024-.76 1.396-4.575 1.882-5.194a.766.766 0 01.732-.377c.403.003.445.29.435.535z" fill="#181716"/><path d="M44.219 0h98.889v1.32h-98.89V0zm0 31.68h68.302V33H44.219v-1.32zm77.259 0h21.63V33h-21.63v-1.32z" fill="#006CB7"/><path d="M51.692 19.056h2.676c0 1.565-.466 2.59-1.398 3.074-.663.347-1.928.52-3.796.519-2.09 0-3.49-.423-4.197-1.27-.623-.733-.934-2.161-.933-4.283 0-2.106.297-3.533.891-4.283.692-.888 2.105-1.332 4.24-1.332 2.233 0 3.675.415 4.326 1.245.579.733.868 2.337.868 4.812H46.7c0 1.278.114 2.091.34 2.438.299.444 1.006.666 2.125.666.933 0 1.542-.062 1.826-.186.468-.204.701-.671.701-1.4zM46.7 15.874h4.996c0-1.069-.141-1.734-.424-1.994-.283-.26-.985-.39-2.105-.39-1.106 0-1.807.157-2.104.472-.242.262-.363.9-.363 1.912zm17.52 6.663l.082-1.647h-.082c-.551 1.174-1.711 1.76-3.48 1.76-1.866 0-3.096-.569-3.689-1.706-.383-.733-.574-2.133-.574-4.2 0-1.816.235-3.091.702-3.826.61-.957 1.802-1.435 3.574-1.435 1.786 0 2.906.524 3.361 1.573h.106V6.902h2.658v15.634H64.22zm-2.672-9.048c-1.076 0-1.773.298-2.089.892-.216.401-.323 1.19-.323 2.364 0 1.493.093 2.453.28 2.883.301.677 1.012 1.016 2.132 1.015 1.264 0 2.054-.325 2.37-.974.202-.415.302-1.39.302-2.924 0-1.189-.136-1.99-.41-2.406-.359-.566-1.113-.85-2.262-.85zm17.69 9.048h-2.58v-1.688h-.078c-.51 1.2-1.689 1.8-3.534 1.8-2.498 0-3.746-1.047-3.746-3.143v-7.91h2.657v6.884c0 .847.1 1.402.298 1.664.242.333.764.5 1.574.5.993 0 1.694-.212 2.105-.634.41-.423.617-1.127.618-2.112l.028-6.301h2.658v10.94zm9.576-4.167h2.678c0 1.76-.41 2.936-1.23 3.532-.68.498-1.96.748-3.839.748-2.078 0-3.45-.43-4.114-1.29-.578-.734-.868-2.161-.869-4.282 0-2.094.283-3.508.848-4.243.694-.901 2.072-1.352 4.136-1.352 1.809 0 3.067.228 3.774.686.862.555 1.293 1.643 1.293 3.262h-2.677c0-.839-.191-1.382-.574-1.63-.297-.207-.906-.31-1.827-.31-1.075 0-1.748.249-2.017.746-.2.374-.3 1.32-.298 2.84 0 1.507.092 2.44.276 2.8.255.511.934.767 2.04.767 1.019 0 1.674-.135 1.964-.403.29-.269.436-.893.436-1.871zm11.814 4.166l.087-1.375h-.063c-.118.312-.31.59-.561.814a2.11 2.11 0 01-.88.466 7.335 7.335 0 01-2.014.208c-1.429 0-2.454-.222-3.075-.665-.722-.513-1.082-1.448-1.082-2.804 0-1.301.376-2.208 1.126-2.72.625-.416 1.638-.624 3.04-.625a8.021 8.021 0 011.935.166 2.14 2.14 0 011.403 1.076h.084V15.66c0-.945-.12-1.563-.36-1.856-.299-.36-.972-.541-2.021-.542-.709 0-1.205.077-1.488.23-.41.223-.616.654-.616 1.294h-2.677c0-1.426.481-2.375 1.444-2.846.621-.305 1.731-.457 3.329-.457 1.908 0 3.195.243 3.86.728.793.57 1.189 1.729 1.189 3.477v6.85h-2.66zm-2.475-4.922c-.883 0-1.46.063-1.73.19-.483.222-.725.68-.725 1.376 0 .738.185 1.21.556 1.419.312.18.945.271 1.9.272.867 0 1.457-.084 1.77-.25.47-.25.704-.731.705-1.441 0-.681-.249-1.133-.747-1.355-.314-.14-.89-.21-1.73-.21zm6.396-4.011v-2.006h1.387V9.135h2.658v2.462h4.287v2.006h-4.287v5.587c0 .567.05.934.149 1.1.143.236.477.354 1.002.354.668 0 1.08-.243 1.238-.729a7.033 7.033 0 00.104-1.58h2.367c.029 1.556-.183 2.64-.637 3.251-.524.71-1.544 1.064-3.059 1.064-1.443 0-2.427-.215-2.951-.645-.58-.485-.871-1.413-.871-2.786v-5.616h-1.387zm13.654-6.701v2.233h-2.659V6.902h2.659zm0 4.695v10.94h-2.659v-10.94h2.659zm7.352-.114c2.234 0 3.69.402 4.368 1.207.58.693.87 2.155.87 4.388 0 2.217-.29 3.673-.87 4.366-.679.804-2.135 1.206-4.368 1.206-2.233 0-3.689-.402-4.369-1.206-.58-.692-.87-2.148-.87-4.366 0-2.233.29-3.696.87-4.388.679-.805 2.135-1.207 4.369-1.207zm0 2.007c-1.138 0-1.864.235-2.176.704-.271.416-.406 1.383-.405 2.903 0 1.508.135 2.462.405 2.863.298.455 1.023.683 2.176.684 1.166 0 1.898-.228 2.196-.684.256-.388.384-1.342.385-2.863 0-1.547-.128-2.515-.385-2.903-.312-.469-1.044-.704-2.196-.705zm7.487-1.893h2.656v1.646h.085c.11-.33.292-.634.534-.888.243-.254.538-.453.867-.582a5.874 5.874 0 012.097-.29c1.412 0 2.401.294 2.966.884.565.59.847 1.579.847 2.966v7.203h-2.656V15.61c0-.818-.142-1.376-.425-1.674-.283-.299-.835-.448-1.656-.447-1.078 0-1.807.256-2.189.768-.313.417-.469 1.173-.469 2.268v6.01h-2.657v-10.94zm7.434-1.123v-1.47h-.559v-.197h1.345v.197h-.561v1.47h-.225zm1.009 0V8.807h.338l.402 1.18.081.247c.019-.06.049-.15.09-.267l.406-1.16h.302v1.667h-.217V9.079l-.492 1.395h-.203l-.49-1.42v1.42h-.217z" fill="#181716"/></g><defs><clipPath id="clip0"><path fill="#fff" transform="translate(.108)" d="M0 0h143v33H0z"/></clipPath></defs></svg>