<svg width="127" height="30" fill="none" xmlns="http://www.w3.org/2000/svg"><g clip-path="url(#clip0)"><path d="M.202.2v29.6h29.425V.2H.202z" fill="#fff"/><path d="M.202.2v29.6h29.425V.2H.202zM27.67 12.504c-.083.967-.283 1.92-.597 2.839-1.035 3.092-2.234 5.01-5.012 5.01-.818 0-2.27-.22-2.804-1.683l-.126-.347-.228.29a4.53 4.53 0 01-1.57 1.285 4.502 4.502 0 01-1.972.468c-1.06.005-1.912-.353-2.462-1.034l-.15-.187-.162.179c-.589.653-1.613 1.028-2.812 1.028-.94 0-1.754-.322-2.288-.905l-.146-.16-.152.154c-.594.604-1.53.908-2.708.88-1.429-.034-2.299-.836-2.327-2.146-.043-2.02 1.9-6.27 2.705-7.562.522-.863 1.241-1.281 2.196-1.281.651 0 1.096.137 1.36.418.24.256.288.473.31.992l.027.672.353-.572C9.957 9.46 11.37 9.27 12.772 9.27c.973 0 1.823.36 2.165.918l.126.205.183-.156a4.391 4.391 0 012.867-.957c1.23 0 2.125.308 2.659.915.129.138.235.297.313.47l.137.289.205-.245c.78-.929 1.847-1.4 3.17-1.4 1.048 0 1.844.28 2.365.833.65.693.744 1.667.707 2.363z" fill="#FFED00"/><path d="M.202.2v29.6h29.425V.2H.202zm28.296 13.44c-.133 1.076-.857 3.072-1.241 3.87-1.031 2.138-2.41 3.78-5.066 3.78-1.419 0-2.586-.454-3.268-1.33a5.322 5.322 0 01-3.568 1.343 4.153 4.153 0 01-2.624-.85 5.07 5.07 0 01-2.935.843 4.19 4.19 0 01-2.483-.75c-.743.496-1.716.742-2.858.715-1.901-.045-3.214-1.258-3.251-3.018-.05-2.34 1.908-6.62 2.831-8.103a3.44 3.44 0 011.279-1.297 3.411 3.411 0 011.758-.458c1.402 0 1.91.403 2.16.916 1.081-.925 2.516-.978 3.537-.978 1.127 0 1.833.301 2.435.784a5.493 5.493 0 012.919-.762c1.452 0 2.53.338 3.281 1.087.878-.734 1.975-1.069 3.205-1.069 1.626 0 2.695.59 3.323 1.469.887 1.24.73 2.488.566 3.807z" fill="#E3000B"/><path d="M0 0v30h29.823V0H0zm29.413.413v29.174H.41V.413h29.002z" fill="#181716"/><path d="M28.355 9.002v-.204h.138c.1 0 .153.035.153.1 0 .053-.034.104-.136.104h-.155zm.494.423l-.085-.15c-.075-.13-.096-.151-.16-.174v-.004a.204.204 0 00.2-.208c0-.118-.074-.208-.233-.208h-.369v.744h.153V9.12h.028c.066 0 .092.008.121.038a.66.66 0 01.101.146l.06.122h.184zm-.364-.952a.572.572 0 01.532.355.58.58 0 01-.417.789.571.571 0 01-.59-.245.579.579 0 01.475-.898v-.001zm0-.142a.711.711 0 00-.659.444.722.722 0 00.52.979.71.71 0 00.734-.305.721.721 0 00-.321-1.063.709.709 0 00-.274-.054V8.33zm-3.889.771c-1.542 0-2.607.614-3.328 1.473a1.92 1.92 0 00-.344-.518c-.59-.671-1.54-.984-2.812-.984a4.57 4.57 0 00-3.001 1.006c-.375-.611-1.266-1.016-2.34-1.016-1.405 0-2.935.2-3.843 1.672-.02-.529-.07-.81-.365-1.125-.36-.384-.942-.484-1.51-.484-1.034 0-1.81.455-2.37 1.38-.813 1.304-2.78 5.596-2.736 7.675.029 1.343.924 2.31 2.527 2.348 1.253.03 2.235-.306 2.86-.94.56.612 1.416.972 2.44.972 1.14 0 2.287-.345 2.964-1.097.57.705 1.469 1.115 2.623 1.11a4.707 4.707 0 002.06-.489 4.735 4.735 0 001.642-1.342c.476 1.301 1.681 1.818 2.997 1.818 2.885 0 4.152-1.996 5.207-5.151.32-.936.524-1.908.608-2.894.087-1.66-.61-3.414-3.28-3.414zM5.402 17.034c1.492-.26 1.868.282 1.82.784-.14 1.505-1.512 1.842-2.704 1.813-.864-.02-1.641-.418-1.662-1.428-.038-1.765 1.752-5.85 2.595-7.204.39-.643.863-.96 1.62-.96.717 0 .895.37.884.813-.03 1.182-1.93 4.777-2.553 6.182zm4.86-1.387c-.168.469-.313.946-.436 1.429a4.83 4.83 0 011.486-.194c.718.018 1.176.318 1.176.913 0 1.446-1.59 1.871-2.691 1.871-1.21 0-2.273-.693-2.273-2.024 0-1.561.842-3.928 1.63-5.504.97-1.935 1.96-2.193 3.666-2.193.75 0 1.614.323 1.614 1.034 0 .987-.832 1.364-1.656 1.41-.405.028-.811.034-1.217.018a6.963 6.963 0 00-.566 1.169c1.526-.216 2.173.132 1.915 1.02-.35 1.2-1.383 1.279-2.648 1.05zm7.506-3.732a1.082 1.082 0 00-.884.547c-.442.624-1.4 3.128-1.55 4.157-.102.704.2.848.531.848.53 0 1.125-.565 1.327-1.496 0 0-1.01-.024-.73-.925.27-.873.783-1.063 1.633-1.098 1.675-.069 1.51 1.176 1.376 1.84-.436 2.154-1.96 3.885-4.116 3.885-1.477 0-2.393-.822-2.393-2.336 0-1.08.532-2.773.954-3.764.898-2.11 1.84-3.587 4.238-3.587 1.44 0 2.575.52 2.409 1.877-.123.994-.618 1.58-1.518 1.65-.252.02-1.281-.006-.94-.986.12-.343.168-.612-.338-.612h.001zm9.06 1.78a14.622 14.622 0 01-1.443 3.894c-1.01 1.827-2.238 2.083-3.309 2.07-1.071-.012-2.279-.41-2.288-2.074-.006-1.194.505-2.879.94-3.983.757-2.001 1.531-3.634 3.977-3.605 2.853.035 2.345 2.587 2.122 3.699h.001zm-2.034-1.25c-.03.766-1.148 3.83-1.544 4.508-.172.293-.366.536-.716.536a.432.432 0 01-.448-.466c-.022-.692 1.24-4.16 1.67-4.722a.672.672 0 01.651-.343c.358.003.395.263.386.486z" fill="#181716"/><path d="M39.175 0H127v1.2H39.175V0zm0 28.8h60.66V30h-60.66v-1.2zm68.615 0H127V30h-19.21v-1.2z" fill="#006CB7"/><path d="M45.813 17.324h2.376c0 1.423-.414 2.354-1.241 2.794-.59.315-1.713.473-3.371.472-1.858 0-3.1-.385-3.728-1.154-.553-.667-.83-1.965-.828-3.894 0-1.914.263-3.212.79-3.894.615-.807 1.87-1.21 3.766-1.21 1.983 0 3.264.377 3.842 1.131.514.667.771 2.125.771 4.374h-6.81c0 1.163.1 1.902.302 2.217.264.404.893.606 1.886.606.829 0 1.37-.057 1.622-.17.415-.186.623-.61.623-1.272zm-4.434-2.893h4.437c0-.972-.125-1.576-.377-1.813-.251-.237-.874-.355-1.87-.355-.981 0-1.604.143-1.868.43-.215.238-.322.818-.322 1.738zm15.56 6.057l.072-1.497h-.072c-.49 1.067-1.52 1.6-3.09 1.6-1.658 0-2.75-.517-3.277-1.55-.34-.668-.51-1.94-.51-3.82 0-1.65.208-2.81.624-3.478.542-.87 1.6-1.304 3.174-1.304 1.586 0 2.58.477 2.984 1.43h.095V6.274h2.36v14.214h-2.36zm-2.373-8.225c-.956 0-1.575.27-1.856.81-.191.365-.287 1.082-.287 2.15 0 1.357.083 2.23.25 2.62.267.616.898.924 1.893.924 1.122 0 1.823-.296 2.104-.887.18-.377.269-1.262.269-2.657 0-1.08-.121-1.81-.364-2.187-.32-.515-.989-.773-2.009-.773zm15.71 8.225h-2.291v-1.534h-.069c-.453 1.091-1.5 1.637-3.139 1.636-2.218 0-3.327-.952-3.326-2.857v-7.19h2.359V16.8c0 .77.088 1.274.265 1.513.214.303.679.454 1.398.454.881 0 1.505-.192 1.87-.576.364-.384.547-1.024.548-1.92l.025-5.728h2.36v9.945zm8.505-3.788h2.378c0 1.6-.364 2.67-1.093 3.21-.603.454-1.739.68-3.408.68-1.846 0-3.064-.39-3.654-1.171-.514-.668-.77-1.966-.772-3.894 0-1.903.251-3.189.753-3.857.616-.82 1.84-1.229 3.673-1.23 1.607 0 2.724.209 3.352.624.765.505 1.148 1.494 1.149 2.966H78.78c0-.762-.17-1.256-.51-1.482-.264-.188-.805-.282-1.622-.282-.956 0-1.553.227-1.792.679-.177.34-.266 1.2-.264 2.582 0 1.37.081 2.218.245 2.545.226.465.83.697 1.81.697.906 0 1.488-.122 1.746-.366.258-.245.387-.812.387-1.701zm10.493 3.788l.076-1.25h-.056a1.876 1.876 0 01-1.28 1.163 6.37 6.37 0 01-1.788.19c-1.269 0-2.18-.202-2.731-.605-.64-.466-.96-1.316-.96-2.55 0-1.182.333-2.007 1-2.473.554-.378 1.454-.567 2.7-.567a6.961 6.961 0 011.718.15 1.904 1.904 0 011.245.979h.076v-1.29c0-.858-.107-1.42-.32-1.686-.266-.328-.864-.493-1.795-.493-.63 0-1.07.07-1.322.209-.365.202-.547.594-.547 1.176h-2.378c0-1.297.428-2.16 1.283-2.587.552-.277 1.538-.416 2.957-.416 1.694 0 2.837.22 3.428.662.704.518 1.055 1.572 1.055 3.16v6.228h-2.361zm-2.2-4.475c-.783 0-1.295.057-1.535.172-.43.202-.644.62-.644 1.251 0 .671.164 1.101.493 1.29.277.165.84.247 1.687.247.77 0 1.295-.075 1.574-.227.416-.227.624-.664.625-1.31 0-.619-.221-1.03-.663-1.231-.28-.128-.791-.192-1.536-.192zm5.681-3.647v-1.823h1.232V8.305h2.36v2.238h3.808v1.823h-3.807v5.079c0 .516.044.85.132 1 .126.215.423.322.89.322.593 0 .959-.22 1.099-.662.084-.474.115-.956.093-1.437h2.102c.025 1.415-.163 2.4-.566 2.956-.466.645-1.371.967-2.716.967-1.282 0-2.156-.196-2.622-.587-.515-.44-.773-1.284-.773-2.532v-5.106h-1.232zm12.126-6.092v2.03h-2.36v-2.03h2.36zm0 4.269v9.945h-2.36v-9.945h2.36zm6.53-.104c1.984 0 3.277.366 3.879 1.097.515.63.773 1.96.773 3.99 0 2.015-.258 3.338-.773 3.969-.603.73-1.896 1.096-3.879 1.096s-3.277-.365-3.881-1.096c-.515-.63-.772-1.953-.772-3.97 0-2.03.257-3.36.772-3.989.603-.731 1.897-1.097 3.881-1.097zm0 1.824c-1.011 0-1.656.214-1.933.641-.24.378-.36 1.257-.359 2.639 0 1.37.12 2.238.359 2.602.265.414.909.622 1.933.622 1.035 0 1.685-.207 1.95-.622.227-.352.341-1.22.342-2.602 0-1.407-.114-2.287-.342-2.639-.277-.426-.927-.64-1.95-.64zm6.649-1.72h2.359v1.496h.075a2.172 2.172 0 011.245-1.336 5.1 5.1 0 011.862-.264c1.254 0 2.132.268 2.634.804.502.536.753 1.435.753 2.697v6.547h-2.36v-6.295c0-.744-.125-1.251-.377-1.522-.251-.271-.741-.407-1.471-.407-.957 0-1.605.233-1.944.699-.278.379-.416 1.066-.416 2.062v5.463h-2.36v-9.944zm6.603-1.021V8.185h-.496v-.178h1.193v.178h-.498v1.337h-.199zm.896 0V8.007h.3l.356 1.072.072.225c.017-.055.044-.136.08-.243l.361-1.054h.268v1.515h-.192V8.254l-.438 1.268h-.18l-.435-1.29v1.29h-.192z" fill="#181716"/></g><defs><clipPath id="clip0"><path fill="#fff" d="M0 0h127v30H0z"/></clipPath></defs></svg>