<svg xmlns="http://www.w3.org/2000/svg" width="332" height="95"><path fill="#046552" d="M0 0h14.989c8.184 0 16.114 19.878 19.183 24.318C37.242 19.878 45.17 0 53.355 0h14.989l-.153 38.878H53.2l.154-23.802L41.027 38h-13.71L14.99 15.128v23.801H0zm91.67 0c8.186 0 16.115 19.878 19.184 24.318C113.924 19.878 121.853 0 130.038 0h14.988v38.878h-14.988v-23.75L117.709 38h-13.761L91.62 15.128v23.801H76.63V0zM9.158 86.223C5.934 83.28 0 76.258 0 65.209V48.894h68.344v13.424H15.807c.154 3.356.41 7.641 2.404 10.894 2.302 3.769 5.832 5.834 11.05 6.299h39.032v15.128H29.26c-8.44 0-17.086-5.783-20.104-8.416zm101.646-23.957c-11.714 0-19.541 5.37-19.541 8.932 0 3.563 7.775 8.932 19.541 8.932 11.715 0 19.542-5.37 19.542-8.932 0-3.51-7.776-8.932-19.542-8.932zm0 32.373c-18.979 0-33.865-10.275-33.865-23.44 0-13.115 14.886-23.44 33.865-23.44 18.979 0 33.865 10.274 33.865 23.44.051 13.165-14.835 23.44-33.865 23.44zM175.208.103v12.03h-1.432V2.84l-4.246 6.453h-.921l-4.246-6.453v9.293h-1.432V.103h1.227l4.911 7.435L173.98.103zm6.446 4.905c-1.689 0-3.019 1.136-3.019 3.046s1.33 3.046 3.019 3.046c1.688 0 3.018-1.135 3.018-3.046 0-1.91-1.33-3.046-3.018-3.046zm0-1.342c2.25 0 4.348 1.497 4.348 4.337s-2.149 4.337-4.348 4.337c-2.2 0-4.349-1.498-4.349-4.337 0-2.788 2.149-4.337 4.349-4.337zm10.18 0c.92 0 1.841.206 2.506.671v1.342c-.614-.464-1.483-.722-2.353-.722-1.586 0-3.223.877-3.223 3.046 0 2.117 1.586 3.046 3.223 3.046.87 0 1.791-.258 2.456-.671v1.394c-.768.361-1.637.568-2.661.568-2.148 0-4.399-1.343-4.399-4.286.051-2.994 2.353-4.388 4.451-4.388zm4.604 8.467v-8.26h1.381v3.459h1.637l2.609-3.46h1.586l-3.121 4.13 3.479 4.131h-1.586l-3.018-3.51h-1.586v3.51zm12.328-7.125c-1.688 0-3.018 1.136-3.018 3.046s1.33 3.046 3.018 3.046c1.688 0 3.018-1.135 3.018-3.046 0-1.91-1.33-3.046-3.018-3.046zm0-1.342c2.251 0 4.348 1.497 4.348 4.337s-2.148 4.337-4.348 4.337c-2.2 0-4.348-1.498-4.348-4.337 0-2.788 2.148-4.337 4.348-4.337zm7.673 7.28h3.07c.869 0 1.483-.258 1.483-1.188 0-.98-.716-1.187-1.432-1.187h-3.121zm0-3.563h2.967c.717 0 1.279-.258 1.279-1.136 0-.93-.716-1.187-1.279-1.187h-2.967zm-1.33-3.51h4.502c1.432 0 2.507.774 2.507 2.22 0 .877-.461 1.548-1.075 1.806.665.207 1.331.878 1.331 1.91 0 1.343-.87 2.273-2.661 2.273h-4.604zm13.199-.207c.92 0 1.841.206 2.506.671v1.342c-.614-.464-1.483-.722-2.353-.722-1.586 0-3.223.877-3.223 3.046 0 2.117 1.586 3.046 3.223 3.046.87 0 1.79-.258 2.455-.671v1.394c-.767.361-1.636.568-2.66.568-2.148 0-4.399-1.343-4.399-4.286 0-2.994 2.302-4.388 4.451-4.388zm4.604 8.467v-8.26h1.33v3.459h1.688l2.558-3.46h1.585l-3.069 4.13 3.479 4.131h-1.637l-2.967-3.51h-1.637v3.51zm8.901 0v-8.26h1.381v6.04l5.013-6.04h1.126v8.26h-1.331v-6.04l-5.013 6.04zm13.812-9.5c-.819 0-1.637-.155-2.405-.723V.671c.87.568 1.535.775 2.405.775.869 0 1.534-.207 2.404-.775v1.24a4.218 4.218 0 01-2.404.722zm-3.786 9.5v-8.26h1.381v6.04l5.014-6.04h1.176v8.26h-1.381v-6.04l-5.013 6.04zm-89.215 20.652v-8.26h1.483l2.967 4.595 2.967-4.596h1.484v8.261h-1.279v-6.247l-2.66 4.079h-1.023l-2.66-4.079v6.247zm15.039-7.176c-1.381 0-2.711.826-2.813 2.478h5.32c.102-.93-.409-2.478-2.507-2.478zm-.102-1.291c3.172 0 4.297 2.582 3.786 4.957h-6.497c.153 1.755 1.739 2.478 3.376 2.478 1.023 0 1.995-.258 2.711-.671v1.342c-.767.413-1.841.62-2.915.62-2.405 0-4.553-1.394-4.553-4.337.051-2.943 2.148-4.39 4.092-4.39zm15.603 8.467l-2.814-3.459h-1.279v3.46h-1.381v-3.46h-1.33l-2.762 3.46h-1.535l3.274-4.131-2.865-4.13h1.484l2.506 3.51h1.228v-3.51h1.381v3.51h1.228l2.507-3.51h1.483l-2.865 4.13 3.274 4.13zm9.31-1.239v-5.782h-3.427c-.052 2.478-.461 4.182-1.228 5.782zm-7.213 3.46v-3.46h1.074c1.023-1.807 1.433-3.924 1.381-7.021h6.088v7.021h1.177v3.46h-1.33v-2.22h-7.111v2.22zm17.444-10.482h1.432l-4.041 9.5c-.869 2.014-1.893 2.737-3.069 2.737-.307 0-.563-.052-.87-.103V35.47c.256.052.461.103.716.103.921 0 1.586-.67 2.098-2.013l.307-.775-3.888-8.26h1.432l3.07 6.711zm2.967 8.261v-8.26h1.381v3.51h4.707v-3.51h1.381v8.26h-1.381v-3.51h-4.707v3.51zm12.482-.98c1.023 0 2.097-.414 2.814-1.188V29.12c-.563-.104-1.433-.259-2.098-.259-1.176 0-2.506.362-2.506 1.55 0 .98.869 1.393 1.79 1.393zm4.758-.104c.204 0 .409-.052.613-.103v1.136c-.306.103-.665.206-1.023.206-.665 0-1.279-.258-1.483-.98-.819.67-1.842 1.083-3.172 1.083-1.432 0-2.865-.774-2.865-2.53 0-2.116 1.944-2.788 3.684-2.788.716 0 1.585.104 2.25.259v-.31c0-1.24-.818-2.065-2.353-2.065a7.29 7.29 0 00-2.967.62v-1.343c.665-.207 1.791-.568 3.121-.568 2.2 0 3.581 1.187 3.581 3.51v3.253c0 .465.255.62.614.62zm6.496-6.092c-1.483 0-2.557.98-3.018 2.013v2.065c.461 1.085 1.535 2.014 3.018 2.014 1.586 0 2.865-1.187 2.865-3.046 0-1.91-1.279-3.046-2.865-3.046zm.154-1.291c2.353 0 4.092 1.859 4.092 4.337 0 2.478-1.739 4.337-4.092 4.337-1.586 0-2.558-.723-3.172-1.446v5.008h-1.381v-12.03h1.228v1.395c.767-.878 1.739-1.601 3.325-1.601zm9.873 1.29c-1.688 0-3.018 1.137-3.018 3.047 0 1.91 1.33 3.046 3.018 3.046 1.688 0 3.018-1.136 3.018-3.046s-1.381-3.046-3.018-3.046zm0-1.29c2.251 0 4.348 1.497 4.348 4.337s-2.148 4.337-4.348 4.337c-2.2 0-4.348-1.497-4.348-4.337-.052-2.84 2.097-4.337 4.348-4.337zm12.482 7.228v-5.782h-3.428c-.051 2.478-.46 4.182-1.227 5.782zm-7.213 3.46v-3.46h1.074c1.023-1.807 1.433-3.924 1.381-7.021h6.088v7.021h1.176v3.46h-1.33v-2.22h-7.11v2.22zm11.612-2.22v-8.262h1.33v3.511h4.758v-3.51h1.381v8.26h-1.381v-3.51h-4.758v3.51zm18.621-8.262h1.381v8.261h-1.381zm-7.264 7.022h2.353c1.176 0 1.944-.465 1.944-1.446 0-.98-.768-1.445-1.944-1.445h-2.353zm-1.381 1.24v-8.262h1.381v2.892h2.506c1.995 0 3.172 1.136 3.172 2.685 0 1.549-1.177 2.684-3.172 2.684zm16.267-9.552c-.818 0-1.637-.155-2.404-.723v-1.24c.869.569 1.534.775 2.404.775.819 0 1.535-.206 2.404-.774v1.239c-.767.568-1.585.723-2.404.723zm-3.734 9.551v-8.26h1.381v6.04l5.013-6.04h1.177v8.26h-1.382v-6.04l-5.013 6.04zM166.46 44.97c.921 0 1.842.207 2.507.671v1.343c-.614-.465-1.483-.723-2.353-.723-1.586 0-3.223.878-3.223 3.046 0 2.117 1.586 3.046 3.223 3.046.87 0 1.79-.258 2.455-.67v1.393c-.767.361-1.637.568-2.66.568-2.148 0-4.399-1.342-4.399-4.285.051-3.047 2.353-4.389 4.45-4.389zm7.111 7.486c1.023 0 2.097-.413 2.814-1.187v-1.497c-.563-.104-1.433-.258-2.098-.258-1.176 0-2.506.361-2.506 1.548 0 .93.869 1.395 1.79 1.395zm4.809-.103c.204 0 .409-.051.614-.103v1.136c-.307.103-.665.206-1.024.206-.665 0-1.278-.258-1.483-.98-.819.67-1.842 1.084-3.172 1.084-1.432 0-2.864-.775-2.864-2.53 0-2.117 1.943-2.788 3.683-2.788.716 0 1.586.103 2.251.258v-.31c0-1.239-.819-2.065-2.354-2.065-1.278 0-2.25.31-2.967.62v-1.343c.665-.206 1.791-.568 3.121-.568 2.2 0 3.581 1.188 3.581 3.511v3.253c-.051.464.256.62.614.62zm1.995 1.188c-.307 0-.614-.052-.972-.207V52.25c.204.052.358.103.562.103 1.433 0 1.944-2.788 2.098-7.228h6.036v8.26h-1.381v-6.97h-3.325c-.307 4.234-.87 7.126-3.018 7.126zm13.965-7.28c-1.688 0-3.018 1.136-3.018 3.046s1.33 3.046 3.018 3.046c1.688 0 3.018-1.136 3.018-3.046s-1.33-3.046-3.018-3.046zm0-1.29c2.251 0 4.348 1.496 4.348 4.336 0 2.84-2.148 4.337-4.348 4.337-2.199 0-4.348-1.497-4.348-4.337s2.149-4.337 4.348-4.337zm6.344 8.467v-8.261h1.381v3.459h4.706v-3.46h1.381v8.261h-1.381v-3.51h-4.706v3.51zm18.006-7.177c-1.688 0-3.018 1.136-3.018 3.046s1.33 3.046 3.018 3.046c1.688 0 3.018-1.136 3.018-3.046s-1.33-3.046-3.018-3.046zm0-1.29c2.251 0 4.349 1.496 4.349 4.336 0 2.84-2.149 4.337-4.349 4.337-2.199 0-4.348-1.497-4.348-4.337s2.149-4.337 4.348-4.337zm10.129 7.33c1.791 0 2.865-1.187 2.865-2.736 0-1.549-1.074-2.736-2.865-2.736-1.688 0-2.865 1.342-2.865 2.736 0 1.55 1.126 2.737 2.865 2.737zm.051 1.343c-2.455 0-4.246-1.704-4.246-4.853 0-2.788 1.075-4.699 2.507-5.628 2.353-1.446 3.99-.826 5.167-2.014v1.446c-1.177.826-2.507.465-4.349 1.6-1.125.672-1.585 1.808-1.943 2.84.562-.929 1.739-1.549 3.018-1.549 2.148 0 4.041 1.55 4.041 4.028-.051 2.581-1.739 4.13-4.195 4.13zm10.538-7.435c-1.483 0-2.557.981-3.018 2.014v2.065c.461 1.084 1.535 2.014 3.018 2.014 1.586 0 2.865-1.188 2.865-3.047 0-1.858-1.279-3.046-2.865-3.046zm.154-1.239c2.353 0 4.092 1.859 4.092 4.337 0 2.478-1.739 4.337-4.092 4.337-1.586 0-2.558-.723-3.172-1.446v5.009h-1.381v-12.03h1.228v1.394c.716-.878 1.739-1.6 3.325-1.6zm8.543 7.486c1.023 0 2.097-.413 2.813-1.187v-1.497c-.562-.104-1.432-.258-2.097-.258-1.177 0-2.507.361-2.507 1.548 0 .93.87 1.395 1.791 1.395zm4.757-.103c.205 0 .41-.051.614-.103v1.136c-.307.103-.665.206-1.023.206-.665 0-1.279-.258-1.483-.98-.819.67-1.842 1.084-3.172 1.084-1.433 0-2.865-.775-2.865-2.53 0-2.117 1.944-2.788 3.683-2.788.717 0 1.586.103 2.251.258v-.31c0-1.239-.818-2.065-2.353-2.065a7.29 7.29 0 00-2.967.62v-1.343c.665-.206 1.79-.568 3.121-.568 2.199 0 3.58 1.188 3.58 3.511v3.253c0 .464.256.62.614.62zm4.553 1.291c-1.176 0-2.251-.258-3.018-.62v-1.29c.716.361 1.842.67 2.865.67 1.279 0 2.506-.257 2.506-1.29 0-1.032-.972-1.187-1.79-1.187h-1.791v-1.291h1.791c.921 0 1.637-.258 1.637-1.084 0-.93-.972-1.291-2.251-1.291-.972 0-2.046.258-2.762.671v-1.29a7.34 7.34 0 012.915-.62c2.302 0 3.479.93 3.479 2.375 0 .98-.614 1.652-1.535 1.858.921.259 1.688.93 1.688 2.014-.051 1.497-1.483 2.375-3.734 2.375zm9.464-7.383c-1.688 0-3.018 1.136-3.018 3.046s1.33 3.046 3.018 3.046c1.688 0 3.018-1.136 3.018-3.046s-1.33-3.046-3.018-3.046zm0-1.29c2.251 0 4.348 1.496 4.348 4.336 0 2.84-2.148 4.337-4.348 4.337-2.2 0-4.348-1.497-4.348-4.337s2.148-4.337 4.348-4.337zm7.724 7.227h3.07c.869 0 1.483-.258 1.483-1.187 0-.981-.716-1.188-1.432-1.188h-3.121zm0-3.562h2.967c.717 0 1.279-.258 1.279-1.136 0-.93-.716-1.188-1.279-1.188h-2.967zm-1.381-3.46h4.502c1.432 0 2.507.775 2.507 2.22 0 .879-.461 1.55-1.075 1.808.665.206 1.33.878 1.33 1.91 0 1.343-.869 2.272-2.66 2.272h-4.604zm11.817 7.28c1.023 0 2.098-.413 2.814-1.187v-1.497c-.563-.104-1.433-.258-2.098-.258-1.176 0-2.506.361-2.506 1.548 0 .93.869 1.395 1.79 1.395zm4.809-.103c.204 0 .409-.051.614-.103v1.136c-.307.103-.665.206-1.023.206-.666 0-1.279-.258-1.484-.98-.818.67-1.842 1.084-3.172 1.084-1.432 0-2.864-.775-2.864-2.53 0-2.117 1.944-2.788 3.683-2.788.716 0 1.586.103 2.251.258v-.31c0-1.239-.819-2.065-2.353-2.065a7.29 7.29 0 00-2.967.62v-1.343c.665-.206 1.79-.568 3.12-.568 2.2 0 3.581 1.188 3.581 3.511v3.253c-.051.464.256.62.614.62zm2.097 1.084v-8.26h1.33v3.459h4.758v-3.46h1.381v8.261h-1.381v-3.51h-4.758v3.51zm9.976 0v-8.26h1.381v6.04l5.013-6.04h1.125v8.26h-1.33v-6.04l-5.013 6.04zm15.397-4.13v-2.891h-2.557c-1.126 0-1.842.516-1.842 1.445 0 .93.716 1.446 1.842 1.446zm-6.138 4.13l2.353-3.046c-1.279-.361-1.944-1.394-1.944-2.53 0-1.445 1.074-2.684 3.069-2.684h4.042v8.26h-1.382v-2.89h-2.302l-2.25 2.89zm-135.665 8.571V74.09h-2.558v-7.435l-3.12 4.853h-1.484l-3.171-4.853v7.435h-2.558V62.008h2.353l4.092 6.3 4.093-6.3zm6.139 5.68c-1.33 0-2.098.98-2.098 2.22 0 1.29.768 2.22 2.098 2.22 1.381 0 2.097-.981 2.097-2.22.051-1.24-.716-2.22-2.097-2.22zm0-2.117c2.404 0 4.501 1.497 4.501 4.388s-2.148 4.389-4.501 4.389c-2.354 0-4.502-1.498-4.502-4.389s2.148-4.388 4.502-4.388zm9.105 0c1.177 0 2.2.31 3.019.723v1.961c-.717-.464-1.893-.826-2.865-.826-.512 0-1.126.155-1.126.672 0 1.394 4.604.67 4.604 3.717 0 1.962-1.739 2.53-3.734 2.53-1.228 0-2.404-.258-3.274-.775v-1.962c.87.568 2.149.878 3.121.878.869 0 1.432-.155 1.432-.62 0-1.342-4.604-.722-4.604-3.717.051-1.962 1.739-2.581 3.427-2.581zm9.259 0c.921 0 1.791.206 2.507.62v2.116c-.563-.361-1.381-.62-2.2-.62-1.278 0-2.557.62-2.557 2.324 0 1.6 1.227 2.323 2.506 2.323a4.62 4.62 0 002.302-.62v2.118a6.772 6.772 0 01-2.762.568c-2.251 0-4.451-1.291-4.451-4.234.051-3.253 2.405-4.595 4.655-4.595zm8.237 2.117c-1.33 0-2.098.98-2.098 2.22 0 1.29.768 2.22 2.098 2.22 1.381 0 2.097-.981 2.097-2.22.051-1.24-.716-2.22-2.097-2.22zm0-2.117c2.404 0 4.501 1.497 4.501 4.388s-2.148 4.389-4.501 4.389c-2.354 0-4.502-1.498-4.502-4.389s2.148-4.388 4.502-4.388zm18.569.258l-2.609 8.26h-2.507l-1.636-5.42-1.637 5.42h-2.507l-2.609-8.26h2.507l1.483 5.628 1.637-5.628h2.251l1.637 5.628 1.483-5.628zm4.655 0h2.353v8.26h-2.353zm1.177-1.394c-.716 0-1.381-.413-1.381-1.343 0-.929.665-1.342 1.381-1.342.767 0 1.381.413 1.381 1.342 0 .93-.665 1.343-1.381 1.343zm8.031 1.136c2.149 0 3.325 1.497 3.325 3.407v5.112h-2.353v-4.802c0-1.136-.665-1.652-1.586-1.652-.818 0-1.483.568-1.841 1.033v5.369h-2.353v-8.26h2.097v1.032c.614-.671 1.535-1.24 2.711-1.24zm8.134-2.737v2.995h2.609v2.013h-2.609v3.253c0 .878.409 1.24 1.33 1.24a4.47 4.47 0 001.484-.259v1.91a7.018 7.018 0 01-2.2.362c-1.586 0-2.967-.723-2.967-2.788v-3.718h-1.381V65.83h1.381v-2.427zm7.98 4.544c-1.023 0-1.893.62-1.944 1.755h3.632c.154-.516-.204-1.755-1.688-1.755zm-.051-1.807c3.376 0 4.502 2.684 3.939 5.163h-5.781c.256 1.187 1.535 1.704 2.865 1.704.921 0 1.791-.207 2.456-.517v1.859c-.768.31-1.791.516-3.019.516-2.608 0-4.757-1.497-4.757-4.388.051-3.098 2.455-4.337 4.297-4.337zm10.947 2.375c-1.279-.207-2.557.258-3.018 1.239v4.853h-2.353v-8.26h2.097v1.238c.563-.877 1.74-1.549 3.274-1.394zm6.088-2.375c2.148 0 3.325 1.497 3.325 3.407v5.112h-2.353v-4.802c0-1.136-.665-1.652-1.586-1.652-.818 0-1.483.568-1.842 1.033v5.369h-2.353v-8.26h2.098v1.032c.614-.671 1.534-1.24 2.711-1.24zm7.059 6.04c0 .62.563 1.033 1.279 1.033.665 0 1.279-.206 1.842-.671v-1.29a5.553 5.553 0 00-1.381-.208c-.87 0-1.74.259-1.74 1.136zm6.088.878c.153 0 .307 0 .46-.052v1.55a3.59 3.59 0 01-1.33.258c-.818 0-1.483-.31-1.79-.93-.819.62-1.739 1.033-2.967 1.033-1.535 0-2.865-.878-2.865-2.53 0-2.117 1.944-2.736 3.581-2.736.665 0 1.381.103 1.944.206v-.31c0-.826-.665-1.394-1.944-1.394-1.125 0-2.149.31-2.916.62v-2.065c.665-.207 1.893-.568 3.172-.568 2.455 0 4.041 1.032 4.041 3.717v2.633c0 .465.307.568.614.568zm4.45-9.655v2.995h2.609v2.013h-2.609v3.253c0 .878.41 1.24 1.33 1.24.563 0 1.024-.104 1.484-.259v1.91a7.013 7.013 0 01-2.2.362c-1.586 0-2.967-.723-2.967-2.788v-3.718h-1.381V65.83h1.381v-2.427zm4.144 2.995h2.353v8.26h-2.353zm1.177-1.394c-.717 0-1.382-.413-1.382-1.343 0-.929.665-1.342 1.382-1.342.767 0 1.381.413 1.381 1.342.051.93-.614 1.343-1.381 1.343zm7.315 3.252c-1.33 0-2.097.982-2.097 2.22 0 1.291.767 2.22 2.097 2.22 1.381 0 2.097-.98 2.097-2.22 0-1.238-.716-2.22-2.097-2.22zm0-2.116c2.404 0 4.502 1.497 4.502 4.388s-2.149 4.389-4.502 4.389c-2.353 0-4.502-1.498-4.502-4.389s2.149-4.388 4.502-4.388zm10.896 0c2.149 0 3.325 1.497 3.325 3.407v5.112h-2.353v-4.802c0-1.136-.665-1.652-1.586-1.652-.818 0-1.483.568-1.841 1.033v5.369h-2.354v-8.26h2.098v1.032c.614-.671 1.534-1.24 2.711-1.24zm7.06 6.04c0 .62.562 1.033 1.278 1.033.665 0 1.279-.206 1.842-.671v-1.29a5.553 5.553 0 00-1.381-.208c-.921 0-1.739.259-1.739 1.136zm6.036.878c.153 0 .307 0 .46-.052v1.55a3.59 3.59 0 01-1.33.258c-.818 0-1.483-.31-1.79-.93-.819.62-1.739 1.033-2.967 1.033-1.535 0-2.865-.878-2.865-2.53 0-2.117 1.944-2.736 3.581-2.736.665 0 1.381.103 1.944.206v-.31c0-.826-.665-1.394-1.944-1.394-1.125 0-2.149.31-2.916.62v-2.065c.665-.207 1.893-.568 3.172-.568 2.455 0 4.041 1.032 4.041 3.717v2.633c.051.465.307.568.614.568zm3.99 1.549h-2.353V61.492H332zM166.205 88.03c-1.023 0-1.893.62-1.944 1.755h3.632c.102-.568-.205-1.755-1.688-1.755zm-.103-1.807c3.377 0 4.502 2.685 3.939 5.163h-5.78c.255 1.187 1.534 1.704 2.864 1.704.921 0 1.791-.207 2.456-.517v1.86c-.767.309-1.791.515-3.018.515-2.609 0-4.758-1.497-4.758-4.388.103-3.098 2.456-4.337 4.297-4.337zm9.669 2.013c-1.33 0-2.149 1.085-2.149 2.375 0 1.291.819 2.375 2.149 2.375 1.023 0 1.79-.67 2.148-1.394V89.63c-.307-.774-1.074-1.394-2.148-1.394zm4.501-5.576v12.03h-2.097v-1.187c-.512.723-1.483 1.445-2.967 1.445-2.609 0-3.99-2.116-3.99-4.388s1.381-4.389 3.99-4.389c1.279 0 2.149.517 2.711 1.136V82.66zm10.027 12.03h-2.097v-1.032c-.614.722-1.586 1.29-2.712 1.29-2.199 0-3.325-1.497-3.325-3.407v-5.112h2.353v4.802c0 1.084.614 1.652 1.586 1.652.87 0 1.484-.568 1.842-1.033v-5.369h2.353zm6.19-8.519c.921 0 1.79.207 2.506.62v2.117c-.562-.362-1.381-.62-2.199-.62-1.279 0-2.558.62-2.558 2.323 0 1.601 1.228 2.324 2.507 2.324a4.63 4.63 0 002.302-.62v2.117a6.78 6.78 0 01-2.763.568c-2.251 0-4.45-1.29-4.45-4.234.051-3.252 2.404-4.595 4.655-4.595zm6.036 6.041c0 .62.563 1.033 1.279 1.033.665 0 1.279-.207 1.842-.672v-1.29a5.56 5.56 0 00-1.382-.207c-.92 0-1.739.31-1.739 1.136zm6.036.93c.154 0 .307 0 .461-.052v1.549c-.358.155-.87.258-1.33.258-.819 0-1.484-.31-1.791-.93-.818.62-1.739 1.033-2.967 1.033-1.534 0-2.864-.878-2.864-2.53 0-2.117 1.944-2.736 3.581-2.736.665 0 1.381.103 1.943.206v-.31c0-.826-.665-1.394-1.943-1.394-1.126 0-2.149.31-2.916.62v-2.065c.665-.207 1.892-.568 3.171-.568 2.456 0 4.042 1.032 4.042 3.717v2.633c.051.413.307.568.613.568zm4.451-9.656v2.995h2.609v2.014h-2.609v3.252c0 .878.409 1.24 1.33 1.24a4.47 4.47 0 001.484-.259v1.91a7.018 7.018 0 01-2.2.362c-1.586 0-2.967-.723-2.967-2.788v-3.717h-1.381V86.48h1.381v-2.427zm4.195 2.943h2.353v8.261h-2.353zm1.176-1.342c-.716 0-1.381-.413-1.381-1.342 0-.93.665-1.343 1.381-1.343.768 0 1.382.413 1.382 1.343 0 .929-.665 1.342-1.382 1.342zm7.264 3.253c-1.33 0-2.097.98-2.097 2.22 0 1.29.767 2.22 2.097 2.22 1.382 0 2.098-.981 2.098-2.22.051-1.24-.716-2.22-2.098-2.22zm0-2.117c2.405 0 4.502 1.497 4.502 4.388 0 2.892-2.148 4.389-4.502 4.389-2.353 0-4.501-1.497-4.501-4.389 0-2.89 2.148-4.388 4.501-4.388zm10.897 0c2.148 0 3.325 1.497 3.325 3.407v5.112h-2.353V89.94c0-1.136-.665-1.652-1.586-1.652-.819 0-1.484.568-1.842 1.033v5.37h-2.353v-8.262h2.097v1.033a3.483 3.483 0 012.712-1.24zm9.822 8.467v-6.247h-1.433v-2.014h1.433v-.826c0-2.478 1.688-3.2 3.222-3.2.768 0 1.484.154 1.995.36v2.014a2.935 2.935 0 00-1.432-.361c-.767 0-1.483.258-1.483 1.29v.723h2.506v2.014h-2.506v6.247zm7.826-2.478c0 .62.563 1.033 1.279 1.033.665 0 1.279-.207 1.842-.672v-1.29a5.558 5.558 0 00-1.381-.207c-.921 0-1.74.31-1.74 1.136zm6.037.93c.153 0 .307 0 .46-.052v1.549c-.358.155-.87.258-1.33.258-.818 0-1.483-.31-1.79-.93-.819.62-1.74 1.033-2.967 1.033-1.535 0-2.865-.878-2.865-2.53 0-2.117 1.944-2.736 3.581-2.736.665 0 1.381.103 1.944.206v-.31c0-.826-.665-1.394-1.944-1.394-1.126 0-2.149.31-2.916.62v-2.065c.665-.207 1.893-.568 3.172-.568 2.455 0 4.041 1.032 4.041 3.717v2.633c.051.413.307.568.614.568zm1.585-6.713h2.354v8.261h-2.354zm1.177-1.342c-.716 0-1.381-.413-1.381-1.342 0-.93.665-1.343 1.381-1.343.767 0 1.381.413 1.381 1.343.051.929-.614 1.342-1.381 1.342zm8.645 3.51c-1.279-.206-2.557.259-3.018 1.24v4.853h-2.353v-8.26h2.097v1.238c.563-.877 1.74-1.548 3.274-1.394z"/></svg>