<svg xmlns="http://www.w3.org/2000/svg" width="402" height="95"><path fill="#fff" d="M.64.63v93.732h93.14V.63z"/><path fill="#ffed00" d="M93.78.63v93.732H.64V.63zm-8.436 31.479c-1.649-1.75-4.167-2.636-7.484-2.636-4.188 0-7.564 1.49-10.035 4.433l-.65.775-.435-.916a5.44 5.44 0 00-.99-1.488c-1.688-1.922-4.52-2.896-8.415-2.896-3.286-.097-6.5.976-9.077 3.03l-.579.495-.4-.65c-1.08-1.768-3.77-2.907-6.852-2.907-4.434 0-8.91.604-11.61 4.982l-1.116 1.81-.087-2.128c-.067-1.645-.219-2.33-.98-3.14-.837-.892-2.245-1.326-4.305-1.326-3.022 0-5.298 1.325-6.952 4.059-2.546 4.092-8.698 17.549-8.56 23.945.088 4.149 2.84 6.689 7.363 6.797 3.728.088 6.693-.875 8.574-2.787l.48-.488.461.506c1.693 1.848 4.265 2.867 7.244 2.867 3.794 0 7.037-1.188 8.902-3.257l.508-.566.48.592c1.74 2.157 4.436 3.289 7.792 3.273a14.246 14.246 0 006.238-1.48 14.338 14.338 0 004.972-4.07l.722-.92.4 1.1c1.691 4.636 6.285 5.328 8.873 5.328 8.795 0 12.591-6.07 15.867-15.864a37.835 37.835 0 001.89-8.99c.117-2.202-.178-5.288-2.24-7.483z"/><path fill="#e3000b" d="M93.78.63v93.732H.64V.63zm-5.364 30.502c-1.988-2.784-5.374-4.652-10.519-4.652-3.893 0-7.368 1.06-10.145 3.385-2.38-2.371-5.79-3.443-10.386-3.443a17.38 17.38 0 00-9.24 2.412c-1.904-1.527-4.141-2.48-7.709-2.48-3.231 0-7.771.168-11.195 3.095-.791-1.624-2.4-2.9-6.838-2.9a10.794 10.794 0 00-5.565 1.45 10.883 10.883 0 00-4.046 4.108C9.85 36.802 3.652 50.36 3.81 57.766c.12 5.574 4.273 9.415 10.29 9.558 3.616.083 6.697-.693 9.047-2.262a13.262 13.262 0 007.86 2.374 16.07 16.07 0 009.291-2.669 13.14 13.14 0 008.307 2.69 16.844 16.844 0 0011.293-4.25c2.16 2.77 5.854 4.21 10.344 4.21 8.407 0 12.771-5.203 16.035-11.973 1.217-2.525 3.508-8.845 3.93-12.256.516-4.178 1.017-8.132-1.791-12.057z"/><path fill="#181716" d="M94.4 0v95H0V0zM1.3 1.309v92.383h91.801V1.309z"/><path fill="#181716" d="M89.755 28.505v-.646h.437c.319 0 .483.113.483.32 0 .166-.106.326-.43.326zm1.566 1.341l-.272-.474c-.237-.415-.302-.48-.503-.552v-.012a.647.647 0 00.633-.66c0-.374-.236-.659-.739-.659h-1.167v2.358h.483v-.966h.088c.207 0 .29.024.385.118.126.14.233.295.318.463l.19.385zm-1.153-3.016a1.81 1.81 0 011.011.305 1.84 1.84 0 01.283 2.815 1.814 1.814 0 01-1.981.4 1.82 1.82 0 01-.817-.673 1.836 1.836 0 01.223-2.306c.34-.342.8-.536 1.28-.538zm0-.45c-.447 0-.884.135-1.255.385-.371.25-.66.606-.832 1.021a2.289 2.289 0 00.491 2.479 2.257 2.257 0 002.463.494 2.264 2.264 0 001.015-.837 2.286 2.286 0 00-.28-2.875 2.256 2.256 0 00-1.603-.664zm-1.933 13.256a38.453 38.453 0 01-1.925 9.163c-3.341 9.992-7.352 16.31-16.483 16.31-4.166 0-7.981-1.636-9.485-5.757a14.99 14.99 0 01-5.198 4.253 14.892 14.892 0 01-6.52 1.545c-3.655.018-6.498-1.28-8.305-3.515-2.144 2.384-5.775 3.474-9.383 3.474-3.24 0-5.948-1.138-7.723-3.078-1.978 2.01-5.087 3.075-9.051 2.98-5.074-.12-7.91-3.185-8-7.438-.14-6.582 6.089-20.174 8.659-24.306 1.772-2.928 4.232-4.366 7.504-4.366 1.796 0 3.64.316 4.778 1.53.937.999 1.09 1.888 1.157 3.564 2.873-4.662 7.718-5.295 12.163-5.295 3.402 0 6.223 1.282 7.408 3.217a14.46 14.46 0 019.498-3.186c4.03 0 7.037.992 8.902 3.117a6.08 6.08 0 011.09 1.64c2.283-2.722 5.653-4.665 10.532-4.665 8.449 0 10.657 5.557 10.382 10.812zM25.18 34.364c.033-1.404-.529-2.576-2.797-2.576-2.398 0-3.897 1.007-5.129 3.042-2.668 4.288-8.334 17.223-8.215 22.814.067 3.197 2.526 4.456 5.262 4.523 3.771.09 8.115-.977 8.56-5.742.15-1.591-1.038-3.31-5.763-2.485 1.973-4.447 7.988-15.833 8.082-19.576zm7.304 15.185c4.005.721 7.275.47 8.38-3.327.817-2.812-1.231-3.915-6.061-3.231a22.076 22.076 0 011.79-3.703 36.43 36.43 0 003.854-.053c2.609-.15 5.24-1.342 5.24-4.468 0-2.252-2.734-3.274-5.108-3.274-5.399 0-8.533.816-11.601 6.945-2.497 4.991-5.161 12.486-5.161 17.428 0 4.215 3.362 6.41 7.193 6.41 3.488 0 8.518-1.345 8.518-5.924 0-1.886-1.451-2.835-3.721-2.891a15.275 15.275 0 00-4.706.613c.39-1.53.851-3.04 1.383-4.525zm23.757-11.818c1.6.001 1.446.854 1.069 1.94-1.081 3.102 2.175 3.185 2.974 3.122 2.848-.224 4.416-2.078 4.803-5.228.527-4.296-3.067-5.943-7.623-5.943-7.593 0-10.573 4.677-13.416 11.358-1.335 3.14-3.02 8.501-3.02 11.92 0 4.796 2.9 7.397 7.575 7.397 6.825 0 11.65-5.481 13.028-12.304.424-2.1.948-6.04-4.354-5.823-2.692.111-4.314.71-5.17 3.477-.884 2.851 2.313 2.929 2.313 2.929-.642 2.949-2.524 4.736-4.202 4.736-1.046 0-2.003-.455-1.68-2.686.473-3.256 3.507-11.185 4.906-13.163a3.46 3.46 0 011.18-1.224 3.423 3.423 0 011.617-.508zm28.677 5.64c.704-3.521 2.313-11.601-6.72-11.712-7.741-.092-10.19 5.077-12.588 11.416-1.376 3.496-2.995 8.832-2.975 12.612.03 5.267 3.852 6.528 7.243 6.568 3.391.04 7.275-.77 10.472-6.556 2.1-3.869 3.64-8.02 4.57-12.328zm-6.438-3.963c-.096 2.427-3.631 12.132-4.887 14.277-.544.928-1.158 1.696-2.265 1.696a1.36 1.36 0 01-1.038-.418 1.378 1.378 0 01-.382-1.057c-.07-2.19 3.924-13.172 5.29-14.954.201-.362.503-.658.869-.851a2.11 2.11 0 011.19-.234c1.133.01 1.25.834 1.221 1.54z"/><path fill="#006cb7" d="M124 0h277.997v3.8H124zm0 91.2h192.01V95H124zm217.19 0h60.805V95H341.19z"/><path fill="#181716" d="M152.532 54.857c0 4.505-1.31 7.455-3.93 8.848-1.865.999-5.422 1.497-10.67 1.494-5.88 0-9.812-1.218-11.8-3.653-1.751-2.114-2.625-6.225-2.622-12.333 0-6.061.835-10.17 2.504-12.329 1.944-2.557 5.917-3.835 11.917-3.834 6.279 0 10.333 1.195 12.164 3.585 1.627 2.11 2.44 6.727 2.44 13.85h-21.559c0 3.681.32 6.021.958 7.02.836 1.278 2.826 1.918 5.97 1.918 2.624 0 4.336-.18 5.135-.537 1.314-.588 1.97-1.931 1.97-4.029zm-7.51-9.16c0-3.078-.399-4.993-1.195-5.743s-2.768-1.124-5.917-1.123c-3.108 0-5.08.453-5.915 1.36-.68.755-1.019 2.59-1.019 5.506zm35.215 19.183l.228-4.741h-.228c-1.551 3.38-4.812 5.069-9.782 5.066-5.247 0-8.704-1.636-10.372-4.909-1.076-2.112-1.614-6.142-1.613-12.092 0-5.228.658-8.9 1.973-11.016 1.715-2.753 5.064-4.13 10.047-4.13 5.02 0 8.17 1.51 9.447 4.53h.299V19.87h7.471v45.01zm-7.511-26.045c-3.027 0-4.985.856-5.874 2.568-.607 1.154-.91 3.422-.909 6.805 0 4.296.263 7.062.787 8.297.847 1.95 2.845 2.925 5.995 2.924 3.552 0 5.772-.935 6.66-2.806.568-1.194.852-4 .85-8.416 0-3.421-.383-5.73-1.15-6.926-1.01-1.63-3.13-2.446-6.36-2.446zm49.72 26.038h-7.254v-4.858h-.217c-1.435 3.456-4.747 5.183-9.936 5.183-7.02 0-10.53-3.016-10.529-9.049V33.38h7.467v19.815c0 2.438.28 4.035.84 4.791.678.959 2.148 1.437 4.425 1.437 2.79 0 4.762-.608 5.917-1.824 1.154-1.216 1.733-3.243 1.737-6.08l.08-18.139h7.472zm26.924-11.986h7.526c0 5.064-1.153 8.453-3.458 10.167-1.91 1.435-5.506 2.153-10.79 2.154-5.844 0-9.699-1.237-11.565-3.712-1.626-2.113-2.44-6.223-2.443-12.33 0-6.026.794-10.097 2.383-12.214 1.95-2.594 5.825-3.891 11.625-3.892 5.087 0 8.624.658 10.611 1.975 2.422 1.599 3.634 4.73 3.636 9.39h-7.526c0-2.413-.538-3.977-1.613-4.692-.837-.595-2.549-.893-5.136-.892-3.025 0-4.915.716-5.672 2.149-.562 1.076-.84 3.801-.837 8.177 0 4.337.259 7.023.777 8.058.715 1.472 2.626 2.208 5.732 2.208 2.866 0 4.707-.387 5.524-1.16.817-.774 1.225-2.57 1.226-5.386zm33.211 11.986l.243-3.96h-.178a5.938 5.938 0 01-1.576 2.344 5.886 5.886 0 01-2.475 1.343c-1.85.466-3.756.667-5.662.598-4.015 0-6.897-.638-8.644-1.913-2.027-1.477-3.04-4.169-3.039-8.074 0-3.746 1.055-6.357 3.165-7.832 1.756-1.196 4.605-1.795 8.547-1.796a22.025 22.025 0 015.438.478 6.03 6.03 0 012.304 1.118 6.072 6.072 0 011.639 1.978h.238v-4.083c0-2.718-.338-4.498-1.014-5.34-.84-1.04-2.733-1.56-5.68-1.561-1.993 0-3.388.22-4.183.66-1.155.642-1.732 1.884-1.732 3.726h-7.526c0-4.107 1.353-6.838 4.058-8.193 1.749-.878 4.868-1.316 9.36-1.316 5.364 0 8.982.699 10.852 2.097 2.227 1.64 3.341 4.976 3.341 10.008v19.718zm-6.96-14.169c-2.482 0-4.103.182-4.862.544-1.359.641-2.038 1.962-2.038 3.962 0 2.125.52 3.486 1.561 4.085.878.52 2.658.782 5.34.783 2.44 0 4.1-.24 4.98-.72 1.319-.72 1.978-2.103 1.98-4.147 0-1.962-.7-3.262-2.1-3.9-.882-.405-2.502-.607-4.86-.607zM293.6 39.162v-5.775h3.9V26.3h7.472v7.087h12.052v5.775h-12.052v16.083c0 1.634.14 2.69.42 3.168.4.679 1.338 1.018 2.817 1.017 1.876 0 3.035-.699 3.478-2.096.266-1.501.365-3.027.294-4.55h6.654c.08 4.48-.516 7.6-1.791 9.36-1.475 2.042-4.341 3.063-8.599 3.061-4.058 0-6.824-.619-8.297-1.856-1.632-1.394-2.448-4.068-2.448-8.02V39.162zm30.91-19.292v6.43h7.473v-6.43zm0 13.517V64.88h7.473V33.387zm28.148-.327c6.28 0 10.374 1.159 12.28 3.476 1.63 1.994 2.445 6.205 2.445 12.631 0 6.384-.815 10.573-2.446 12.57-1.91 2.314-6.002 3.47-12.28 3.471-6.276 0-10.37-1.156-12.282-3.471-1.63-1.994-2.445-6.184-2.445-12.57 0-6.428.815-10.638 2.445-12.631 1.909-2.317 6.003-3.476 12.283-3.476zm0 5.778c-3.2 0-5.24.676-6.117 2.029-.761 1.195-1.14 3.98-1.138 8.356 0 4.34.38 7.087 1.138 8.241.837 1.311 2.876 1.967 6.117 1.969 3.278 0 5.336-.657 6.173-1.969.72-1.117 1.08-3.864 1.084-8.241 0-4.455-.361-7.24-1.084-8.356-.877-1.35-2.935-2.027-6.173-2.03zm21.042-5.452h7.467v4.739h.239a6.863 6.863 0 011.502-2.557 6.809 6.809 0 012.436-1.676 16.151 16.151 0 015.894-.836c3.97 0 6.75.849 8.338 2.547 1.589 1.698 2.383 4.545 2.383 8.54v20.734h-7.468V44.94c0-2.354-.398-3.96-1.193-4.82-.795-.858-2.348-1.287-4.658-1.287-3.028 0-5.08.738-6.153 2.212-.879 1.2-1.318 3.377-1.317 6.529v17.302h-7.47zm20.901-3.238v-4.232h-1.571v-.566h3.78v.566h-1.578v4.232zm2.839 0V25.35h.95l1.128 3.397c.104.317.18.554.228.71.054-.174.138-.43.254-.768l1.141-3.338h.849v4.797h-.608v-4.016l-1.386 4.016h-.569l-1.378-4.085v4.085z"/></svg>