<svg xmlns="http://www.w3.org/2000/svg" width="238" height="56"><path fill="#fff" d="M.66.37v55.252h55.013V.37z"/><path fill="#ffed00" d="M55.673.37v55.252H.66V.37zM50.69 18.926c-.974-1.031-2.461-1.554-4.42-1.554-2.474 0-4.468.88-5.928 2.614l-.384.456-.256-.54a3.209 3.209 0 00-.585-.877c-.997-1.133-2.67-1.707-4.97-1.707a8.22 8.22 0 00-5.362 1.787l-.341.29-.237-.383C27.57 17.971 25.98 17.3 24.16 17.3c-2.619 0-5.262.356-6.858 2.937l-.659 1.067-.051-1.255c-.04-.97-.13-1.373-.579-1.851-.494-.526-1.326-.781-2.542-.781-1.786 0-3.13.78-4.107 2.392-1.503 2.412-5.137 10.345-5.056 14.116.052 2.445 1.678 3.942 4.35 4.006 2.201.052 3.952-.516 5.064-1.643l.283-.287.273.298c1 1.089 2.518 1.69 4.278 1.69 2.241 0 4.156-.7 5.258-1.92l.3-.334.283.35c1.028 1.27 2.62 1.938 4.603 1.928a8.426 8.426 0 003.684-.872 8.465 8.465 0 002.937-2.399l.426-.542.236.648c1 2.733 3.713 3.14 5.242 3.14 5.194 0 7.436-3.578 9.371-9.35a22.264 22.264 0 001.117-5.3c.069-1.298-.106-3.117-1.323-4.411z"/><path fill="#e3000b" d="M55.673.37v55.252H.66V.37zm-3.169 17.98c-1.174-1.641-3.174-2.742-6.212-2.742-2.3 0-4.352.625-5.993 1.995-1.406-1.397-3.42-2.03-6.134-2.03a10.282 10.282 0 00-5.457 1.423c-1.125-.9-2.447-1.462-4.554-1.462-1.909 0-4.59.099-6.612 1.824-.467-.957-1.417-1.71-4.039-1.71a6.385 6.385 0 00-3.287.855 6.421 6.421 0 00-2.39 2.422C6.101 21.692 2.44 29.684 2.533 34.05c.07 3.286 2.523 5.55 6.077 5.634 2.136.05 3.955-.408 5.344-1.333a7.844 7.844 0 004.642 1.4 9.503 9.503 0 005.488-1.574 7.772 7.772 0 004.906 1.586 9.96 9.96 0 006.67-2.506c1.276 1.633 3.458 2.483 6.11 2.483 4.966 0 7.543-3.068 9.471-7.058.719-1.49 2.072-5.215 2.321-7.225.305-2.463.601-4.794-1.058-7.107z"/><path fill="#181716" d="M56.038 0v56H.28V0zM1.048.772v54.457H55.27V.772z"/><path fill="#181716" d="M53.29 16.803v-.381h.258c.188 0 .285.066.285.188 0 .098-.063.192-.254.192zm.925.79l-.16-.28c-.14-.244-.18-.282-.298-.324v-.008a.382.382 0 00.374-.389c0-.22-.14-.388-.436-.388h-.69v1.39h.285v-.57h.052c.123 0 .172.014.227.07.075.082.138.174.188.273l.112.227zm-.681-1.778a1.07 1.07 0 01.994.663 1.083 1.083 0 01-.23 1.176 1.072 1.072 0 01-1.834-.76 1.072 1.072 0 011.07-1.077zm0-.265a1.332 1.332 0 00-1.233.829 1.347 1.347 0 00.29 1.46 1.334 1.334 0 002.28-.946 1.344 1.344 0 00-.826-1.24 1.328 1.328 0 00-.512-.101zm-1.137 7.816a22.632 22.632 0 01-1.136 5.402c-1.974 5.89-4.343 9.614-9.736 9.614-2.46 0-4.714-.964-5.603-3.393a8.847 8.847 0 01-3.07 2.506 8.81 8.81 0 01-3.85.911c-2.16.01-3.839-.754-4.906-2.071-1.266 1.405-3.411 2.047-5.542 2.047-1.913 0-3.513-.671-4.561-1.814-1.169 1.184-3.005 1.812-5.347 1.756-2.996-.07-4.671-1.877-4.725-4.384-.083-3.88 3.596-11.892 5.115-14.328 1.046-1.726 2.5-2.573 4.432-2.573 1.06 0 2.15.186 2.822.902.553.588.644 1.113.683 2.1 1.697-2.748 4.559-3.121 7.184-3.121 2.01 0 3.676.755 4.376 1.897a8.552 8.552 0 015.61-1.879c2.38 0 4.156.585 5.258 1.838.265.285.483.611.644.967 1.348-1.605 3.338-2.75 6.22-2.75 4.99 0 6.295 3.275 6.132 6.373zM15.154 20.26c.02-.828-.312-1.519-1.652-1.519-1.416 0-2.302.594-3.03 1.793C8.898 23.061 5.55 30.686 5.62 33.982c.04 1.884 1.493 2.626 3.108 2.666 2.228.053 4.794-.576 5.057-3.385.088-.938-.614-1.95-3.404-1.464 1.165-2.622 4.717-9.334 4.773-11.54zm4.314 8.951c2.366.425 4.297.277 4.95-1.962.482-1.657-.727-2.307-3.58-1.904a13 13 0 011.058-2.182c.758.03 1.518.019 2.276-.032 1.54-.088 3.094-.791 3.094-2.633 0-1.328-1.614-1.93-3.016-1.93-3.19 0-5.04.48-6.853 4.094-1.474 2.942-3.048 7.36-3.048 10.272 0 2.485 1.986 3.78 4.249 3.78 2.06 0 5.03-.794 5.03-3.493 0-1.112-.856-1.671-2.197-1.704a9.038 9.038 0 00-2.78.361c.23-.901.503-1.791.817-2.667zm14.033-6.966c.944 0 .853.503.63 1.143-.638 1.829 1.285 1.878 1.757 1.84 1.683-.132 2.609-1.224 2.837-3.081.311-2.533-1.811-3.503-4.502-3.503-4.485 0-6.245 2.756-7.924 6.695-.79 1.85-1.784 5.011-1.784 7.026 0 2.827 1.713 4.36 4.474 4.36 4.031 0 6.88-3.23 7.695-7.252.25-1.238.56-3.561-2.572-3.433-1.59.066-2.548.419-3.054 2.05-.522 1.68 1.367 1.726 1.367 1.726-.38 1.739-1.491 2.792-2.482 2.792-.618 0-1.183-.268-.992-1.583.279-1.92 2.071-6.593 2.897-7.76a2.035 2.035 0 011.653-1.02zm16.937 3.324c.416-2.075 1.366-6.838-3.969-6.904-4.572-.054-6.019 2.993-7.435 6.73-.813 2.06-1.77 5.206-1.757 7.434.017 3.105 2.275 3.848 4.278 3.872 2.003.024 4.297-.454 6.185-3.865a27.272 27.272 0 002.7-7.267zm-3.802-2.336c-.057 1.431-2.145 7.152-2.887 8.416-.322.547-.684 1-1.338 1a.806.806 0 01-.792-.534.816.816 0 01-.046-.335c-.042-1.291 2.317-7.765 3.124-8.815a1.255 1.255 0 011.216-.64c.67.006.738.491.722.908z"/><path fill="#006cb7" d="M73.52 0h164.198v2.24H73.52zm0 53.76h113.41V56H73.52zm128.28 0h35.914V56H201.8z"/><path fill="#181716" d="M90.372 32.335c0 2.655-.774 4.394-2.321 5.215-1.102.589-3.203.883-6.303.881-3.472 0-5.795-.718-6.97-2.153-1.034-1.246-1.55-3.67-1.548-7.27 0-3.573.493-5.996 1.48-7.268 1.147-1.507 3.494-2.26 7.038-2.26 3.708 0 6.103.704 7.184 2.113.961 1.244 1.442 3.965 1.442 8.165H77.64c0 2.17.188 3.549.565 4.138.494.753 1.67 1.13 3.527 1.13 1.55 0 2.56-.105 3.033-.316.776-.347 1.164-1.139 1.164-2.375zm-4.436-5.4c0-1.815-.236-2.943-.706-3.385-.47-.442-1.635-.663-3.495-.662-1.836 0-3 .267-3.493.801-.402.445-.602 1.527-.602 3.246zm20.8 11.307l.135-2.795h-.135c-.916 1.993-2.841 2.988-5.777 2.987-3.1 0-5.141-.965-6.126-2.894-.636-1.245-.954-3.62-.953-7.128 0-3.081.388-5.246 1.165-6.493 1.013-1.624 2.991-2.435 5.934-2.435 2.966 0 4.826.89 5.58 2.67h.177V11.71h4.413v26.532zM102.3 22.889c-1.788 0-2.944.505-3.47 1.514-.357.68-.536 2.017-.536 4.011 0 2.533.155 4.163.465 4.891.5 1.15 1.68 1.725 3.54 1.724 2.099 0 3.41-.551 3.935-1.654.335-.704.502-2.357.502-4.961 0-2.017-.227-3.378-.68-4.083-.597-.961-1.849-1.442-3.756-1.442zm29.37 15.355h-4.284V35.38h-.128c-.848 2.038-2.804 3.056-5.87 3.056-4.146 0-6.219-1.778-6.218-5.334V19.68h4.41v11.68c0 1.437.166 2.379.497 2.825.4.565 1.268.847 2.613.847 1.648 0 2.813-.359 3.495-1.075.682-.717 1.024-1.912 1.026-3.585l.047-10.692h4.413zm15.904-7.067h4.445c0 2.986-.68 4.984-2.042 5.994-1.128.846-3.252 1.269-6.373 1.27-3.452 0-5.729-.73-6.831-2.189-.96-1.245-1.441-3.668-1.443-7.268 0-3.552.47-5.952 1.408-7.2 1.151-1.529 3.44-2.293 6.866-2.294 3.004 0 5.093.388 6.267 1.164 1.43.943 2.147 2.788 2.148 5.535h-4.446c0-1.422-.317-2.344-.952-2.765-.494-.351-1.506-.527-3.034-.526-1.786 0-2.903.422-3.35 1.267-.332.634-.497 2.24-.494 4.82 0 2.557.153 4.14.458 4.75.423.867 1.552 1.301 3.386 1.301 1.693 0 2.78-.228 3.263-.684.482-.456.724-1.514.724-3.175zm19.616 7.062l.143-2.334h-.105a3.5 3.5 0 01-2.394 2.173 11.932 11.932 0 01-3.343.352c-2.372 0-4.074-.376-5.106-1.127-1.197-.871-1.796-2.458-1.795-4.76 0-2.208.623-3.747 1.87-4.617 1.036-.705 2.72-1.057 5.048-1.058 1.078-.04 2.156.055 3.211.281a3.563 3.563 0 012.33 1.826h.14v-2.407c0-1.602-.2-2.652-.6-3.148-.495-.613-1.613-.92-3.354-.92-1.177 0-2 .13-2.47.39-.682.377-1.023 1.11-1.023 2.195h-4.446c0-2.42.8-4.03 2.398-4.83 1.032-.517 2.875-.775 5.528-.775 3.168 0 5.305.412 6.41 1.236 1.315.967 1.973 2.933 1.973 5.9v11.623zm-4.112-8.352c-1.466 0-2.423.107-2.871.32-.803.378-1.204 1.157-1.204 2.336 0 1.252.307 2.055.922 2.408.518.307 1.57.46 3.154.461 1.44 0 2.421-.141 2.942-.424.778-.425 1.168-1.24 1.168-2.445 0-1.156-.413-1.922-1.24-2.299-.52-.238-1.478-.357-2.87-.357zm10.622-6.805v-3.405h2.303V15.5h4.414v4.177h7.118v3.405h-7.118v9.48c0 .964.083 1.586.248 1.868.236.4.79.6 1.663.6 1.109 0 1.793-.413 2.055-1.237.157-.884.215-1.784.174-2.681h3.93c.047 2.64-.305 4.48-1.058 5.517-.871 1.204-2.564 1.805-5.079 1.805-2.397 0-4.03-.365-4.9-1.095-.964-.822-1.446-2.397-1.447-4.727v-9.53zm18.25-11.372v3.79h4.414v-3.79zm0 7.968v18.564h4.414V19.678zm16.629-.188c3.71 0 6.127.683 7.253 2.049.963 1.176 1.444 3.658 1.444 7.446 0 3.763-.481 6.232-1.444 7.41-1.128 1.363-3.546 2.045-7.253 2.046-3.707 0-6.126-.682-7.255-2.047-.963-1.175-1.444-3.645-1.444-7.41 0-3.788.481-6.27 1.444-7.445 1.127-1.366 3.546-2.049 7.255-2.049zm0 3.406c-1.89 0-3.095.399-3.613 1.196-.45.705-.674 2.347-.672 4.926 0 2.558.224 4.177.672 4.857.494.773 1.699 1.16 3.613 1.161 1.936 0 3.152-.387 3.646-1.16.425-.659.638-2.278.64-4.858 0-2.626-.213-4.268-.64-4.926-.518-.796-1.733-1.195-3.646-1.197zm12.431-3.212h4.41v2.793h.141a4.044 4.044 0 012.326-2.495 9.557 9.557 0 013.482-.493c2.345 0 3.986.5 4.925 1.502.938 1 1.407 2.679 1.407 5.034v12.222h-4.411V26.496c0-1.388-.235-2.335-.705-2.842-.47-.506-1.386-.759-2.75-.758-1.79 0-3 .434-3.635 1.304-.52.707-.779 1.99-.778 3.848v10.199h-4.412zm12.338-1.906v-2.494h-.928v-.334h2.232v.334h-.931v2.494zm1.682 0V14.95h.561l.666 2.002c.062.187.107.327.135.42.032-.103.082-.255.15-.454l.674-1.968h.501v2.828h-.359v-2.367l-.818 2.367h-.336l-.814-2.408v2.408z"/></svg>