<svg xmlns="http://www.w3.org/2000/svg" width="176" height="50"><path fill="#046552" d="M.32 0h7.917c4.323 0 8.511 10.462 10.133 12.799C19.99 10.462 24.179 0 28.502 0h7.917l-.08 20.462H28.42l.081-12.527L21.99 20h-7.24L8.237 7.962v12.527H.32zm48.42 0c4.324 0 8.512 10.462 10.133 12.799C60.494 10.462 64.683 0 69.006 0h7.917v20.462h-7.917v-12.5L62.494 20h-7.269L48.713 7.962v12.527h-7.917V0zM5.157 45.38A14.92 14.92 0 01.32 34.32v-8.586h36.1v7.065H8.67c.08 1.766.215 4.022 1.27 5.734 1.215 1.983 3.08 3.07 5.836 3.315h20.616v7.962H15.776c-4.459 0-9.025-3.044-10.62-4.43zm53.69-12.608c-6.188 0-10.323 2.826-10.323 4.7 0 1.876 4.107 4.702 10.322 4.702 6.188 0 10.322-2.826 10.322-4.701 0-1.848-4.107-4.701-10.322-4.701zm0 17.038c-10.025 0-17.888-5.408-17.888-12.337 0-6.902 7.863-12.337 17.887-12.337 10.025 0 17.888 5.408 17.888 12.337.027 6.93-7.836 12.337-17.888 12.337zM92.864.054v6.332h-.757V1.495L89.866 4.89h-.487l-2.243-3.396v4.89h-.756V.056h.648l2.594 3.912L92.216.054zm3.404 2.582c-.891 0-1.594.598-1.594 1.603 0 1.006.703 1.603 1.594 1.603.892 0 1.595-.597 1.595-1.603 0-1.005-.703-1.603-1.595-1.603zm0-.707c1.19 0 2.297.788 2.297 2.283 0 1.495-1.135 2.283-2.297 2.283-1.162 0-2.296-.788-2.296-2.283 0-1.467 1.135-2.283 2.296-2.283zm5.377 0c.487 0 .973.109 1.324.354v.706c-.324-.244-.783-.38-1.242-.38-.838 0-1.703.462-1.703 1.603 0 1.114.838 1.603 1.703 1.603.459 0 .945-.136 1.296-.353v.734c-.405.19-.864.299-1.405.299-1.134 0-2.323-.707-2.323-2.256.027-1.576 1.243-2.31 2.35-2.31zm2.432 4.457V2.038h.73v1.82h.864l1.379-1.82h.837l-1.648 2.174 1.837 2.174h-.837l-1.595-1.848h-.837v1.848zm6.512-3.75c-.891 0-1.594.598-1.594 1.603 0 1.006.703 1.603 1.594 1.603.892 0 1.594-.597 1.594-1.603 0-1.005-.702-1.603-1.594-1.603zm0-.707c1.189 0 2.297.788 2.297 2.283 0 1.495-1.135 2.283-2.297 2.283-1.162 0-2.297-.788-2.297-2.283 0-1.467 1.135-2.283 2.297-2.283zm4.053 3.832h1.621c.46 0 .784-.136.784-.625 0-.516-.378-.625-.757-.625h-1.648zm0-1.875h1.567c.379 0 .676-.136.676-.598 0-.49-.378-.625-.676-.625h-1.567zm-.702-1.848h2.378c.756 0 1.324.408 1.324 1.169 0 .461-.244.815-.568.95.351.11.703.463.703 1.006 0 .707-.46 1.196-1.405 1.196h-2.432zm6.971-.109c.486 0 .973.109 1.324.354v.706c-.324-.244-.784-.38-1.243-.38-.838 0-1.702.462-1.702 1.603 0 1.114.837 1.603 1.702 1.603.459 0 .946-.136 1.297-.353v.734c-.405.19-.865.299-1.405.299-1.135 0-2.324-.707-2.324-2.256 0-1.576 1.216-2.31 2.351-2.31zm2.432 4.457V2.038h.702v1.82h.892l1.351-1.82h.838l-1.622 2.174 1.838 2.174h-.865l-1.567-1.848h-.865v1.848zm4.701 0V2.038h.73v3.18l2.648-3.18h.594v4.348h-.702v-3.18l-2.648 3.18zm7.296-5c-.432 0-.865-.082-1.27-.38V.352c.459.3.811.408 1.27.408.459 0 .81-.109 1.27-.408v.652c-.405.272-.838.38-1.27.38zm-2 5V2.038h.73v3.18l2.648-3.18h.621v4.348h-.729v-3.18l-2.648 3.18zm-47.123 10.87v-4.348H87l1.568 2.418 1.567-2.418h.783v4.347h-.675v-3.288l-1.405 2.147h-.54l-1.406-2.147v3.288zm7.944-3.778c-.73 0-1.432.435-1.486 1.305h2.81c.054-.49-.216-1.305-1.324-1.305zm-.054-.68c1.675 0 2.27 1.36 2 2.61h-3.432c.08.923.918 1.304 1.783 1.304.54 0 1.054-.136 1.432-.353v.706c-.405.218-.973.326-1.54.326-1.27 0-2.405-.733-2.405-2.282.027-1.55 1.135-2.31 2.162-2.31zm8.241 4.457l-1.486-1.82h-.676v1.82h-.73v-1.82h-.702l-1.459 1.82h-.81l1.729-2.173-1.513-2.174h.783l1.324 1.847h.649v-1.847h.73v1.847h.648l1.324-1.847h.783l-1.513 2.174 1.73 2.173zm4.918-.652V13.56h-1.811c-.027 1.304-.243 2.2-.648 3.043zm-3.81 1.82v-1.82h.567c.541-.95.757-2.065.73-3.695h3.215v3.695h.622v1.82h-.703v-1.168h-3.756v1.169zm9.214-5.515h.756l-2.134 5c-.46 1.06-1 1.44-1.621 1.44-.163 0-.298-.027-.46-.054v-.625c.135.027.243.054.378.054.487 0 .838-.353 1.108-1.06l.162-.408-2.053-4.347h.756l1.622 3.532zm1.567 4.347v-4.347h.729v1.847h2.486v-1.847h.73v4.347h-.73v-1.847h-2.486v1.847zm6.593-.516c.54 0 1.108-.217 1.486-.625v-.788c-.297-.054-.757-.136-1.108-.136-.621 0-1.324.19-1.324.815 0 .517.46.734.946.734zm2.513-.054c.108 0 .216-.027.324-.055v.598a1.737 1.737 0 01-.54.109c-.352 0-.676-.136-.784-.516-.432.353-.973.57-1.675.57-.757 0-1.513-.407-1.513-1.331 0-1.114 1.026-1.468 1.945-1.468.378 0 .838.055 1.189.136v-.163c0-.652-.432-1.087-1.243-1.087-.675 0-1.189.163-1.567.326v-.706c.351-.109.946-.3 1.648-.3 1.162 0 1.892.626 1.892 1.849v1.712c0 .244.135.326.324.326zm3.431-3.207c-.783 0-1.351.517-1.594 1.06v1.087a1.72 1.72 0 001.594 1.06c.838 0 1.514-.625 1.514-1.603 0-1.006-.676-1.604-1.514-1.604zm.081-.68c1.243 0 2.162.98 2.162 2.283 0 1.305-.919 2.283-2.162 2.283-.837 0-1.351-.38-1.675-.76v2.635h-.729v-6.331h.648v.733c.405-.462.919-.842 1.756-.842zm5.215.68c-.891 0-1.594.598-1.594 1.604 0 1.005.703 1.603 1.594 1.603.892 0 1.595-.598 1.595-1.603 0-1.006-.73-1.604-1.595-1.604zm0-.68c1.189 0 2.297.789 2.297 2.283 0 1.495-1.135 2.283-2.297 2.283-1.161 0-2.296-.788-2.296-2.283-.027-1.494 1.107-2.282 2.296-2.282zm6.593 3.805V13.56h-1.81c-.027 1.304-.243 2.2-.648 3.043zm-3.809 1.82v-1.82h.567c.54-.95.757-2.065.729-3.695h3.216v3.695h.621v1.82h-.702v-1.168h-3.756v1.169zm6.133-1.168v-4.347h.703v1.847h2.513v-1.847h.729v4.347h-.729v-1.847h-2.513v1.847zm9.836-4.347h.729v4.347h-.729zm-3.837 3.695h1.243c.621 0 1.026-.244 1.026-.76 0-.517-.405-.761-1.026-.761h-1.243zm-.73.652v-4.347h.73v1.521h1.324c1.053 0 1.675.598 1.675 1.413 0 .816-.622 1.413-1.675 1.413zm8.593-5.027c-.433 0-.865-.081-1.27-.38v-.652c.459.299.81.407 1.27.407.432 0 .81-.108 1.27-.407v.652c-.406.299-.838.38-1.27.38zm-1.973 5.027v-4.347h.73v3.179l2.648-3.18h.621v4.348h-.729v-3.179l-2.648 3.18zM88.244 23.67c.487 0 .973.108 1.324.353v.706c-.324-.244-.783-.38-1.243-.38-.837 0-1.702.462-1.702 1.603 0 1.114.838 1.603 1.702 1.603.46 0 .946-.135 1.297-.353v.734c-.405.19-.864.299-1.405.299-1.135 0-2.323-.707-2.323-2.256.027-1.603 1.242-2.31 2.35-2.31zM92 27.609c.54 0 1.108-.218 1.486-.625v-.788c-.297-.055-.756-.136-1.108-.136-.621 0-1.323.19-1.323.815 0 .49.459.734.945.734zm2.54-.055c.108 0 .216-.027.324-.054v.598a1.736 1.736 0 01-.54.109c-.351 0-.676-.136-.784-.517-.432.353-.972.57-1.675.57-.757 0-1.513-.407-1.513-1.33 0-1.115 1.027-1.468 1.945-1.468.379 0 .838.054 1.19.136v-.163c0-.652-.433-1.087-1.244-1.087-.675 0-1.189.163-1.567.326v-.707c.351-.108.946-.299 1.648-.299 1.162 0 1.892.625 1.892 1.848v1.712c-.027.245.135.326.324.326zm1.054.625c-.162 0-.324-.027-.513-.108V27.5c.108.027.189.054.297.054.756 0 1.027-1.467 1.108-3.804h3.188v4.348h-.73v-3.669h-1.756c-.162 2.229-.46 3.75-1.594 3.75zm7.376-3.831c-.891 0-1.594.598-1.594 1.603s.703 1.603 1.594 1.603c.892 0 1.595-.597 1.595-1.603 0-1.005-.703-1.603-1.595-1.603zm0-.68c1.189 0 2.297.789 2.297 2.283 0 1.495-1.135 2.283-2.297 2.283-1.161 0-2.296-.788-2.296-2.283 0-1.495 1.135-2.283 2.296-2.283zm3.351 4.457v-4.348h.73v1.82h2.485v-1.82h.73v4.348h-.73v-1.848h-2.485v1.848zm9.511-3.777c-.892 0-1.594.598-1.594 1.603s.702 1.603 1.594 1.603c.892 0 1.594-.597 1.594-1.603 0-1.005-.702-1.603-1.594-1.603zm0-.68c1.189 0 2.297.789 2.297 2.283 0 1.495-1.135 2.283-2.297 2.283-1.162 0-2.297-.788-2.297-2.283 0-1.495 1.135-2.283 2.297-2.283zm5.35 3.86c.946 0 1.513-.626 1.513-1.441 0-.815-.567-1.44-1.513-1.44-.891 0-1.513.706-1.513 1.44 0 .815.594 1.44 1.513 1.44zm.027.706c-1.297 0-2.242-.897-2.242-2.555 0-1.467.567-2.473 1.324-2.962 1.242-.76 2.107-.434 2.729-1.06v.761c-.622.435-1.324.245-2.297.843-.595.353-.838.951-1.027 1.494.297-.489.919-.815 1.594-.815 1.135 0 2.135.815 2.135 2.12-.027 1.358-.919 2.174-2.216 2.174zm5.566-3.913c-.783 0-1.351.516-1.594 1.06v1.086a1.72 1.72 0 001.594 1.06c.838 0 1.514-.625 1.514-1.603s-.676-1.603-1.514-1.603zm.081-.652c1.243 0 2.162.978 2.162 2.282s-.919 2.283-2.162 2.283c-.837 0-1.351-.38-1.675-.761v2.636h-.729v-6.332h.648v.734c.378-.462.919-.842 1.756-.842zm4.513 3.94c.54 0 1.108-.218 1.486-.625v-.788c-.297-.055-.757-.136-1.108-.136-.621 0-1.324.19-1.324.815 0 .49.459.734.946.734zm2.513-.055c.108 0 .216-.027.324-.054v.598a1.734 1.734 0 01-.54.109c-.352 0-.676-.136-.784-.517-.432.353-.973.57-1.675.57-.757 0-1.513-.407-1.513-1.33 0-1.115 1.026-1.468 1.945-1.468.378 0 .838.054 1.189.136v-.163c0-.652-.432-1.087-1.243-1.087-.675 0-1.189.163-1.567.326v-.707c.351-.108.946-.299 1.648-.299 1.162 0 1.892.625 1.892 1.848v1.712c0 .245.135.326.324.326zm2.405.68c-.622 0-1.189-.136-1.595-.326v-.68c.379.19.973.353 1.514.353.675 0 1.324-.135 1.324-.679 0-.543-.514-.625-.946-.625h-.946v-.68h.946c.486 0 .864-.135.864-.57 0-.489-.513-.68-1.188-.68-.514 0-1.081.137-1.46.354v-.68a3.9 3.9 0 011.541-.325c1.216 0 1.837.489 1.837 1.25 0 .516-.324.87-.811.978.487.136.892.489.892 1.06-.027.788-.784 1.25-1.972 1.25zm4.998-3.886c-.891 0-1.594.598-1.594 1.603s.703 1.603 1.594 1.603c.892 0 1.595-.597 1.595-1.603 0-1.005-.703-1.603-1.595-1.603zm0-.68c1.189 0 2.297.789 2.297 2.283 0 1.495-1.135 2.283-2.297 2.283-1.162 0-2.296-.788-2.296-2.283 0-1.495 1.134-2.283 2.296-2.283zm4.08 3.805h1.622c.459 0 .783-.136.783-.625 0-.516-.378-.625-.756-.625h-1.649zm0-1.875h1.568c.378 0 .675-.136.675-.598 0-.49-.378-.625-.675-.625h-1.568zm-.729-1.82h2.378c.756 0 1.324.407 1.324 1.168 0 .462-.244.815-.568.95.352.11.703.463.703 1.006 0 .707-.46 1.196-1.405 1.196h-2.432zm6.242 3.83c.54 0 1.107-.217 1.486-.624v-.788c-.298-.055-.757-.136-1.108-.136-.622 0-1.324.19-1.324.815 0 .49.459.734.946.734zm2.54-.054c.108 0 .216-.027.324-.054v.598a1.74 1.74 0 01-.541.109c-.351 0-.675-.136-.783-.517-.433.353-.973.57-1.676.57-.756 0-1.513-.407-1.513-1.33 0-1.115 1.027-1.468 1.946-1.468.378 0 .837.054 1.189.136v-.163c0-.652-.433-1.087-1.243-1.087-.676 0-1.189.163-1.567.326v-.707c.351-.108.945-.299 1.648-.299 1.162 0 1.891.625 1.891 1.848v1.712c-.027.245.135.326.325.326zm1.107.571v-4.348h.703v1.82h2.513v-1.82h.729v4.348h-.729v-1.848h-2.513v1.848zm5.269 0v-4.348h.73v3.18l2.648-3.18h.594v4.348h-.702v-3.18l-2.648 3.18zm8.133-2.174V24.43h-1.351c-.594 0-.972.272-.972.761 0 .49.378.761.972.761zm-3.242 2.174l1.243-1.603c-.676-.19-1.027-.734-1.027-1.332 0-.76.568-1.413 1.621-1.413h2.135v4.348h-.73v-1.522h-1.215l-1.189 1.522zm-71.658 4.51v6.36h-1.351v-3.913l-1.648 2.554h-.784L87.57 35.08v3.914h-1.351v-6.36h1.243l2.161 3.316 2.162-3.315zm3.242 2.99c-.702 0-1.107.516-1.107 1.169 0 .679.405 1.168 1.107 1.168.73 0 1.108-.516 1.108-1.169.027-.652-.378-1.168-1.108-1.168zm0-1.114c1.27 0 2.378.788 2.378 2.31 0 1.521-1.135 2.31-2.378 2.31s-2.377-.789-2.377-2.31c0-1.522 1.135-2.31 2.377-2.31zm4.81 0c.621 0 1.162.163 1.594.38v1.033c-.378-.245-1-.435-1.513-.435-.27 0-.594.082-.594.353 0 .734 2.431.354 2.431 1.957 0 1.032-.918 1.331-1.972 1.331-.649 0-1.27-.135-1.73-.407V37.69c.46.3 1.136.462 1.649.462.459 0 .756-.081.756-.326 0-.706-2.431-.38-2.431-1.956.027-1.033.918-1.36 1.81-1.36zm4.891 0c.486 0 .945.109 1.324.326v1.114a2.25 2.25 0 00-1.162-.326c-.676 0-1.351.326-1.351 1.223 0 .842.648 1.223 1.324 1.223.459 0 .891-.136 1.216-.326v1.114c-.433.19-.919.299-1.459.299-1.189 0-2.351-.68-2.351-2.229.027-1.712 1.27-2.418 2.459-2.418zm4.35 1.114c-.703 0-1.108.516-1.108 1.169 0 .679.405 1.168 1.108 1.168.73 0 1.108-.516 1.108-1.169.027-.652-.378-1.168-1.108-1.168zm0-1.114c1.27 0 2.378.788 2.378 2.31 0 1.521-1.135 2.31-2.378 2.31s-2.378-.789-2.378-2.31c0-1.522 1.135-2.31 2.378-2.31zm9.808.136l-1.378 4.348h-1.324l-.864-2.854-.865 2.854h-1.324l-1.378-4.348h1.324l.784 2.962.864-2.962h1.189l.865 2.962.783-2.962zm2.459 0h1.243v4.348h-1.243zm.622-.734c-.379 0-.73-.217-.73-.707 0-.489.351-.706.73-.706.405 0 .729.217.729.707 0 .489-.351.706-.729.706zm4.242.598c1.135 0 1.756.788 1.756 1.793v2.69h-1.243v-2.527c0-.597-.351-.87-.837-.87-.433 0-.784.3-.973.544v2.826h-1.243V34.62h1.108v.543c.324-.353.81-.652 1.432-.652zm4.296-1.44v1.576h1.378v1.06h-1.378v1.712c0 .461.216.652.703.652.297 0 .54-.055.783-.136v1.005c-.324.109-.729.19-1.162.19-.837 0-1.567-.38-1.567-1.467v-1.956h-.729v-1.06h.729V33.37zm4.215 2.391c-.54 0-.999.326-1.026.924h1.918c.081-.272-.108-.924-.892-.924zm-.027-.951c1.784 0 2.378 1.413 2.081 2.717h-3.053c.135.625.81.897 1.513.897.486 0 .945-.109 1.297-.272v.978c-.406.164-.946.272-1.595.272-1.378 0-2.512-.788-2.512-2.31.027-1.63 1.297-2.282 2.269-2.282zm5.783 1.25c-.676-.109-1.351.136-1.595.652v2.554h-1.242V34.62h1.107v.652c.298-.462.919-.816 1.73-.734zm3.215-1.25c1.135 0 1.756.788 1.756 1.793v2.69h-1.243v-2.527c0-.597-.351-.87-.837-.87-.432 0-.784.3-.973.544v2.826h-1.243V34.62h1.108v.543c.324-.353.811-.652 1.432-.652zm3.729 3.18c0 .325.297.543.675.543.352 0 .676-.109.973-.354v-.679a2.937 2.937 0 00-.729-.109c-.46 0-.919.136-.919.598zm3.215.461c.081 0 .162 0 .244-.027v.815c-.19.082-.46.136-.703.136-.432 0-.784-.163-.946-.489-.432.326-.918.543-1.567.543-.811 0-1.513-.462-1.513-1.331 0-1.114 1.027-1.44 1.891-1.44.352 0 .73.054 1.027.108v-.163c0-.434-.351-.733-1.027-.733-.594 0-1.134.163-1.54.326V34.81c.351-.109 1-.3 1.675-.3 1.297 0 2.135.544 2.135 1.957v1.386c0 .245.162.3.324.3zm2.351-5.081v1.576h1.378v1.06h-1.378v1.712c0 .461.216.652.703.652.297 0 .54-.055.783-.136v1.005c-.324.109-.729.19-1.162.19-.837 0-1.567-.38-1.567-1.467v-1.956h-.729v-1.06h.729V33.37zm2.189 1.576h1.243v4.348h-1.243zm.621-.734c-.378 0-.729-.217-.729-.707 0-.489.351-.706.729-.706.406 0 .73.217.73.707.027.489-.324.706-.73.706zm3.864 1.712c-.702 0-1.108.516-1.108 1.169 0 .679.406 1.168 1.108 1.168.73 0 1.108-.516 1.108-1.169 0-.652-.378-1.168-1.108-1.168zm0-1.114c1.27 0 2.378.788 2.378 2.31 0 1.521-1.135 2.31-2.378 2.31s-2.378-.789-2.378-2.31c0-1.522 1.135-2.31 2.378-2.31zm5.755 0c1.135 0 1.757.788 1.757 1.793v2.69h-1.243v-2.527c0-.597-.351-.87-.838-.87-.432 0-.783.3-.972.544v2.826h-1.243V34.62h1.107v.543c.325-.353.811-.652 1.432-.652zm3.729 3.18c0 .325.298.543.676.543.351 0 .675-.109.973-.354v-.679a2.953 2.953 0 00-.73-.109c-.486 0-.919.136-.919.598zm3.189.461c.081 0 .162 0 .243-.027v.815a1.903 1.903 0 01-.703.136c-.432 0-.783-.163-.945-.489-.433.326-.919.543-1.568.543-.81 0-1.513-.462-1.513-1.331 0-1.114 1.027-1.44 1.892-1.44.351 0 .729.054 1.027.108v-.163c0-.434-.352-.733-1.027-.733-.595 0-1.135.163-1.54.326V34.81c.351-.109.999-.3 1.675-.3 1.297 0 2.134.544 2.134 1.957v1.386c.027.245.163.3.325.3zm2.107.815h-1.243v-6.603h1.243zm-87.573 7.364c-.54 0-1 .327-1.026.924H89c.054-.299-.108-.924-.892-.924zm-.054-.95c1.783 0 2.378 1.413 2.08 2.717h-3.053c.136.625.811.897 1.514.897a3.15 3.15 0 001.297-.272v.978c-.406.163-.946.272-1.595.272-1.378 0-2.513-.788-2.513-2.31.055-1.63 1.298-2.283 2.27-2.283zm5.107 1.06c-.703 0-1.135.57-1.135 1.25 0 .679.433 1.25 1.135 1.25.54 0 .946-.354 1.135-.735v-1.032c-.162-.408-.567-.734-1.135-.734zm2.378-2.936v6.332h-1.108v-.625c-.27.38-.784.76-1.567.76-1.378 0-2.108-1.113-2.108-2.309 0-1.196.73-2.31 2.108-2.31.675 0 1.135.272 1.432.598v-2.446zm5.296 6.332h-1.108v-.543c-.324.38-.838.679-1.432.679-1.162 0-1.756-.788-1.756-1.794v-2.69h1.242v2.527c0 .571.325.87.838.87.46 0 .784-.299.973-.544v-2.826h1.243zm3.269-4.484c.487 0 .946.109 1.324.326v1.114a2.244 2.244 0 00-1.162-.326c-.675 0-1.351.326-1.351 1.223 0 .843.649 1.223 1.324 1.223.46 0 .892-.136 1.216-.326v1.114a3.59 3.59 0 01-1.459.299c-1.189 0-2.351-.68-2.351-2.228.027-1.712 1.27-2.419 2.459-2.419zm3.189 3.18c0 .326.297.543.675.543.351 0 .676-.109.973-.353v-.68a2.938 2.938 0 00-.73-.108c-.486 0-.918.163-.918.598zm3.188.489c.081 0 .162 0 .243-.027v.815a1.902 1.902 0 01-.702.136c-.433 0-.784-.163-.946-.49-.432.327-.919.544-1.567.544-.811 0-1.513-.462-1.513-1.331 0-1.115 1.027-1.44 1.891-1.44.351 0 .73.054 1.027.108v-.163c0-.435-.351-.734-1.027-.734-.594 0-1.135.163-1.54.326V45.68c.351-.108 1-.299 1.675-.299 1.297 0 2.135.544 2.135 1.957v1.386c.027.217.162.299.324.299zm2.351-5.082v1.576h1.378v1.06h-1.378v1.712c0 .462.216.652.702.652.298 0 .541-.054.784-.136v1.006c-.324.108-.73.19-1.162.19-.837 0-1.567-.38-1.567-1.467v-1.957h-.73v-1.06h.73V44.24zm2.216 1.55h1.242v4.347h-1.242zm.621-.707c-.378 0-.73-.218-.73-.707s.352-.706.73-.706c.405 0 .73.217.73.706 0 .49-.352.707-.73.707zm3.837 1.712c-.703 0-1.108.516-1.108 1.168 0 .68.405 1.169 1.108 1.169.729 0 1.108-.517 1.108-1.169.027-.652-.379-1.168-1.108-1.168zm0-1.115c1.27 0 2.378.788 2.378 2.31S120.75 50 119.507 50s-2.378-.788-2.378-2.31c0-1.521 1.135-2.31 2.378-2.31zm5.755 0c1.135 0 1.757.788 1.757 1.794v2.69h-1.243v-2.527c0-.598-.352-.87-.838-.87-.432 0-.784.3-.973.544v2.826h-1.243v-4.348h1.108v.544c.324-.38.811-.653 1.432-.653zm5.188 4.457v-3.288h-.756v-1.06h.756v-.435c0-1.304.892-1.684 1.702-1.684.406 0 .784.081 1.054.19v1.06a1.554 1.554 0 00-.756-.19c-.406 0-.784.135-.784.679v.38h1.324v1.06h-1.324v3.288zm4.134-1.304c0 .326.298.543.676.543.351 0 .675-.109.973-.353v-.68a2.953 2.953 0 00-.73-.108c-.486 0-.919.163-.919.598zm3.189.489c.081 0 .162 0 .243-.027v.815a1.903 1.903 0 01-.703.136c-.432 0-.783-.163-.945-.49-.433.327-.919.544-1.568.544-.81 0-1.513-.462-1.513-1.331 0-1.115 1.027-1.44 1.892-1.44.351 0 .729.054 1.027.108v-.163c0-.435-.352-.734-1.027-.734-.595 0-1.135.163-1.54.326V45.68c.351-.108.999-.299 1.675-.299 1.297 0 2.134.544 2.134 1.957v1.386c.027.217.163.299.325.299zm.837-3.533h1.243v4.348h-1.243zm.622-.706c-.378 0-.73-.218-.73-.707s.352-.706.73-.706c.405 0 .729.217.729.706.027.49-.324.707-.729.707zm4.566 1.847c-.675-.108-1.351.136-1.594.653v2.554h-1.243v-4.348h1.108v.652c.297-.462.919-.815 1.729-.733z"/></svg>