<svg xmlns="http://www.w3.org/2000/svg" width="140" height="39" viewBox="0 0 140 39"><g><g><path fill="#046552" d="M0 0h6.301c3.442 0 6.775 8.16 8.066 9.983C15.657 8.16 18.99 0 22.431 0h6.301l-.065 15.96h-6.301l.065-9.77-5.184 9.41h-5.763L6.3 6.21v9.771H0zm38.54 0c3.441 0 6.775 8.16 8.065 9.983C47.895 8.16 51.23 0 54.67 0h6.302v15.96H54.67V6.21l-5.183 9.39h-5.785l-5.183-9.39v9.771h-6.302V0zM3.85 35.397C2.495 34.189 0 31.306 0 26.77v-6.698h28.733v5.511H6.646c.064 1.378.172 3.137 1.01 4.472.968 1.548 2.452 2.396 4.646 2.586h16.41v6.21h-16.41c-3.549 0-7.183-2.373-8.452-3.454zm42.734-9.835c-4.925 0-8.216 2.204-8.216 3.667 0 1.462 3.27 3.667 8.216 3.667 4.925 0 8.215-2.205 8.215-3.667 0-1.441-3.269-3.667-8.215-3.667zm0 13.29c-7.98 0-14.238-4.218-14.238-9.623 0-5.384 6.259-9.623 14.238-9.623 7.979 0 14.237 4.218 14.237 9.623.022 5.405-6.237 9.623-14.237 9.623zM73.66.042v4.939h-.602V1.166l-1.786 2.65h-.387l-1.785-2.65V4.98H68.5V.042h.516l2.065 3.053L73.145.042zm2.71 2.014c-.71 0-1.27.466-1.27 1.25 0 .785.56 1.251 1.27 1.251s1.268-.466 1.268-1.25c0-.785-.559-1.251-1.268-1.251zm0-.551c.946 0 1.828.615 1.828 1.78 0 1.166-.904 1.78-1.828 1.78-.925 0-1.828-.614-1.828-1.78 0-1.144.903-1.78 1.827-1.78zm4.28 0c.387 0 .774.085 1.053.275v.552c-.258-.191-.623-.297-.99-.297-.666 0-1.354.36-1.354 1.25 0 .87.667 1.25 1.355 1.25.365 0 .753-.105 1.032-.275v.573a2.627 2.627 0 0 1-1.118.233c-.903 0-1.85-.551-1.85-1.76.022-1.229.99-1.801 1.871-1.801zm1.935 3.476V1.59h.58v1.42h.689l1.097-1.42h.666l-1.312 1.695 1.463 1.696h-.667L83.833 3.54h-.666V4.98zm5.183-2.925c-.71 0-1.269.466-1.269 1.25 0 .785.56 1.251 1.27 1.251.709 0 1.268-.466 1.268-1.25 0-.785-.56-1.251-1.269-1.251zm0-.551c.946 0 1.828.615 1.828 1.78 0 1.166-.903 1.78-1.828 1.78s-1.828-.614-1.828-1.78c0-1.144.903-1.78 1.828-1.78zm3.226 2.988h1.29c.366 0 .624-.106.624-.487 0-.403-.3-.488-.602-.488h-1.312zm0-1.462h1.247c.302 0 .538-.106.538-.466 0-.382-.3-.488-.538-.488h-1.247zm-.559-1.441h1.893c.602 0 1.053.318 1.053.911 0 .36-.193.636-.451.742.28.085.559.36.559.784 0 .551-.366.933-1.118.933h-1.936zm5.549-.085c.387 0 .774.085 1.054.275v.552c-.258-.191-.624-.297-.99-.297-.667 0-1.355.36-1.355 1.25 0 .87.667 1.25 1.355 1.25a2.08 2.08 0 0 0 1.033-.275v.573a2.627 2.627 0 0 1-1.119.233c-.903 0-1.85-.551-1.85-1.76 0-1.229.968-1.801 1.872-1.801zM97.92 4.98V1.59h.56v1.42h.71l1.075-1.42h.666l-1.29 1.695 1.462 1.696h-.688L99.168 3.54h-.688V4.98zm3.743 0V1.59h.58v2.48l2.108-2.48h.473V4.98h-.559v-2.48l-2.108 2.48zm5.806-3.9c-.344 0-.688-.064-1.01-.297V.276c.365.233.645.317 1.01.317.366 0 .646-.084 1.011-.317v.508a1.804 1.804 0 0 1-1.011.297zm-1.591 3.9V1.59h.581v2.48l2.107-2.48h.495V4.98h-.581v-2.48l-2.108 2.48zM68.37 13.459v-3.391h.624l1.247 1.886 1.248-1.886h.623v3.391h-.537v-2.564l-1.119 1.674h-.43l-1.118-1.674v2.564zm6.323-2.946c-.58 0-1.14.34-1.183 1.017h2.237c.043-.381-.172-1.017-1.054-1.017zm-.043-.53c1.333 0 1.807 1.06 1.591 2.035h-2.73c.064.72.73 1.017 1.419 1.017.43 0 .838-.106 1.14-.275v.55c-.323.17-.775.255-1.226.255-1.011 0-1.914-.572-1.914-1.78.021-1.208.903-1.802 1.72-1.802zm6.56 3.476l-1.183-1.42h-.538v1.42h-.58v-1.42h-.56l-1.161 1.42h-.645l1.376-1.695-1.204-1.696h.623l1.054 1.441h.516v-1.441h.581v1.441h.516l1.054-1.441h.624l-1.205 1.696 1.377 1.695zm3.914-.508v-2.374h-1.441c-.022 1.017-.194 1.716-.516 2.373zm-3.033 1.42v-1.42h.452c.43-.742.602-1.611.58-2.883h2.56v2.883h.495v1.42h-.56v-.912H82.63v.912zm7.334-4.303h.602l-1.699 3.9c-.365.827-.795 1.123-1.29 1.123-.13 0-.237-.02-.366-.042v-.488c.108.022.194.043.301.043.387 0 .667-.276.882-.827l.13-.318-1.635-3.391h.602l1.29 2.755zm1.248 3.391v-3.391h.58v1.441h1.979v-1.441h.58v3.391h-.58v-1.441h-1.979v1.441zm5.247-.402c.43 0 .882-.17 1.183-.488v-.615c-.236-.042-.602-.106-.882-.106-.494 0-1.054.149-1.054.636 0 .403.366.572.753.572zm2-.043c.086 0 .172-.021.258-.042v.466c-.129.042-.28.085-.43.085-.28 0-.537-.106-.623-.403-.344.276-.775.445-1.334.445-.602 0-1.204-.318-1.204-1.038 0-.87.817-1.145 1.548-1.145.301 0 .667.042.947.106v-.127c0-.509-.344-.848-.99-.848a3.13 3.13 0 0 0-1.247.254v-.55c.28-.086.753-.234 1.312-.234.925 0 1.505.488 1.505 1.441v1.336c0 .19.108.254.258.254zm2.732-2.501c-.624 0-1.076.403-1.27.827v.848c.194.445.646.826 1.27.826.666 0 1.204-.487 1.204-1.25 0-.785-.538-1.251-1.204-1.251zm.064-.53c.99 0 1.721.763 1.721 1.78 0 1.018-.731 1.781-1.721 1.781-.667 0-1.075-.297-1.333-.594v2.057h-.58v-4.94h.515v.573c.323-.36.731-.657 1.398-.657zm4.151.53c-.71 0-1.269.466-1.269 1.25 0 .785.559 1.251 1.269 1.251.71 0 1.269-.466 1.269-1.25 0-.785-.581-1.251-1.269-1.251zm0-.53c.946 0 1.828.615 1.828 1.78 0 1.166-.903 1.781-1.828 1.781s-1.828-.615-1.828-1.78c-.022-1.166.882-1.78 1.828-1.78zm5.248 2.967v-2.373h-1.441c-.022 1.017-.194 1.716-.516 2.373zm-3.033 1.42v-1.42h.452c.43-.741.602-1.61.581-2.882h2.559v2.883h.495v1.42h-.56v-.912h-2.989v.912zm4.882-.91v-3.392h.559v1.441h2.001v-1.441h.58v3.391h-.58v-1.441h-2.001v1.441zm7.829-3.392h.58v3.391h-.58zm-3.054 2.883h.989c.495 0 .817-.191.817-.594 0-.403-.322-.593-.817-.593h-.989zm-.581.508v-3.391h.581v1.187h1.054c.838 0 1.333.466 1.333 1.102 0 .636-.495 1.102-1.333 1.102zm6.839-3.921c-.344 0-.688-.064-1.011-.297v-.508c.366.233.646.318 1.011.318.344 0 .645-.085 1.011-.318v.508c-.323.233-.667.297-1.011.297zm-1.57 3.921v-3.391h.581v2.48l2.108-2.48h.494v3.391h-.58v-2.48l-2.108 2.48zm-51.444 5.002c.387 0 .774.085 1.054.276v.551c-.258-.19-.624-.297-.99-.297-.666 0-1.354.36-1.354 1.25 0 .87.666 1.251 1.355 1.251.365 0 .752-.106 1.032-.275v.572a2.627 2.627 0 0 1-1.118.233c-.904 0-1.85-.55-1.85-1.759.022-1.25.99-1.802 1.871-1.802zm2.99 3.074c.43 0 .881-.17 1.182-.488v-.614c-.236-.043-.602-.106-.881-.106-.495 0-1.054.148-1.054.635 0 .382.365.573.753.573zm2.021-.043c.086 0 .172-.02.258-.042v.466c-.129.043-.28.085-.43.085-.28 0-.538-.106-.624-.403-.344.276-.774.446-1.333.446-.602 0-1.204-.318-1.204-1.04 0-.868.817-1.144 1.548-1.144.301 0 .667.043.946.106v-.127c0-.509-.344-.848-.989-.848a3.13 3.13 0 0 0-1.247.255v-.551c.28-.085.752-.234 1.312-.234.924 0 1.505.488 1.505 1.442v1.335c-.022.19.108.254.258.254zm.839.488a1.01 1.01 0 0 1-.409-.085v-.445c.086.021.15.042.237.042.602 0 .817-1.144.882-2.967h2.537v3.391h-.58v-2.861h-1.398c-.13 1.738-.366 2.925-1.27 2.925zm5.871-2.989c-.71 0-1.269.467-1.269 1.25 0 .785.56 1.251 1.27 1.251.709 0 1.268-.466 1.268-1.25s-.56-1.25-1.269-1.25zm0-.53c.947 0 1.828.615 1.828 1.78 0 1.167-.903 1.781-1.828 1.781s-1.828-.614-1.828-1.78.903-1.78 1.828-1.78zm2.667 3.477v-3.392h.58v1.42h1.98v-1.42h.58v3.391h-.58v-1.44h-1.98v1.44zm7.57-2.947c-.71 0-1.269.467-1.269 1.25 0 .785.56 1.251 1.27 1.251s1.268-.466 1.268-1.25-.559-1.25-1.269-1.25zm0-.53c.947 0 1.828.615 1.828 1.78 0 1.167-.903 1.781-1.828 1.781-.924 0-1.828-.614-1.828-1.78s.904-1.78 1.828-1.78zm4.259 3.01c.752 0 1.204-.487 1.204-1.123s-.451-1.123-1.204-1.123c-.71 0-1.205.55-1.205 1.123 0 .636.474 1.123 1.205 1.123zm.021.551c-1.032 0-1.785-.7-1.785-1.992 0-1.145.452-1.929 1.054-2.31.99-.594 1.678-.34 2.172-.827v.593c-.494.34-1.054.191-1.828.657-.473.276-.667.742-.817 1.166.236-.381.731-.636 1.269-.636.903 0 1.699.636 1.699 1.654-.022 1.06-.731 1.695-1.764 1.695zm4.431-3.052c-.624 0-1.076.403-1.27.827v.848c.194.445.646.826 1.27.826.666 0 1.204-.487 1.204-1.25s-.538-1.25-1.204-1.25zm.064-.509c.99 0 1.721.764 1.721 1.78 0 1.018-.731 1.781-1.721 1.781-.667 0-1.075-.296-1.333-.593v2.056h-.58v-4.939h.515v.573c.301-.36.731-.658 1.398-.658zm3.592 3.074c.43 0 .882-.17 1.183-.488v-.614c-.237-.043-.602-.106-.882-.106-.495 0-1.054.148-1.054.635 0 .382.366.573.753.573zm2-.043c.086 0 .172-.02.258-.042v.466a1.41 1.41 0 0 1-.43.085c-.28 0-.538-.106-.624-.403-.344.276-.774.446-1.333.446-.602 0-1.205-.318-1.205-1.04 0-.868.818-1.144 1.549-1.144.301 0 .667.043.946.106v-.127c0-.509-.344-.848-.989-.848-.538 0-.946.128-1.247.255v-.551c.279-.085.752-.234 1.311-.234.925 0 1.506.488 1.506 1.442v1.335c0 .19.107.254.258.254zm1.914.53c-.495 0-.946-.106-1.269-.254v-.53c.301.148.774.276 1.205.276.537 0 1.053-.106 1.053-.53 0-.424-.408-.488-.752-.488h-.753v-.53h.753c.387 0 .688-.106.688-.445 0-.381-.409-.53-.946-.53-.409 0-.861.106-1.162.276v-.53a3.15 3.15 0 0 1 1.226-.254c.968 0 1.463.381 1.463.975 0 .402-.259.678-.646.763.387.106.71.381.71.826-.021.615-.624.975-1.57.975zm3.979-3.03c-.71 0-1.269.466-1.269 1.25s.559 1.25 1.269 1.25c.71 0 1.269-.466 1.269-1.25s-.559-1.25-1.269-1.25zm0-.53c.946 0 1.828.614 1.828 1.78s-.903 1.78-1.828 1.78-1.828-.614-1.828-1.78.903-1.78 1.828-1.78zm3.247 2.967h1.291c.365 0 .623-.106.623-.488 0-.402-.301-.487-.602-.487h-1.312zm0-1.463h1.248c.301 0 .537-.106.537-.466 0-.382-.301-.487-.537-.487h-1.248zm-.58-1.42h1.892c.602 0 1.054.318 1.054.912 0 .36-.193.636-.452.742.28.084.56.36.56.784 0 .55-.366.932-1.119.932h-1.935zm4.968 2.989c.43 0 .882-.17 1.183-.488v-.614c-.237-.043-.603-.106-.882-.106-.495 0-1.054.148-1.054.635 0 .382.366.573.753.573zm2.021-.043c.086 0 .172-.02.258-.042v.466a1.404 1.404 0 0 1-.43.085c-.279 0-.537-.106-.623-.403-.344.276-.775.446-1.334.446-.602 0-1.204-.318-1.204-1.04 0-.868.817-1.144 1.548-1.144.301 0 .667.043.947.106v-.127c0-.509-.345-.848-.99-.848a3.13 3.13 0 0 0-1.247.255v-.551c.279-.085.753-.234 1.312-.234.925 0 1.505.488 1.505 1.442v1.335c-.021.19.108.254.258.254zm.882.445v-3.39h.559v1.42h2v-1.42h.581v3.39h-.581v-1.44h-2v1.44zm4.194 0v-3.39h.581v2.48l2.107-2.48h.473v3.39h-.559v-2.48l-2.107 2.48zm6.473-1.695v-1.187h-1.075c-.473 0-.774.212-.774.593 0 .382.301.594.774.594zm-2.58 1.695l.989-1.25c-.538-.148-.817-.572-.817-1.039 0-.593.451-1.102 1.29-1.102h1.699v3.392h-.581V20.75h-.967l-.947 1.187zM73.79 25.456v4.96h-1.076v-3.052l-1.312 1.992h-.623l-1.334-1.992v3.052H68.37v-4.96h.99l1.72 2.586 1.72-2.586zm2.58 2.332c-.559 0-.881.402-.881.91 0 .53.322.912.882.912.58 0 .881-.402.881-.911.022-.509-.3-.911-.881-.911zm0-.87c1.011 0 1.893.615 1.893 1.802s-.903 1.802-1.892 1.802c-.99 0-1.893-.615-1.893-1.802s.903-1.801 1.893-1.801zm3.829 0c.494 0 .925.128 1.269.297v.806a2.49 2.49 0 0 0-1.205-.34c-.215 0-.473.064-.473.276 0 .572 1.936.276 1.936 1.526 0 .806-.732 1.039-1.57 1.039-.516 0-1.011-.106-1.377-.318v-.806c.366.233.904.36 1.312.36.366 0 .602-.063.602-.254 0-.55-1.935-.296-1.935-1.526.021-.805.731-1.06 1.44-1.06zm3.892 0c.388 0 .753.085 1.054.255v.869a1.816 1.816 0 0 0-.925-.254c-.537 0-1.075.254-1.075.953 0 .657.516.954 1.054.954.366 0 .71-.106.968-.254v.869a2.906 2.906 0 0 1-1.162.233c-.946 0-1.87-.53-1.87-1.738.02-1.335 1.01-1.886 1.956-1.886zm3.463.87c-.56 0-.882.402-.882.91 0 .53.323.912.882.912.58 0 .882-.402.882-.911.021-.509-.301-.911-.882-.911zm0-.87c1.01 0 1.893.615 1.893 1.802s-.904 1.802-1.893 1.802c-.99 0-1.892-.615-1.892-1.802s.903-1.801 1.892-1.801zm7.807.107l-1.097 3.39H93.21l-.688-2.225-.688 2.226H90.78l-1.097-3.391h1.054l.624 2.31.688-2.31h.946l.688 2.31.624-2.31zm1.957 0h.99v3.39h-.99zm.495-.573c-.301 0-.58-.17-.58-.55 0-.382.279-.552.58-.552.322 0 .58.17.58.551 0 .382-.28.551-.58.551zm3.376.466c.904 0 1.398.615 1.398 1.4v2.098h-.989v-1.971c0-.467-.28-.679-.667-.679-.344 0-.623.234-.774.424v2.205h-.99v-3.392h.883v.424a1.551 1.551 0 0 1 1.139-.508zm3.42-1.123v1.23h1.097v.826h-1.097v1.335c0 .36.172.51.559.51.237 0 .43-.043.624-.107v.784a3.014 3.014 0 0 1-.925.149c-.667 0-1.247-.297-1.247-1.145v-1.526h-.581v-.826h.581v-.997zm3.355 1.865c-.43 0-.796.255-.817.721h1.527c.064-.212-.086-.72-.71-.72zm-.022-.741c1.42 0 1.893 1.102 1.657 2.119h-2.431c.108.487.645.7 1.205.7.387 0 .752-.085 1.032-.212v.763c-.323.127-.753.212-1.269.212-1.097 0-2-.615-2-1.802.021-1.272 1.032-1.78 1.806-1.78zm4.603.974c-.538-.084-1.075.106-1.269.51v1.992h-.989v-3.392h.882v.509c.236-.36.731-.636 1.376-.572zm2.559-.974c.904 0 1.398.614 1.398 1.398v2.099h-.989v-1.971c0-.467-.28-.679-.667-.679-.344 0-.624.234-.774.424v2.205h-.989v-3.392h.881v.424a1.553 1.553 0 0 1 1.14-.508zm2.968 2.48c0 .254.237.423.538.423.279 0 .538-.085.774-.275v-.53a2.387 2.387 0 0 0-.581-.085c-.365 0-.731.106-.731.466zm2.559.36c.065 0 .13 0 .194-.021v.635a1.546 1.546 0 0 1-.559.106c-.344 0-.624-.127-.753-.381a2.004 2.004 0 0 1-1.247.424c-.645 0-1.205-.36-1.205-1.039 0-.869.818-1.123 1.506-1.123.279 0 .581.042.817.085v-.128c0-.339-.28-.572-.817-.572-.473 0-.903.127-1.226.255v-.848c.28-.085.796-.233 1.333-.233 1.033 0 1.699.423 1.699 1.526v1.08c0 .191.129.234.258.234zm1.872-3.964v1.23h1.096v.826h-1.096v1.335c0 .36.172.51.559.51.236 0 .43-.043.623-.107v.784c-.258.085-.58.149-.924.149-.667 0-1.248-.297-1.248-1.145v-1.526h-.58v-.826h.58v-.997zm1.742 1.23h.989v3.39h-.989zm.494-.573c-.301 0-.58-.17-.58-.55 0-.382.279-.552.58-.552.323 0 .581.17.581.551.021.382-.258.551-.581.551zm3.076 1.335c-.559 0-.882.403-.882.912 0 .53.323.911.882.911.58 0 .882-.402.882-.911s-.302-.911-.882-.911zm0-.868c1.011 0 1.892.614 1.892 1.801 0 1.187-.903 1.802-1.892 1.802-.99 0-1.893-.615-1.893-1.802s.903-1.801 1.893-1.801zm4.581 0c.903 0 1.398.614 1.398 1.398v2.099h-.99v-1.971c0-.467-.279-.679-.666-.679-.344 0-.624.234-.775.424v2.205h-.989v-3.392h.882v.424a1.552 1.552 0 0 1 1.14-.508zm2.968 2.48c0 .254.236.423.537.423.28 0 .538-.085.775-.275v-.53a2.402 2.402 0 0 0-.581-.085c-.387 0-.731.106-.731.466zm2.537.36c.065 0 .129 0 .194-.021v.635a1.546 1.546 0 0 1-.559.106c-.344 0-.624-.127-.753-.381a2.004 2.004 0 0 1-1.247.424c-.646 0-1.205-.36-1.205-1.039 0-.869.818-1.123 1.506-1.123.279 0 .58.042.817.085v-.128c0-.339-.28-.572-.817-.572-.473 0-.904.127-1.226.255v-.848c.279-.085.796-.233 1.333-.233 1.033 0 1.699.423 1.699 1.526v1.08c.022.191.129.234.258.234zm1.678.636h-.989v-5.151h.989zm-69.704 5.744c-.43 0-.795.254-.817.72h1.527c.043-.233-.086-.72-.71-.72zm-.043-.742c1.42 0 1.893 1.102 1.657 2.12h-2.43c.107.487.644.699 1.204.699a2.55 2.55 0 0 0 1.032-.212v.763c-.323.127-.753.212-1.269.212-1.097 0-2-.615-2-1.802.043-1.272 1.032-1.78 1.807-1.78zm4.065.826c-.559 0-.903.445-.903.975s.344.975.903.975c.43 0 .753-.275.903-.572v-.805c-.128-.318-.451-.573-.903-.573zm1.893-2.289v4.939h-.882v-.488c-.215.297-.624.594-1.247.594-1.097 0-1.678-.87-1.678-1.802s.58-1.802 1.678-1.802c.537 0 .903.213 1.14.467v-1.908zm4.215 4.939h-.882v-.424c-.258.297-.666.53-1.14.53-.924 0-1.397-.615-1.397-1.4v-2.098h.989v1.972c0 .445.258.678.667.678.365 0 .623-.233.774-.424v-2.204h.99zm2.603-3.497c.387 0 .752.084 1.053.254v.869a1.814 1.814 0 0 0-.925-.254c-.537 0-1.075.254-1.075.953 0 .657.516.954 1.054.954.366 0 .71-.106.968-.254v.869A2.906 2.906 0 0 1 82.52 39c-.946 0-1.87-.53-1.87-1.738.02-1.335 1.01-1.887 1.956-1.887zm2.537 2.48c0 .254.237.423.538.423.28 0 .538-.084.774-.275v-.53a2.386 2.386 0 0 0-.58-.085c-.388 0-.732.127-.732.466zm2.538.381c.065 0 .13 0 .194-.021v.636c-.15.063-.366.106-.56.106-.344 0-.623-.128-.752-.382a2.006 2.006 0 0 1-1.248.424c-.645 0-1.204-.36-1.204-1.039 0-.869.817-1.123 1.505-1.123.28 0 .581.042.818.085v-.127c0-.34-.28-.573-.818-.573a3.38 3.38 0 0 0-1.225.255v-.848c.28-.085.795-.233 1.333-.233 1.032 0 1.699.424 1.699 1.526v1.08c.021.17.13.234.258.234zm1.871-3.964v1.23h1.097v.826h-1.097v1.336c0 .36.172.508.56.508.236 0 .43-.042.623-.106v.785c-.258.084-.58.148-.925.148-.666 0-1.247-.297-1.247-1.145V36.33h-.58v-.826h.58v-.996zm1.764 1.208h.99v3.392h-.99zm.494-.55c-.3 0-.58-.17-.58-.552 0-.381.28-.55.58-.55.323 0 .581.169.581.55 0 .382-.28.551-.58.551zm3.054 1.335c-.559 0-.881.403-.881.911 0 .53.322.912.881.912.581 0 .882-.403.882-.912.022-.509-.3-.911-.882-.911zm0-.87c1.011 0 1.893.615 1.893 1.802S95.856 39 94.866 39c-.989 0-1.892-.615-1.892-1.802s.903-1.801 1.892-1.801zm4.581 0c.904 0 1.398.615 1.398 1.4v2.098h-.99v-1.971c0-.466-.279-.678-.666-.678-.344 0-.623.233-.774.424v2.204h-.99v-3.391h.883v.423a1.478 1.478 0 0 1 1.14-.508zm4.13 3.477v-2.565h-.603v-.827h.603v-.339c0-1.017.709-1.314 1.355-1.314.322 0 .623.064.838.149v.826a1.254 1.254 0 0 0-.602-.148c-.322 0-.624.106-.624.53v.296h1.054v.827h-1.054v2.565zm3.29-1.018c0 .255.237.424.538.424.279 0 .537-.084.774-.275v-.53a2.382 2.382 0 0 0-.581-.085c-.387 0-.731.127-.731.466zm2.538.382c.064 0 .129 0 .194-.021v.636a1.547 1.547 0 0 1-.56.106c-.344 0-.623-.128-.752-.382a2.01 2.01 0 0 1-1.248.424c-.645 0-1.204-.36-1.204-1.039 0-.869.817-1.123 1.505-1.123.28 0 .581.042.818.085v-.127c0-.34-.28-.573-.818-.573-.473 0-.903.128-1.226.255v-.848c.28-.085.796-.233 1.334-.233 1.032 0 1.699.424 1.699 1.526v1.08c.021.17.129.234.258.234zm.667-2.756h.989v3.392h-.989zm.494-.55c-.301 0-.58-.17-.58-.552 0-.381.279-.55.58-.55.323 0 .581.169.581.55.021.382-.258.551-.581.551zm3.635 1.44c-.538-.084-1.075.107-1.269.51v1.992h-.989v-3.391h.882v.508c.236-.36.731-.636 1.376-.572z"/></g></g></svg>