<svg xmlns="http://www.w3.org/2000/svg" width="60" height="40" viewBox="0 0 60 40"><g><g><path fill="#046552" d="M.043 16.513h6.173V6.7l5.093 9.427h5.698l5.094-9.427-.043 9.814h6.172L28.273.5h-6.172c-3.367 0-6.648 8.179-7.943 10.03C12.863 8.679 9.583.5 6.216.5H.043zm31.727 0h6.172V6.7l5.094 9.427h5.698l5.093-9.427v9.814H60V.5h-6.173c-3.367 0-6.647 8.179-7.942 10.03C44.59 8.679 41.309.5 37.942.5H31.77zM12.13 39.5h16.143v-6.242H12.13c-2.159-.215-3.626-1.076-4.576-2.626-.82-1.334-.907-3.099-.993-4.476h21.712v-5.51H0v6.715c0 4.52 2.46 7.447 3.799 8.652 1.251 1.12 4.834 3.487 8.33 3.487zm41.827-9.642c0 1.463-3.238 3.702-8.072 3.702-4.835 0-8.072-2.239-8.072-3.702 0-1.464 3.237-3.702 8.072-3.702 4.834 0 8.072 2.238 8.072 3.702zm5.957 0c0-5.381-6.173-9.643-14.03-9.643-7.855 0-14.028 4.219-14.028 9.643 0 5.38 6.173 9.642 14.029 9.642s13.986-4.218 14.029-9.642z"/></g></g></svg>