<svg width="144" height="33" viewBox="0 0 144 33" fill="none" xmlns="http://www.w3.org/2000/svg">
<g clip-path="url(#clip0)">
<path d="M0.335938 0.219971V32.7794H33.4681V0.219971H0.335938Z" fill="white"/>
<path d="M0.335938 0.219971V32.7794H33.4681V0.219971H0.335938ZM31.2637 13.7543C31.1701 14.8183 30.9442 15.867 30.591 16.877C29.4258 20.2789 28.0753 22.3877 24.9469 22.3877C24.0262 22.3877 22.3921 22.1472 21.7903 20.5369L21.6482 20.1551L21.3916 20.4745C20.9183 21.071 20.3136 21.5543 19.6229 21.8882C18.9322 22.2221 18.1735 22.3978 17.4038 22.4021C16.2099 22.4077 15.2511 22.0145 14.6318 21.2652L14.4614 21.0596L14.2804 21.2561C13.617 21.9751 12.4636 22.3875 11.1141 22.3875C10.0543 22.3875 9.13927 22.0335 8.53723 21.3916L8.37304 21.2161L8.20245 21.3856C7.53313 22.0496 6.47856 22.3842 5.15246 22.3535C3.54372 22.316 2.56449 21.4338 2.53298 19.9925C2.48417 17.7706 4.67268 13.0961 5.57823 11.6746C6.16652 10.7251 6.97611 10.2648 8.05129 10.2648C8.78411 10.2648 9.28498 10.4155 9.58256 10.7251C9.85337 11.0069 9.90715 11.2448 9.93108 11.8162L9.96212 12.5554L10.359 11.9268C11.3197 10.4057 12.9116 10.1959 14.4889 10.1959C15.5854 10.1959 16.5423 10.5917 16.9266 11.2057L17.0688 11.4315L17.2747 11.2599C18.1912 10.5462 19.3347 10.1733 20.5036 10.2071C21.8889 10.2071 22.8965 10.5456 23.4967 11.2131C23.6425 11.3651 23.7616 11.5398 23.8492 11.73L24.0037 12.0481L24.235 11.7792C25.114 10.757 26.315 10.239 27.8048 10.239C28.9847 10.239 29.8805 10.547 30.4669 11.1547C31.2 11.9172 31.3049 12.9892 31.2637 13.7543Z" fill="#FFED00"/>
<path d="M0.335938 0.219971V32.7794H33.4681V0.219971H0.335938ZM32.1967 15.0034C32.0467 16.1881 31.2317 18.3834 30.7988 19.2608C29.6379 21.6124 28.0853 23.4198 25.095 23.4198C23.4976 23.4198 22.1836 22.9192 21.4153 21.9569C20.3064 22.9176 18.8763 23.4433 17.3981 23.4336C16.3338 23.4604 15.2918 23.131 14.4432 22.4992C13.4636 23.1325 12.3102 23.456 11.138 23.4261C10.141 23.4472 9.16264 23.1586 8.34224 22.6014C7.50612 23.1467 6.41032 23.4163 5.12403 23.3872C2.98362 23.3376 1.50613 22.0035 1.46372 20.067C1.40733 17.4943 3.61266 12.785 4.65183 11.1542C4.99232 10.56 5.4896 10.0669 6.09129 9.72708C6.69298 9.38722 7.3768 9.21312 8.07072 9.22312C9.64961 9.22312 10.2218 9.66667 10.5033 10.2308C11.7211 9.21404 13.336 9.15584 14.4856 9.15584C15.7546 9.15584 16.5504 9.48669 17.228 10.0173C18.2231 9.44347 19.361 9.15324 20.5145 9.17912C22.1493 9.17912 23.3623 9.55165 24.2091 10.3752C25.1969 9.56772 26.4332 9.19938 27.818 9.19938C29.6481 9.19938 30.8524 9.84828 31.5596 10.8152C32.5585 12.1785 32.3803 13.5519 32.1967 15.0034Z" fill="#E3000B"/>
<path d="M0.108398 0V33H33.6888V0H0.108398ZM33.2266 0.454721V32.5455H0.571121V0.454721H33.2266Z" fill="#181716"/>
<path d="M32.0352 9.90188V9.67743H32.1906C32.3041 9.67743 32.3626 9.71655 32.3626 9.7885C32.3626 9.846 32.3247 9.90165 32.2096 9.90165L32.0352 9.90188ZM32.5922 10.3675L32.4956 10.2029C32.4112 10.0588 32.3882 10.0362 32.3167 10.0113V10.0071C32.3773 10.0057 32.435 9.98077 32.4771 9.93785C32.5192 9.89492 32.5425 9.83742 32.5418 9.77778C32.5418 9.64786 32.4576 9.54891 32.279 9.54891H31.8637V10.3678H32.0354V10.0323H32.0669C32.1406 10.0323 32.17 10.0407 32.2037 10.0735C32.2486 10.1218 32.2867 10.1758 32.3169 10.2341L32.3842 10.368L32.5922 10.3675ZM32.1821 9.3198C32.31 9.31939 32.4352 9.35629 32.5418 9.42584C32.6484 9.49538 32.7317 9.59444 32.7809 9.71048C32.8302 9.82652 32.8433 9.95432 32.8187 10.0777C32.794 10.2011 32.7326 10.3145 32.6424 10.4036C32.5521 10.4927 32.4369 10.5534 32.3114 10.5782C32.186 10.6029 32.0559 10.5905 31.9376 10.5426C31.8193 10.4946 31.7182 10.4132 31.647 10.3088C31.5758 10.2043 31.5377 10.0814 31.5376 9.95567C31.538 9.78775 31.6058 9.62677 31.7265 9.50786C31.8471 9.38895 32.0108 9.32177 32.1816 9.32097L32.1821 9.3198ZM32.1821 9.16357C32.0231 9.1638 31.8678 9.21033 31.7357 9.29728C31.6036 9.38422 31.5006 9.50769 31.4399 9.65208C31.3792 9.79647 31.3633 9.95531 31.3944 10.1085C31.4255 10.2618 31.5021 10.4025 31.6145 10.513C31.7269 10.6235 31.8701 10.6987 32.0261 10.7293C32.182 10.7598 32.3436 10.7442 32.4906 10.6846C32.6375 10.6249 32.7631 10.5237 32.8516 10.3939C32.9401 10.2641 32.9874 10.1114 32.9877 9.9552C32.9879 9.8512 32.9672 9.74818 32.9267 9.65207C32.8863 9.55597 32.8269 9.46867 32.752 9.3952C32.6771 9.32174 32.5881 9.26355 32.4902 9.224C32.3923 9.18445 32.2875 9.16431 32.1816 9.16474L32.1821 9.16357Z" fill="#181716"/>
<path d="M27.8025 10.0121C26.067 10.0121 24.8681 10.6873 24.0562 11.6328C23.9593 11.4234 23.8283 11.231 23.6683 11.0631C23.0049 10.3248 21.9354 9.98019 20.5018 9.98019C19.2775 9.94381 18.08 10.3361 17.1229 11.0871C16.7014 10.4147 15.698 9.96948 14.4878 9.96948C12.9065 9.96948 11.1833 10.1893 10.1612 11.8089C10.1375 11.2268 10.083 10.9178 9.74969 10.5709C9.34454 10.1492 8.68896 10.0393 8.04996 10.0393C6.88617 10.0393 6.01095 10.5388 5.38072 11.556C4.46641 12.9914 2.25042 17.7126 2.30064 19.9992C2.33287 21.4763 3.34147 22.541 5.14616 22.5825C6.55636 22.6158 7.66234 22.2456 8.36602 21.5475C8.99744 22.2213 9.96079 22.6167 11.1132 22.6167C12.3967 22.6167 13.6884 22.2381 14.4511 21.4102C15.0936 22.1864 16.1051 22.6372 17.4051 22.6311C18.2096 22.6266 19.0025 22.4431 19.7245 22.0943C20.4464 21.7455 21.0785 21.2404 21.5734 20.6171C22.1084 22.0486 23.4657 22.6167 24.9475 22.6167C28.1955 22.6167 29.6223 20.422 30.811 16.9512C31.171 15.9217 31.4009 14.8527 31.4955 13.7681C31.5936 11.9425 30.8079 10.0121 27.8025 10.0121ZM6.19078 18.7372C7.87132 18.4506 8.294 19.0476 8.24092 19.6004C8.08242 21.2556 6.53717 21.626 5.19568 21.5948C4.22261 21.5715 3.34763 21.1343 3.32394 20.0239C3.28153 18.0816 5.29708 13.5884 6.24622 12.0987C6.6843 11.3919 7.21763 11.0421 8.07057 11.0421C8.87755 11.0421 9.07752 11.4494 9.06567 11.9369C9.03203 13.2373 6.89256 17.1924 6.19078 18.7372ZM11.6638 17.2117C11.4746 17.7277 11.3105 18.2523 11.172 18.7836C11.7153 18.6278 12.28 18.556 12.8459 18.5705C13.6533 18.5901 14.1694 18.9198 14.1694 19.575C14.1694 21.1655 12.3803 21.6327 11.1395 21.6327C9.7767 21.6327 8.58068 20.8702 8.58068 19.4059C8.58068 17.6893 9.5284 15.086 10.4166 13.3523C11.5079 11.2231 12.6229 10.9397 14.5435 10.9397C15.3879 10.9397 16.3602 11.2945 16.3602 12.0771C16.3602 13.1628 15.4244 13.5772 14.4966 13.6291C14.0402 13.6588 13.5827 13.665 13.1257 13.6475C12.8729 14.0558 12.6596 14.4864 12.4886 14.9337C14.2068 14.6962 14.9353 15.0795 14.6446 16.056C14.2516 17.3754 13.088 17.4623 11.6631 17.2117H11.6638ZM20.1148 13.1067C19.9111 13.1174 19.7133 13.1781 19.5395 13.2832C19.3657 13.3883 19.2214 13.5344 19.1197 13.7083C18.6222 14.3954 17.5427 17.1496 17.3748 18.2807C17.2596 19.0558 17.6001 19.2136 17.9723 19.2136C18.5691 19.2136 19.2384 18.5929 19.4668 17.5684C19.4668 17.5684 18.3296 17.5414 18.644 16.5512C18.9484 15.5901 19.5256 15.3819 20.483 15.3433C22.3692 15.2676 22.183 16.6364 22.0321 17.3661C21.5419 19.7361 19.8256 21.6402 17.3975 21.6402C15.735 21.6402 14.7032 20.7366 14.7032 19.0704C14.7032 17.883 15.3024 16.0203 15.7774 14.93C16.7886 12.6091 17.8486 10.9846 20.5498 10.9846C22.1704 10.9846 23.4489 11.5567 23.2615 13.0489C23.1238 14.1432 22.5661 14.787 21.553 14.865C21.2687 14.8869 20.1103 14.858 20.4949 13.7802C20.629 13.4031 20.684 13.1067 20.1141 13.1067H20.1148ZM30.3163 15.0657C29.9855 16.5621 29.4381 18.0042 28.691 19.348C27.5537 21.3582 26.1719 21.6395 24.9657 21.6255C23.7595 21.6116 22.3998 21.1736 22.3894 19.3438C22.382 18.0308 22.958 16.1773 23.4475 14.9628C24.3004 12.7609 25.1716 10.9653 27.9254 10.9974C31.1384 11.0359 30.5663 13.8426 30.3156 15.0655L30.3163 15.0657ZM28.0257 13.6892C27.9915 14.5323 26.7339 17.9035 26.2871 18.6485C26.0935 18.971 25.8753 19.2376 25.4815 19.2376C25.4131 19.2403 25.3448 19.2288 25.2812 19.2038C25.2175 19.1788 25.16 19.1409 25.1123 19.0926C25.0646 19.0442 25.0279 18.9865 25.0044 18.9232C24.981 18.86 24.9715 18.7925 24.9764 18.7254C24.9515 17.9647 26.3721 14.1498 26.8581 13.5309C26.9296 13.4048 27.037 13.302 27.167 13.2351C27.2971 13.1681 27.4443 13.1399 27.5904 13.1539C27.9934 13.1574 28.0349 13.4433 28.025 13.689L28.0257 13.6892Z" fill="#181716"/>
<path d="M44.2188 0.000244141H143.108V1.32017H44.2188V0.000244141Z" fill="#006CB7"/>
<path d="M44.2188 31.6797H112.521V32.9996H44.2188V31.6797Z" fill="#006CB7"/>
<path d="M121.478 31.6797H143.108V32.9996H121.478V31.6797Z" fill="#006CB7"/>
<path d="M51.6923 19.0564H54.3681C54.3681 20.6213 53.9022 21.6458 52.9703 22.1298C52.3069 22.4767 51.0416 22.6497 49.1744 22.6488C47.0833 22.6488 45.6841 22.2258 44.977 21.3798C44.3542 20.6456 44.0433 19.2176 44.0444 17.0957C44.0444 14.9903 44.3414 13.5627 44.9353 12.813C45.6268 11.9248 47.0398 11.4809 49.1744 11.4812C51.4077 11.4812 52.85 11.8963 53.5012 12.7264C54.08 13.4593 54.3693 15.0631 54.3693 17.5376H46.7004C46.7004 18.8163 46.8139 19.6292 47.0409 19.9761C47.3385 20.4202 48.0464 20.6422 49.1647 20.6422C50.098 20.6422 50.707 20.5801 50.9914 20.4559C51.4588 20.2515 51.6924 19.785 51.6923 19.0564ZM46.7004 15.8745H51.6965C51.6965 14.805 51.5549 14.1401 51.2717 13.8796C50.9885 13.6191 50.2869 13.4891 49.1668 13.4894C48.0612 13.4894 47.3599 13.6468 47.0629 13.9616C46.8211 14.2239 46.7002 14.8615 46.7004 15.8745Z" fill="#181716"/>
<path d="M64.2204 22.5365L64.3016 20.8897H64.2204C63.6688 22.0638 62.509 22.6505 60.7408 22.6497C58.8743 22.6497 57.6445 22.0813 57.0514 20.9444C56.6685 20.2108 56.4772 18.8107 56.4775 16.7441C56.4775 14.928 56.7115 13.6525 57.1793 12.9175C57.7895 11.9609 58.9808 11.4827 60.7532 11.4828C62.539 11.4828 63.6592 12.0073 64.114 13.0563H64.2201V6.90161H66.8778V22.5365H64.2204ZM61.5485 13.4894C60.4718 13.4894 59.7753 13.7867 59.459 14.3813C59.2434 14.7823 59.1357 15.5703 59.1359 16.7453C59.1359 18.2376 59.2292 19.1983 59.4159 19.6275C59.717 20.3051 60.4278 20.6436 61.5483 20.6431C62.8119 20.6431 63.6017 20.3183 63.9176 19.6685C64.1196 19.2537 64.2204 18.2793 64.2199 16.7451C64.2199 15.5565 64.0835 14.7546 63.8107 14.3392C63.4512 13.7726 62.6972 13.4894 61.5485 13.4894Z" fill="#181716"/>
<path d="M79.2378 22.5365H76.6574V20.849H76.5802C76.0697 22.0495 74.8915 22.6496 73.0457 22.6495C70.5483 22.6495 69.2998 21.6017 69.3003 19.5062V11.5969H71.9565V18.4801C71.9565 19.3269 72.0561 19.8816 72.2553 20.1444C72.4965 20.4774 73.0194 20.6434 73.8292 20.6434C74.8218 20.6434 75.5234 20.4322 75.9341 20.0098C76.3447 19.5875 76.5507 18.8834 76.552 17.8976L76.5804 11.5969H79.2383L79.2378 22.5365Z" fill="#181716"/>
<path d="M88.8144 18.3698H91.4917C91.4917 20.1291 91.0816 21.3064 90.2615 21.9017C89.5823 22.4002 88.3029 22.6496 86.4233 22.6498C84.3446 22.6498 82.9734 22.22 82.3095 21.3606C81.7311 20.6264 81.4414 19.1987 81.4404 17.0776C81.4404 14.9842 81.723 13.5699 82.2882 12.8347C82.9816 11.9337 84.36 11.483 86.4235 11.4827C88.2329 11.4827 89.491 11.7113 90.198 12.1686C91.0595 12.7241 91.4906 13.8115 91.4914 15.4306H88.8141C88.8141 14.5924 88.6228 14.0491 88.2403 13.8007C87.9427 13.5938 87.3337 13.4905 86.4133 13.4908C85.3375 13.4908 84.6649 13.7397 84.3956 14.2373C84.1958 14.6109 84.0966 15.5578 84.0981 17.0779C84.0981 18.5844 84.1901 19.5174 84.3743 19.8767C84.6288 20.388 85.3084 20.6437 86.4133 20.6437C87.4329 20.6437 88.0879 20.5093 88.3784 20.2406C88.6689 19.972 88.8142 19.3484 88.8144 18.3698Z" fill="#181716"/>
<path d="M100.628 22.5363L100.715 21.1608H100.652C100.534 21.4726 100.342 21.7519 100.091 21.9749C99.84 22.1979 99.5379 22.3579 99.2104 22.4413C98.5524 22.6032 97.8744 22.6732 97.1965 22.649C95.7681 22.649 94.7432 22.4275 94.1216 21.9845C93.4004 21.4714 93.0401 20.5365 93.0405 19.1801C93.0405 17.8788 93.4158 16.9719 94.1664 16.4592C94.791 16.0438 95.8044 15.8359 97.2067 15.8354C97.8559 15.8122 98.5056 15.868 99.141 16.0014C99.4393 16.072 99.7189 16.2045 99.9608 16.39C100.203 16.5755 100.401 16.8098 100.544 17.0771H100.628V15.6587C100.628 14.7145 100.508 14.0961 100.268 13.8035C99.969 13.4426 99.2955 13.2619 98.247 13.2615C97.5381 13.2615 97.0422 13.338 96.7591 13.491C96.3484 13.7138 96.1431 14.1451 96.1431 14.7849H93.4658C93.4658 13.3586 93.9471 12.4099 94.9097 11.939C95.5315 11.6341 96.6413 11.4818 98.239 11.4819C100.147 11.4819 101.434 11.7247 102.099 12.2102C102.892 12.7801 103.288 13.9389 103.288 15.6869V22.5361L100.628 22.5363ZM98.1527 17.6145C97.2696 17.6145 96.6931 17.6774 96.4232 17.8033C95.9397 18.0261 95.698 18.4848 95.6982 19.1796C95.6982 19.9177 95.8833 20.3906 96.2535 20.5985C96.5658 20.7795 97.199 20.8702 98.1532 20.8707C99.0208 20.8707 99.6114 20.7873 99.9247 20.6206C100.394 20.3702 100.628 19.89 100.629 19.1798C100.629 18.4986 100.38 18.0469 99.8821 17.825C99.5681 17.6847 98.9916 17.6145 98.1527 17.6145Z" fill="#181716"/>
<path d="M104.549 13.6031V11.597H105.936V9.13525H108.594V11.597H112.881V13.6031H108.594V19.1896C108.594 19.7574 108.644 20.1243 108.743 20.2902C108.886 20.526 109.22 20.6438 109.745 20.6437C110.413 20.6437 110.825 20.4009 110.983 19.9154C111.077 19.3941 111.112 18.8641 111.087 18.3351H113.454C113.483 19.8909 113.271 20.9747 112.817 21.5864C112.293 22.2958 111.273 22.6502 109.758 22.6498C108.315 22.6498 107.331 22.4348 106.807 22.0048C106.227 21.5205 105.936 20.5919 105.936 19.219V13.6031H104.549Z" fill="#181716"/>
<path d="M118.203 6.90161V9.13517H115.544V6.90161H118.203ZM118.203 11.5969V22.5365H115.544V11.5969H118.203Z" fill="#181716"/>
<path d="M125.555 11.4827C127.789 11.4827 129.245 11.8852 129.923 12.6901C130.503 13.3829 130.793 14.8455 130.793 17.0779C130.793 19.2952 130.503 20.7506 129.923 21.4442C129.244 22.2479 127.788 22.6498 125.555 22.65C123.322 22.6502 121.866 22.2482 121.186 21.4442C120.606 20.7516 120.316 19.2961 120.316 17.0779C120.316 14.845 120.606 13.3824 121.186 12.6901C121.865 11.8852 123.321 11.4827 125.555 11.4827ZM125.555 13.4897C124.417 13.4897 123.691 13.7246 123.379 14.1945C123.108 14.6098 122.973 15.5774 122.974 17.0972C122.974 18.6047 123.109 19.5589 123.379 19.9599C123.677 20.4153 124.402 20.6432 125.555 20.6437C126.721 20.6437 127.453 20.4157 127.751 19.9599C128.007 19.5718 128.135 18.6176 128.136 17.0972C128.136 15.5496 128.008 14.5821 127.751 14.1945C127.439 13.7254 126.707 13.4904 125.555 13.4894V13.4897Z" fill="#181716"/>
<path d="M133.042 11.5969H135.698V13.243H135.783C135.893 12.9122 136.075 12.6091 136.317 12.3551C136.56 12.1011 136.855 11.9023 137.184 11.7727C137.859 11.5498 138.57 11.4514 139.281 11.4824C140.693 11.4824 141.682 11.7773 142.247 12.3671C142.812 12.957 143.094 13.9457 143.094 15.3334V22.5358H140.438V15.6109C140.438 14.7931 140.296 14.235 140.013 13.9367C139.73 13.6383 139.178 13.4893 138.357 13.4896C137.279 13.4896 136.55 13.7457 136.168 14.258C135.855 14.6749 135.699 15.4308 135.699 16.5257V22.5358H133.042V11.5969Z" fill="#181716"/>
<path d="M140.476 10.4737V9.00387H139.917V8.80713H141.262V9.00387H140.701V10.4737H140.476Z" fill="#181716"/>
<path d="M141.485 10.4737V8.80713H141.823L142.225 9.98712C142.262 10.0972 142.289 10.1794 142.306 10.2339C142.325 10.1734 142.355 10.0844 142.396 9.96687L142.802 8.80736H143.104V10.4737H142.887V9.07884L142.395 10.4737H142.192L141.702 9.05486V10.4737H141.485Z" fill="#181716"/>
</g>
<defs>
<clipPath id="clip0">
<rect width="143" height="33" fill="white" transform="translate(0.108398)"/>
</clipPath>
</defs>
</svg>
