<svg xmlns="http://www.w3.org/2000/svg" width="198" height="56" viewBox="0 0 198 56"><g><g><path fill="#046552" d="M.8 0h8.867c4.842 0 9.533 11.717 11.349 14.335C22.83 11.717 27.522 0 32.364 0h8.867l-.09 22.917h-8.868l.091-14.03L25.071 22.4h-8.11L9.666 8.917v14.03H.8zm54.231 0c4.842 0 9.533 11.717 11.349 14.335C68.195 11.717 72.886 0 77.728 0h8.867v22.917h-8.867v-14L70.435 22.4h-8.14L55 8.917v14.03h-8.867V0zM6.217 50.826C4.31 49.091.8 44.952.8 38.44v-9.617h40.431v7.913h-31.08c.091 1.978.242 4.504 1.423 6.421 1.361 2.222 3.45 3.44 6.536 3.714H41.2v8.917H18.11c-4.993 0-10.107-3.409-11.893-4.96zM66.35 36.704c-6.93 0-11.56 3.166-11.56 5.266s4.6 5.265 11.56 5.265c6.93 0 11.56-3.165 11.56-5.265 0-2.07-4.6-5.266-11.56-5.266zm0 19.083c-11.227 0-20.034-6.057-20.034-13.817 0-7.73 8.807-13.818 20.034-13.818 11.228 0 20.034 6.057 20.034 13.818.03 7.76-8.776 13.817-20.034 13.817zM104.45.061v7.091h-.847V1.674l-2.512 3.804h-.545l-2.512-3.804v5.478h-.847V.061h.726l2.906 4.382 2.905-4.382zm3.813 2.891c-.998 0-1.785.67-1.785 1.796s.787 1.795 1.785 1.795c.999 0 1.786-.67 1.786-1.795 0-1.126-.787-1.796-1.786-1.796zm0-.791c1.332 0 2.573.882 2.573 2.556s-1.271 2.557-2.573 2.557c-1.301 0-2.572-.883-2.572-2.557 0-1.643 1.271-2.556 2.572-2.556zm6.023 0c.544 0 1.089.122 1.483.396v.79c-.364-.273-.878-.425-1.393-.425-.938 0-1.906.517-1.906 1.795 0 1.248.938 1.796 1.906 1.796a2.88 2.88 0 0 0 1.453-.396v.822a3.633 3.633 0 0 1-1.574.335c-1.271 0-2.602-.791-2.602-2.526.03-1.765 1.392-2.587 2.633-2.587zm2.723 4.991v-4.87h.817v2.04h.969l1.543-2.04h.938l-1.846 2.435 2.058 2.435h-.938l-1.785-2.07h-.939v2.07zm7.294-4.2c-.999 0-1.786.67-1.786 1.796s.787 1.795 1.786 1.795c.998 0 1.785-.67 1.785-1.795 0-1.126-.787-1.796-1.785-1.796zm0-.791c1.331 0 2.572.882 2.572 2.556s-1.271 2.557-2.572 2.557c-1.302 0-2.573-.883-2.573-2.557 0-1.643 1.271-2.556 2.573-2.556zm4.539 4.291h1.816c.514 0 .877-.152.877-.7 0-.578-.423-.7-.847-.7h-1.846zm0-2.1h1.755c.424 0 .757-.152.757-.67 0-.547-.424-.7-.757-.7h-1.755zm-.787-2.07h2.663c.848 0 1.483.457 1.483 1.31 0 .517-.272.912-.635 1.065.393.121.787.517.787 1.126 0 .79-.515 1.339-1.574 1.339h-2.724zm7.808-.121c.545 0 1.089.122 1.483.396v.79c-.363-.273-.878-.425-1.392-.425-.938 0-1.907.517-1.907 1.795 0 1.248.938 1.796 1.907 1.796.514 0 1.059-.152 1.452-.396v.822a3.632 3.632 0 0 1-1.573.335c-1.271 0-2.603-.791-2.603-2.526 0-1.765 1.362-2.587 2.633-2.587zm2.724 4.991v-4.87h.787v2.04h.998l1.513-2.04h.938l-1.815 2.435 2.058 2.435h-.969l-1.755-2.07h-.968v2.07zm5.265 0v-4.87h.818v3.561l2.965-3.56h.666v4.87h-.787V3.59l-2.966 3.561zm8.171-5.6c-.484 0-.968-.091-1.422-.426v-.73c.514.334.908.456 1.422.456.515 0 .908-.122 1.423-.456v.73a2.502 2.502 0 0 1-1.423.426zm-2.239 5.6v-4.87h.817v3.561l2.966-3.56h.696v4.87h-.817V3.59l-2.966 3.561zM97.006 19.326v-4.87h.877l1.755 2.71 1.756-2.71h.877v4.87h-.756v-3.683l-1.574 2.405h-.605l-1.574-2.405v3.683zm8.897-4.23c-.817 0-1.604.487-1.665 1.46h3.148c.06-.547-.242-1.46-1.483-1.46zm-.061-.761c1.877 0 2.542 1.521 2.24 2.921h-3.844c.091 1.035 1.029 1.461 1.998 1.461.605 0 1.18-.152 1.604-.395v.791c-.454.243-1.09.365-1.725.365-1.423 0-2.694-.822-2.694-2.556.031-1.735 1.271-2.587 2.421-2.587zm9.23 4.991l-1.664-2.039h-.757v2.04h-.817v-2.04h-.787l-1.634 2.04h-.908l1.937-2.436-1.694-2.434h.877l1.483 2.07h.726v-2.07h.817v2.07h.727l1.483-2.07h.877l-1.694 2.434 1.936 2.435zm5.508-.73v-3.409h-2.027c-.031 1.46-.273 2.465-.727 3.409zm-4.267 2.039v-2.04h.636c.605-1.065.847-2.312.817-4.139h3.601v4.14h.696v2.039h-.787v-1.309h-4.206v1.309zm10.32-6.179h.847l-2.391 5.6c-.514 1.187-1.119 1.614-1.815 1.614-.182 0-.333-.03-.515-.061v-.7c.152.03.273.06.424.06.545 0 .938-.395 1.241-1.186l.181-.457-2.3-4.87h.848l1.815 3.957zm1.755 4.87v-4.87h.817v2.07h2.784v-2.07h.817v4.87h-.817v-2.07h-2.784v2.07zm7.384-.578c.605 0 1.241-.244 1.665-.7v-.883c-.333-.06-.848-.152-1.241-.152-.696 0-1.483.213-1.483.913 0 .578.515.822 1.059.822zm2.815-.061c.121 0 .242-.03.363-.06v.669c-.182.06-.394.121-.605.121-.394 0-.757-.152-.878-.578-.484.396-1.09.64-1.876.64-.848 0-1.695-.457-1.695-1.492 0-1.248 1.15-1.643 2.179-1.643.424 0 .938.06 1.331.152v-.183c0-.73-.484-1.217-1.392-1.217-.756 0-1.331.182-1.755.365v-.791c.394-.122 1.059-.335 1.846-.335 1.301 0 2.119.7 2.119 2.07v1.917c0 .274.151.365.363.365zm3.843-3.591c-.878 0-1.513.578-1.785 1.187V17.5c.272.64.907 1.187 1.785 1.187.938 0 1.695-.7 1.695-1.796 0-1.126-.757-1.795-1.695-1.795zm.091-.761c1.392 0 2.421 1.095 2.421 2.556s-1.029 2.557-2.421 2.557c-.938 0-1.513-.426-1.876-.852v2.952h-.818v-7.091h.727v.821c.454-.517 1.029-.943 1.967-.943zm5.841.76c-.999 0-1.786.67-1.786 1.796s.787 1.796 1.786 1.796c.998 0 1.785-.67 1.785-1.796s-.817-1.795-1.785-1.795zm0-.76c1.331 0 2.572.882 2.572 2.556s-1.271 2.557-2.572 2.557c-1.302 0-2.573-.883-2.573-2.557-.03-1.674 1.241-2.556 2.573-2.556zm7.384 4.26v-3.408h-2.028c-.03 1.46-.272 2.465-.726 3.409zm-4.267 2.04v-2.04h.635c.605-1.065.848-2.312.817-4.139h3.602v4.14h.696v2.039h-.787v-1.309h-4.207v1.309zm6.869-1.309v-4.87h.787v2.07h2.815v-2.07h.817v4.87h-.817v-2.07h-2.815v2.07zm11.016-4.87h.817v4.87h-.817zm-4.297 4.14h1.392c.696 0 1.15-.274 1.15-.852 0-.579-.454-.853-1.15-.853h-1.392zm-.817.73v-4.87h.817v1.705h1.483c1.18 0 1.876.67 1.876 1.583 0 .913-.696 1.582-1.876 1.582zm9.623-5.63c-.484 0-.968-.092-1.422-.426v-.73c.514.334.908.456 1.422.456.484 0 .908-.122 1.422-.457v.73c-.453.335-.938.427-1.422.427zm-2.209 5.63v-4.87h.817v3.561l2.966-3.56h.696v4.87h-.817v-3.562l-2.966 3.561zM99.275 26.51c.545 0 1.09.121 1.483.395v.792c-.363-.274-.877-.426-1.392-.426-.938 0-1.906.517-1.906 1.795 0 1.248.938 1.796 1.906 1.796.515 0 1.06-.152 1.453-.396v.822a3.637 3.637 0 0 1-1.574.335c-1.271 0-2.603-.792-2.603-2.526.03-1.796 1.393-2.587 2.633-2.587zm4.207 4.413c.605 0 1.241-.244 1.664-.7v-.883c-.333-.06-.847-.152-1.241-.152-.696 0-1.482.213-1.482.913 0 .548.514.822 1.059.822zm2.845-.061c.121 0 .242-.03.363-.061v.67c-.182.06-.394.121-.606.121-.393 0-.756-.152-.877-.578-.484.396-1.09.64-1.877.64-.847 0-1.694-.457-1.694-1.492 0-1.248 1.15-1.644 2.179-1.644.423 0 .938.061 1.331.153v-.183c0-.73-.484-1.217-1.392-1.217-.756 0-1.331.182-1.755.365v-.791c.393-.122 1.059-.335 1.846-.335 1.301 0 2.118.7 2.118 2.07v1.917c-.03.274.152.365.364.365zm1.18.7c-.182 0-.363-.03-.575-.122V30.8c.121.03.212.06.333.06.847 0 1.15-1.643 1.24-4.26h3.571v4.87h-.817v-4.11h-1.967c-.181 2.497-.514 4.2-1.785 4.2zm8.262-4.291c-.999 0-1.786.67-1.786 1.795 0 1.126.787 1.796 1.786 1.796.998 0 1.785-.67 1.785-1.796s-.787-1.795-1.785-1.795zm0-.761c1.331 0 2.572.882 2.572 2.556s-1.271 2.557-2.572 2.557c-1.302 0-2.573-.883-2.573-2.557s1.271-2.556 2.573-2.556zm3.752 4.991v-4.87h.817v2.04h2.784v-2.04h.817v4.87h-.817v-2.07h-2.784v2.07zm10.653-4.23c-.999 0-1.786.67-1.786 1.795 0 1.126.787 1.796 1.786 1.796.998 0 1.785-.67 1.785-1.796s-.787-1.795-1.785-1.795zm0-.761c1.331 0 2.572.882 2.572 2.556s-1.271 2.557-2.572 2.557c-1.302 0-2.573-.883-2.573-2.557s1.271-2.556 2.573-2.556zm5.992 4.321c1.059 0 1.694-.7 1.694-1.613s-.635-1.613-1.694-1.613c-.999 0-1.695.792-1.695 1.613 0 .913.666 1.613 1.695 1.613zm.03.792c-1.453 0-2.512-1.005-2.512-2.861 0-1.644.636-2.77 1.483-3.317 1.392-.853 2.36-.487 3.057-1.187v.852c-.697.487-1.483.274-2.573.943-.666.396-.938 1.065-1.15 1.674.333-.548 1.029-.913 1.786-.913 1.271 0 2.39.913 2.39 2.374-.03 1.522-1.028 2.435-2.481 2.435zm6.234-4.383c-.878 0-1.513.578-1.785 1.187v1.218c.272.639.907 1.186 1.785 1.186.938 0 1.695-.7 1.695-1.795 0-1.096-.757-1.796-1.695-1.796zm.091-.73c1.392 0 2.421 1.095 2.421 2.556s-1.029 2.557-2.421 2.557c-.938 0-1.513-.426-1.876-.852v2.952h-.818V26.63h.727v.822c.423-.517 1.029-.943 1.967-.943zm5.054 4.413c.605 0 1.241-.244 1.664-.7v-.883c-.333-.06-.847-.152-1.241-.152-.696 0-1.482.213-1.482.913 0 .548.514.822 1.059.822zm2.814-.061c.121 0 .242-.03.363-.061v.67c-.181.06-.393.121-.605.121-.393 0-.756-.152-.878-.578-.484.396-1.089.64-1.876.64-.847 0-1.695-.457-1.695-1.492 0-1.248 1.15-1.644 2.179-1.644.424 0 .939.061 1.332.153v-.183c0-.73-.484-1.217-1.392-1.217-.757 0-1.332.182-1.755.365v-.791c.393-.122 1.059-.335 1.846-.335 1.301 0 2.118.7 2.118 2.07v1.917c0 .274.151.365.363.365zm2.694.76c-.696 0-1.332-.151-1.786-.364v-.761c.424.213 1.09.395 1.695.395.756 0 1.483-.152 1.483-.76 0-.61-.575-.7-1.06-.7h-1.059v-.761h1.059c.545 0 .969-.153.969-.64 0-.547-.575-.76-1.332-.76-.575 0-1.21.152-1.634.395v-.76a4.361 4.361 0 0 1 1.725-.366c1.362 0 2.058.548 2.058 1.4 0 .578-.363.974-.908 1.096.545.152.999.548.999 1.187-.03.882-.878 1.4-2.209 1.4zm5.598-4.351c-.998 0-1.785.67-1.785 1.795 0 1.126.787 1.796 1.785 1.796.999 0 1.786-.67 1.786-1.796s-.787-1.795-1.786-1.795zm0-.761c1.332 0 2.573.882 2.573 2.556s-1.271 2.557-2.573 2.557c-1.301 0-2.572-.883-2.572-2.557s1.271-2.556 2.572-2.556zm4.57 4.26h1.816c.514 0 .877-.152.877-.7 0-.578-.423-.7-.847-.7h-1.846zm0-2.1h1.755c.424 0 .757-.152.757-.669 0-.548-.424-.7-.757-.7h-1.755zm-.817-2.039h2.663c.847 0 1.483.457 1.483 1.31 0 .517-.273.912-.636 1.064.394.122.787.518.787 1.126 0 .792-.514 1.34-1.574 1.34h-2.723zm6.991 4.292c.605 0 1.24-.244 1.664-.7v-.883c-.333-.06-.847-.152-1.241-.152-.696 0-1.483.213-1.483.913 0 .548.515.822 1.06.822zm2.844-.061c.121 0 .242-.03.363-.061v.67c-.181.06-.393.121-.605.121-.393 0-.756-.152-.877-.578-.485.396-1.09.64-1.877.64-.847 0-1.695-.457-1.695-1.492 0-1.248 1.15-1.644 2.179-1.644.424 0 .939.061 1.332.153v-.183c0-.73-.484-1.217-1.392-1.217-.757 0-1.332.182-1.755.365v-.791c.393-.122 1.059-.335 1.846-.335 1.301 0 2.118.7 2.118 2.07v1.917c-.03.274.151.365.363.365zm1.241.639v-4.87h.787v2.04h2.814v-2.04h.817v4.87h-.817v-2.07h-2.814v2.07zm5.901 0v-4.87h.817v3.561l2.966-3.56h.666V31.5h-.787v-3.56l-2.966 3.56zm9.109-2.435v-1.704h-1.513c-.666 0-1.089.304-1.089.852s.423.852 1.089.852zm-3.631 2.435l1.392-1.796c-.757-.213-1.15-.821-1.15-1.491 0-.852.635-1.583 1.816-1.583h2.39v4.87h-.817v-1.704h-1.361l-1.332 1.704zm-80.257 5.052v7.122h-1.513V39.29l-1.846 2.861h-.878l-1.876-2.86v4.382h-1.514v-7.122h1.393l2.421 3.713 2.421-3.713zm3.631 3.348c-.787 0-1.24.578-1.24 1.309 0 .76.453 1.308 1.24 1.308.817 0 1.241-.578 1.241-1.308.03-.73-.424-1.309-1.241-1.309zm0-1.248c1.423 0 2.663.883 2.663 2.587 0 1.705-1.271 2.587-2.663 2.587s-2.663-.882-2.663-2.587c0-1.704 1.271-2.587 2.663-2.587zm5.387 0c.696 0 1.301.183 1.786.426v1.157c-.424-.274-1.12-.487-1.695-.487-.303 0-.666.091-.666.396 0 .821 2.724.395 2.724 2.19 0 1.157-1.029 1.492-2.209 1.492-.727 0-1.423-.152-1.937-.456v-1.157c.514.335 1.271.517 1.846.517.514 0 .847-.09.847-.365 0-.791-2.723-.426-2.723-2.191.03-1.157 1.028-1.522 2.027-1.522zm5.478 0c.544 0 1.059.122 1.483.365v1.248a2.52 2.52 0 0 0-1.302-.365c-.756 0-1.513.365-1.513 1.37 0 .943.726 1.37 1.483 1.37.514 0 .999-.153 1.362-.366v1.248a4.018 4.018 0 0 1-1.634.334c-1.332 0-2.633-.76-2.633-2.495.03-1.918 1.422-2.709 2.754-2.709zM124 39.9c-.787 0-1.241.578-1.241 1.309 0 .76.454 1.308 1.241 1.308.817 0 1.241-.578 1.241-1.308.03-.73-.424-1.309-1.241-1.309zm0-1.248c1.422 0 2.663.883 2.663 2.587 0 1.705-1.271 2.587-2.663 2.587s-2.663-.882-2.663-2.587c0-1.704 1.271-2.587 2.663-2.587zm10.985.152l-1.543 4.87h-1.483l-.968-3.196-.969 3.196h-1.483l-1.543-4.87h1.483l.878 3.318.968-3.318h1.331l.969 3.318.878-3.318zm2.754 0h1.392v4.87h-1.392zm.696-.821c-.423 0-.817-.244-.817-.792s.394-.791.817-.791c.454 0 .817.243.817.791s-.393.792-.817.792zm4.752.67c1.271 0 1.967.882 1.967 2.008v3.013h-1.392v-2.83c0-.67-.394-.974-.939-.974-.484 0-.877.334-1.089.608v3.165h-1.392v-4.87h1.241v.61c.363-.396.908-.73 1.604-.73zm4.811-1.614v1.765h1.544v1.187h-1.544v1.918c0 .517.243.73.787.73.333 0 .606-.06.878-.152v1.126a4.158 4.158 0 0 1-1.301.213c-.939 0-1.756-.426-1.756-1.643V39.99h-.817v-1.187h.817v-1.43zm4.721 2.678c-.605 0-1.119.366-1.15 1.035h2.149c.091-.304-.121-1.035-.999-1.035zm-.03-1.065c1.998 0 2.663 1.583 2.33 3.044H151.6c.151.7.908 1.004 1.694 1.004.545 0 1.06-.122 1.453-.304v1.095c-.454.183-1.059.305-1.785.305-1.544 0-2.815-.883-2.815-2.587.03-1.826 1.453-2.557 2.542-2.557zm6.476 1.4c-.756-.122-1.513.152-1.785.73v2.862h-1.392v-4.87h1.241v.73c.332-.517 1.029-.913 1.936-.821zm3.602-1.4c1.271 0 1.967.883 1.967 2.009v3.013h-1.392v-2.83c0-.67-.394-.974-.938-.974-.485 0-.878.334-1.09.608v3.165h-1.392v-4.87h1.241v.61c.363-.396.908-.73 1.604-.73zm4.176 3.561c0 .365.333.609.757.609.393 0 .756-.122 1.089-.396v-.76a3.299 3.299 0 0 0-.817-.122c-.515 0-1.029.152-1.029.669zm3.601.517c.091 0 .182 0 .273-.03v.913a2.136 2.136 0 0 1-.787.152c-.484 0-.878-.182-1.059-.548-.485.366-1.029.61-1.756.61-.908 0-1.694-.518-1.694-1.492 0-1.248 1.15-1.613 2.118-1.613.393 0 .817.06 1.15.121v-.182c0-.487-.393-.822-1.15-.822-.666 0-1.271.183-1.725.365v-1.217c.393-.122 1.12-.335 1.876-.335 1.453 0 2.391.609 2.391 2.191v1.553c0 .274.182.334.363.334zm2.633-5.69v1.764h1.544v1.187h-1.544v1.918c0 .517.242.73.787.73.333 0 .605-.06.878-.152v1.126a4.17 4.17 0 0 1-1.302.213c-.938 0-1.755-.426-1.755-1.643V39.99h-.817v-1.187h.817v-1.43zm2.451 1.764h1.392v4.87h-1.392zm.696-.821c-.423 0-.817-.244-.817-.792s.394-.791.817-.791c.454 0 .818.243.818.791.03.548-.364.792-.818.792zm4.328 1.917c-.787 0-1.241.578-1.241 1.309 0 .76.454 1.308 1.241 1.308.817 0 1.241-.578 1.241-1.308 0-.73-.424-1.309-1.241-1.309zm0-1.248c1.422 0 2.663.883 2.663 2.587 0 1.705-1.271 2.587-2.663 2.587s-2.663-.882-2.663-2.587c0-1.704 1.271-2.587 2.663-2.587zm6.446 0c1.271 0 1.967.883 1.967 2.009v3.013h-1.392v-2.83c0-.67-.393-.974-.938-.974-.484 0-.878.334-1.09.608v3.165h-1.392v-4.87h1.241v.61c.363-.396.908-.73 1.604-.73zm4.176 3.561c0 .365.333.609.757.609.393 0 .756-.122 1.089-.396v-.76a3.291 3.291 0 0 0-.817-.122c-.545 0-1.029.152-1.029.669zm3.571.517c.091 0 .182 0 .273-.03v.913a2.136 2.136 0 0 1-.787.152c-.484 0-.878-.182-1.059-.548-.485.366-1.029.61-1.756.61-.907 0-1.694-.518-1.694-1.492 0-1.248 1.15-1.613 2.118-1.613.393 0 .817.06 1.15.121v-.182c0-.487-.393-.822-1.15-.822-.666 0-1.271.183-1.725.365v-1.217c.394-.122 1.12-.335 1.876-.335 1.453 0 2.391.609 2.391 2.191v1.553c.03.274.182.334.363.334zm2.361.914h-1.392v-7.396h1.392zM99.124 51.89c-.605 0-1.12.366-1.15 1.035h2.149c.06-.335-.121-1.035-1-1.035zm-.06-1.065c1.997 0 2.663 1.583 2.33 3.044h-3.42c.151.7.908 1.004 1.695 1.004.544 0 1.059-.122 1.452-.304v1.095c-.454.183-1.059.305-1.785.305-1.544 0-2.815-.883-2.815-2.587.06-1.827 1.453-2.557 2.542-2.557zm5.719 1.187c-.787 0-1.271.64-1.271 1.4 0 .76.484 1.4 1.271 1.4.605 0 1.059-.396 1.271-.822v-1.156c-.181-.457-.635-.822-1.271-.822zm2.663-3.287v7.091h-1.241v-.7c-.302.427-.877.853-1.755.853-1.543 0-2.36-1.248-2.36-2.587 0-1.34.817-2.587 2.36-2.587.757 0 1.271.304 1.604.67v-2.74zm5.932 7.091h-1.241v-.608c-.363.426-.938.76-1.604.76-1.301 0-1.967-.882-1.967-2.008v-3.013h1.392v2.83c0 .64.363.974.938.974.515 0 .878-.335 1.09-.609v-3.165h1.392zm3.662-5.021c.544 0 1.059.121 1.482.365v1.248a2.512 2.512 0 0 0-1.301-.366c-.756 0-1.513.366-1.513 1.37 0 .944.726 1.37 1.483 1.37.514 0 .999-.153 1.362-.366v1.248a4.023 4.023 0 0 1-1.635.335c-1.331 0-2.632-.76-2.632-2.496.03-1.917 1.422-2.708 2.754-2.708zm3.571 3.56c0 .366.332.61.756.61.394 0 .757-.123 1.09-.396v-.761a3.3 3.3 0 0 0-.818-.122c-.544 0-1.028.183-1.028.67zm3.571.548c.09 0 .181 0 .272-.03v.913a2.136 2.136 0 0 1-.787.152c-.484 0-.878-.183-1.059-.548-.484.365-1.029.609-1.755.609-.908 0-1.695-.517-1.695-1.491 0-1.248 1.15-1.613 2.118-1.613.394 0 .817.06 1.15.121v-.182c0-.487-.393-.822-1.15-.822-.665 0-1.271.183-1.725.365v-1.217c.394-.122 1.12-.335 1.877-.335 1.452 0 2.39.609 2.39 2.191v1.553c.031.243.182.334.364.334zm2.632-5.691v1.765h1.544v1.187h-1.544v1.918c0 .517.243.73.787.73.333 0 .606-.06.878-.152v1.126a4.161 4.161 0 0 1-1.301.213c-.939 0-1.756-.426-1.756-1.643v-2.192h-.817v-1.187h.817v-1.43zm2.482 1.735h1.392v4.87h-1.392zm.696-.791c-.424 0-.817-.244-.817-.792s.393-.791.817-.791c.454 0 .817.243.817.791s-.393.791-.817.791zm4.297 1.917c-.786 0-1.24.578-1.24 1.309 0 .76.454 1.308 1.24 1.308.817 0 1.241-.578 1.241-1.308.03-.73-.424-1.31-1.241-1.31zm0-1.248c1.423 0 2.663.883 2.663 2.587 0 1.704-1.271 2.587-2.663 2.587s-2.663-.883-2.663-2.587c0-1.704 1.271-2.587 2.663-2.587zm6.446 0c1.271 0 1.967.883 1.967 2.009v3.013h-1.392v-2.83c0-.67-.393-.975-.938-.975-.484 0-.877.335-1.089.61v3.164h-1.392v-4.87h1.24v.61c.364-.427.908-.73 1.604-.73zm5.811 4.991v-3.682h-.848v-1.187h.848v-.487c0-1.461.998-1.887 1.906-1.887.454 0 .878.091 1.181.213v1.187a1.746 1.746 0 0 0-.848-.213c-.454 0-.877.152-.877.76v.427h1.483v1.187h-1.483v3.682zm4.63-1.46c0 .365.333.608.757.608.393 0 .756-.122 1.089-.395v-.761a3.299 3.299 0 0 0-.817-.122c-.545 0-1.029.183-1.029.67zm3.571.547c.091 0 .182 0 .272-.03v.913a2.126 2.126 0 0 1-.786.152c-.485 0-.878-.183-1.06-.548-.484.365-1.029.609-1.755.609-.908 0-1.695-.517-1.695-1.491 0-1.248 1.15-1.613 2.119-1.613.393 0 .817.06 1.15.121v-.182c0-.487-.394-.822-1.15-.822-.666 0-1.271.183-1.725.365v-1.217c.393-.122 1.12-.335 1.876-.335 1.453 0 2.391.609 2.391 2.191v1.553c.03.243.181.334.363.334zm.938-3.956h1.392v4.87h-1.392zm.696-.791c-.423 0-.817-.244-.817-.792s.394-.791.817-.791c.454 0 .817.243.817.791.031.548-.363.791-.817.791zm5.115 2.07c-.757-.123-1.514.151-1.786.73v2.86h-1.392v-4.87h1.241v.731c.333-.517 1.029-.913 1.937-.821z"/></g></g></svg>